# Blender v2.91.0 OBJ File: ''
# www.blender.org
o l01_escape_terrain.object.001_terrainShape.002
v 317.174011 -4.923109 -386.183990
v 317.174011 -4.949278 -401.562042
v 317.174011 -5.196609 -418.630005
v 317.174011 -6.154764 -429.491516
v 317.174011 -7.112919 -440.352997
v -404.885986 36.887100 219.462982
v -404.885986 37.035805 216.934006
v -404.885986 37.130001 208.488007
v -404.885986 36.489304 202.424011
v -404.885986 36.205006 195.612000
v -404.885986 35.741104 188.692505
v -404.885986 36.641102 268.914001
v -404.885986 37.574600 253.794006
v -404.885986 36.446606 242.658997
v -404.885986 36.047203 240.371994
v -404.885986 35.570602 228.110001
v 317.177002 10.187901 -0.627318
v 317.174011 13.968902 16.241501
v 317.174011 16.610102 26.958401
v 317.174011 20.611801 39.590698
v 317.187012 0.211236 -44.584305
v 317.178009 1.751871 -38.363899
v 317.183014 4.971041 -27.560101
v 317.165985 9.263492 -6.006771
v 317.181000 6.907591 -15.605801
v -404.885986 41.449802 -236.350494
v -404.885986 38.071705 -256.308990
v -404.885986 37.249855 -268.048218
v -404.885986 44.827900 -216.391998
v -404.885986 45.244102 -201.293015
v -404.885986 44.614708 -193.248001
v -404.885986 43.138851 -226.371246
v -404.885986 34.850002 -436.325500
v -404.885986 34.940201 -420.792999
v -404.885986 35.030403 -405.260498
v -404.885986 34.759804 -451.858002
v -404.885986 35.120602 -389.727997
v -404.885986 35.004951 -369.075500
v 317.174011 33.866051 409.774017
v 317.174011 33.791203 446.681030
v 317.174011 33.828629 428.227539
v 317.174011 33.321205 487.303009
v 317.174011 33.673706 456.836517
v 317.174011 33.556206 466.992004
v 317.174011 33.438705 477.147522
v 317.174011 34.212753 540.544006
v 317.174011 32.965851 512.591492
v 317.174011 33.084305 504.161987
v 317.174011 32.847401 521.020996
v 317.174011 33.202755 495.732483
v 317.174011 36.943451 579.589966
v 317.174011 35.578102 560.067017
v 317.174011 38.308800 599.112976
v 317.174011 39.944847 610.653992
v 317.174011 41.580898 622.195007
v 317.174011 44.208199 636.586548
v 317.174011 46.835499 650.978027
v 317.174011 49.985703 672.013977
v 317.174011 52.478409 694.109009
v 317.174011 51.232056 683.061523
v 317.174011 53.699509 704.322998
v 317.174011 54.920605 714.536926
v 317.174011 56.500206 728.121948
v 317.174011 58.079803 741.706970
v 269.130493 74.708359 811.671021
v 278.963013 73.223106 811.671021
v 286.491516 71.877556 811.671021
v 294.019989 70.532005 811.671021
v 317.174011 63.471104 790.367981
v 317.174011 62.123276 778.202759
v 305.596985 68.094406 811.671021
v 317.174011 64.563950 801.019531
v 317.174011 65.656799 811.671021
v 317.174011 60.775452 766.037476
v 227.656006 81.004501 811.671021
v 239.632996 79.164101 811.671021
v 259.298004 76.193604 811.671021
v 249.465500 77.678848 811.671021
v 317.174011 33.903477 391.320496
v 317.174011 33.835327 362.186249
v 317.174011 33.940903 372.867004
v 317.174011 33.624176 340.824768
v 317.174011 33.518604 330.144012
v 317.174011 33.729752 351.505493
v 317.174011 33.502357 322.851501
v 317.174011 33.486107 315.559021
v 317.174011 33.469856 308.266510
v 317.174011 33.453606 300.973999
v 317.174011 33.152000 290.635498
v 317.174011 32.441750 272.324249
v 317.174011 32.850399 280.296997
v 317.174011 32.033100 264.351501
v 317.174011 31.624451 256.378754
v 317.174011 31.215801 248.406021
v 317.169495 30.762053 240.014511
v 317.165009 30.308304 231.623001
v 317.167511 32.209805 225.028992
v -404.885986 30.659601 114.002998
v -404.885986 29.118904 98.052101
v -404.885986 33.627499 124.144997
v 196.514008 83.289505 811.671021
v 185.986755 82.761230 811.671021
v 175.459503 82.232956 811.671021
v 215.679001 82.844902 811.671021
v 206.096497 83.067200 811.671021
v 136.917023 77.899597 811.671021
v 145.661011 79.538002 811.671021
v 154.405014 81.176407 811.671021
v 164.932251 81.704681 811.671021
v -404.885986 30.676203 -58.735897
v -404.885986 30.481401 -66.009598
v -404.885986 30.080103 -75.266205
v -404.885986 30.740353 -87.784103
v -404.885986 42.002499 -169.893005
v -404.885986 41.570099 -159.649994
v -404.885986 42.811005 -178.373001
v -404.885986 43.712856 -185.810501
v -404.885986 34.206802 -117.704002
v -404.885986 32.803703 -109.003006
v -404.885986 31.400602 -100.302002
v -404.885986 36.111450 -125.991501
v -404.885986 38.016102 -134.279007
v -288.640503 52.329155 811.671021
v -281.353882 52.192017 811.671021
v -274.067261 52.054878 811.671021
v -303.213745 52.603432 811.671021
v -295.927124 52.466293 811.671021
v -266.780640 51.917740 811.671021
v -310.500366 52.740570 811.671021
v -223.169250 54.044849 811.671021
v -235.277496 53.290100 811.671021
v -259.493988 51.780605 811.671021
v -247.385742 52.535355 811.671021
v -203.167755 54.699524 811.671021
v -195.274506 54.599453 811.671021
v -179.488007 54.399307 811.671021
v -187.381256 54.499382 811.671021
v -211.060989 54.799599 811.671021
v -136.073990 53.196945 811.671021
v -171.645996 54.182228 811.671021
v -155.962006 53.748070 811.671021
v -148.119995 53.530994 811.671021
v -163.804001 53.965149 811.671021
v -48.916691 32.596302 811.671021
v -37.967293 30.439402 811.671021
v -19.496492 33.092152 811.671021
v -26.575493 31.299402 811.671021
v -12.417492 34.884903 811.671021
v -6.933271 36.704105 811.671021
v 0.726799 39.726955 811.671021
v 8.386868 42.749805 811.671021
v 16.732109 45.908905 811.671021
v 25.823708 49.404598 811.671021
v 33.417160 51.484749 811.671021
v 41.010609 53.564903 811.671021
v -404.875000 38.787704 316.113007
v -404.885986 38.792004 338.591003
v -404.885986 38.711700 344.174011
v -404.885986 37.825603 353.341980
v -404.885986 37.005604 363.092987
v -404.864014 38.379505 308.742004
v -404.885986 35.671402 278.449005
v -404.858002 38.117104 304.002991
v -404.885986 35.590405 284.401001
v -404.885986 34.046505 492.678986
v -404.885986 33.579506 482.033997
v -404.885986 33.112503 471.388977
v -404.885986 32.645504 460.743988
v -404.885986 32.178505 450.098999
v -404.885986 33.648705 536.143982
v -404.885986 33.947052 503.545227
v -404.885986 33.748154 525.277710
v -404.885986 33.847603 514.411499
v -404.885986 27.019102 60.829395
v -404.885986 30.564802 37.352200
v -404.885986 26.661701 65.978104
v -404.885986 29.628103 48.671700
v -404.885986 26.275002 72.788300
v -404.885986 26.380404 69.570389
v -404.885986 26.166004 78.409889
v -404.885986 26.391003 81.651199
v -404.885986 36.457699 609.898010
v -404.885986 36.538673 626.867004
v -124.027985 52.862900 811.671021
v -105.292084 49.067852 811.671021
v -114.660034 50.965378 811.671021
v -86.556190 45.272804 811.671021
v -95.924133 47.170326 811.671021
v -79.038147 42.600952 811.671021
v -71.520096 39.929100 811.671021
v -60.218391 36.262703 811.671021
v -404.885986 34.889305 -348.423004
v -404.885986 34.863056 -337.133728
v -404.885986 34.836807 -325.844482
v -404.885986 34.784306 -303.265991
v -404.885986 35.606155 -291.526733
v -404.885986 36.428005 -279.787476
v -404.885986 34.810555 -314.555237
v -404.885986 33.076157 436.540497
v -404.885986 33.973804 422.981995
v -404.885986 34.435928 411.856506
v -404.885986 36.185604 372.843994
v -404.885986 35.360180 389.605530
v -404.885986 35.822304 378.480011
v -404.885986 34.898056 400.731018
v 317.174011 -3.863594 -336.470001
v 317.174011 -4.581629 -347.433990
v 317.174011 -4.752369 -366.808990
v 317.174011 -4.666999 -357.121490
v 317.174011 -4.837739 -376.496490
v 317.174011 -3.145558 -325.506012
v 317.174011 -4.936193 -393.873016
v 317.174011 -5.072944 -410.096008
v 317.174011 -8.413694 -452.802521
v 317.174011 -9.714469 -465.252045
v 317.174011 -3.530033 -314.776489
v 317.174011 -3.914508 -304.046997
v 317.174011 -4.664104 -293.343018
v 317.174011 -5.413699 -282.639008
v 317.174011 -6.858109 -273.798523
v 317.174011 -8.302518 -264.958008
v 317.174011 -7.888133 -255.265015
v 317.174011 -7.473749 -245.572006
v 317.174011 -7.436219 -238.729492
v 317.174011 -7.398689 -231.886993
v 317.184998 -4.093159 -120.066010
v 317.178986 -4.066208 -119.960999
v 317.173004 -2.244029 -113.231003
v 317.175995 -1.998839 -107.147003
v 317.179993 -2.440729 -99.070000
v 317.187988 -5.048298 -128.229996
v 317.171997 -4.757369 -135.576004
v 317.169006 -4.803578 -145.315994
v 317.170990 -5.499779 -155.348007
v 317.170990 -6.223119 -165.776993
v 317.173004 -6.728729 -169.257996
v 317.174011 -7.304379 -179.022018
v 317.182495 -2.714019 -92.564651
v 317.184998 -2.987308 -86.059303
v 317.196991 -3.154598 -79.822403
v 317.204987 -3.116368 -75.732399
v 317.174011 -8.589104 -186.235016
v 317.174011 -9.873829 -193.448013
v 317.174011 -10.317599 -198.682007
v 317.174011 -9.972599 -202.865997
v 317.174011 -9.007509 -212.936996
v 317.174011 -7.900679 -222.662994
v 317.217987 -2.003778 -63.367001
v 317.170990 -1.593419 -56.834999
v 317.190002 -0.923913 -51.698105
v 317.175507 12.078402 7.807091
v 317.174011 18.610950 33.274551
v 317.174011 21.960354 46.028145
v 317.174011 23.308905 52.465595
v 317.174011 24.112953 58.863197
v 317.174011 24.917002 65.260803
v 317.174011 26.643604 76.252296
v 317.174011 -21.142622 -595.659790
v 317.174011 -21.167297 -586.257996
v 317.174011 -20.374649 -573.986511
v 317.174011 -19.582001 -561.715027
v 317.174011 -21.117947 -605.061523
v 317.174011 -21.093271 -614.463257
v 317.174011 -21.068596 -623.864990
v 317.174011 -12.275623 -495.644958
v 317.174011 -13.019548 -503.428986
v 317.174011 -11.531699 -487.860962
v 317.174011 -10.915799 -480.024475
v 317.174011 -10.299899 -472.187958
v 317.174011 -13.763474 -511.213013
v 317.174011 -14.507399 -518.997009
v 317.174011 -18.601524 -552.684814
v 317.174011 -17.621050 -543.654541
v 317.174011 -16.640575 -534.624268
v 317.174011 -15.660099 -525.593994
v 92.221054 66.605011 811.671021
v 99.122910 68.787804 811.671021
v 103.876007 70.422997 811.671021
v 120.396515 74.161301 811.671021
v 112.136261 72.292145 811.671021
v 128.656769 76.030449 811.671021
v 53.470306 56.320999 811.671021
v 65.930008 59.077099 811.671021
v 75.624603 61.749657 811.671021
v 85.319206 64.422211 811.671021
v 130.521011 -35.310001 -633.791016
v 129.230011 -35.432499 -633.791016
v 120.791008 -35.185295 -633.791016
v 119.500008 -35.042301 -633.791016
v 109.799515 -35.011448 -633.791016
v 100.099014 -34.980595 -633.791016
v 93.332565 -34.132118 -633.791016
v 86.566116 -33.283646 -633.791016
v 151.563019 -33.268997 -633.791016
v 141.042023 -34.289497 -633.791016
v 157.956512 -31.873222 -633.791016
v 164.350006 -30.477448 -633.791016
v 170.743500 -29.081673 -633.791016
v 177.136993 -27.685898 -633.791016
v 192.468002 -23.997498 -633.791016
v 184.802490 -25.841698 -633.791016
v 200.181000 -22.229797 -633.791016
v 212.575989 -20.939848 -633.791016
v 224.970993 -19.649899 -633.791016
v 79.799667 -32.435173 -633.791016
v 73.033211 -31.586697 -633.791016
v 61.864010 -29.372898 -633.791016
v 52.216362 -26.603048 -633.791016
v 42.568710 -23.833199 -633.791016
v 33.343811 -21.344999 -633.791016
v 24.118908 -18.856800 -633.791016
v 17.601507 -16.938400 -633.791016
v 10.710407 -14.867498 -633.791016
v 4.263483 -13.031506 -633.791016
v -2.183442 -11.195514 -633.791016
v 317.174011 -20.477798 -633.791016
v 307.067993 -16.170448 -633.791016
v 296.962006 -11.863099 -633.791016
v 287.337006 -12.157099 -633.791016
v 277.712006 -12.451098 -633.791016
v 268.566498 -14.870899 -633.791016
v 250.808487 -17.880499 -633.791016
v 242.195984 -18.470299 -633.791016
v 233.583496 -19.060099 -633.791016
v 259.420990 -17.290699 -633.791016
v -404.885986 37.182602 143.916000
v -404.885986 37.163204 152.186996
v -404.885986 36.641403 165.852005
v -404.885986 37.236305 159.960007
v -404.885986 36.059200 136.042999
v -404.885986 34.338905 128.395004
v -404.885986 29.788002 104.431000
v -404.885986 28.483204 92.307999
v -404.885986 27.602287 88.940002
v -404.885986 34.350952 554.582520
v -404.885986 34.702076 563.801758
v -404.885986 35.053200 573.020996
v -404.885986 33.999828 545.363281
v -404.885986 35.404324 582.240234
v -404.885986 35.755447 591.459473
v -404.885986 36.106575 600.678711
v -404.885986 36.498184 618.382507
v -404.885986 36.579163 635.351501
v -404.885986 36.619652 643.835999
v -404.885986 36.660141 652.320496
v -404.885986 36.700630 660.804993
v -404.885986 36.741119 669.289490
v -404.885986 36.781605 677.773987
v -404.885986 37.527306 261.665009
v -404.885986 37.710201 257.766998
v -404.876007 36.449703 291.066986
v -404.867004 37.283401 297.534973
v -404.885986 37.290905 251.029007
v -404.885986 38.998055 331.112000
v -404.885986 39.204105 323.632996
v -404.885986 33.524979 429.761230
v -404.885986 32.627331 443.319763
v -404.885986 35.277203 181.772995
v -404.885986 50.709991 790.804504
v -404.885986 51.563728 797.760010
v -404.885986 49.856251 783.848999
v -404.885986 45.233837 746.245361
v -404.885986 46.441299 756.026978
v -404.885986 47.295036 762.982483
v -404.885986 48.148773 769.937988
v -404.885986 37.989067 687.555664
v -404.885986 39.196526 697.337280
v -404.885986 40.403988 707.118896
v -404.885986 41.611450 716.900513
v -404.885986 42.818913 726.682129
v -404.885986 44.026375 736.463745
v -317.786987 52.877705 811.671021
v -325.623718 52.835030 811.671021
v -333.460480 52.792351 811.671021
v -341.297241 52.749676 811.671021
v -349.133972 52.707001 811.671021
v -359.590485 53.343605 811.671021
v -370.046997 53.980206 811.671021
v -378.756744 53.802956 811.671021
v -387.466492 53.625702 811.671021
v -404.885986 52.417465 804.715515
v -396.176239 53.448452 811.671021
v -404.885986 53.271202 811.671021
v -404.885986 49.002510 776.893494
v -28.152794 31.334906 811.671021
v -32.294392 31.021404 811.671021
v -36.436092 30.708002 811.671021
v -15.077291 -7.523529 -633.791016
v -8.630367 -9.359522 -633.791016
v -22.415005 -6.123230 -633.791016
v -44.428143 -1.922334 -633.791016
v -29.752716 -4.722931 -633.791016
v -37.090431 -3.322633 -633.791016
v -83.396988 5.367829 -633.791016
v -93.014992 7.056797 -633.791016
v -73.778992 3.678861 -633.791016
v -51.765854 -0.522035 -633.791016
v -59.103569 0.878264 -633.791016
v -66.441284 2.278563 -633.791016
v -131.487000 13.812666 -633.791016
v -121.868996 12.123699 -633.791016
v -112.250992 10.434731 -633.791016
v -102.632996 8.745764 -633.791016
v -161.166748 19.195902 -633.791016
v -150.722992 17.190601 -633.791016
v -141.104996 15.501634 -633.791016
v -171.610504 21.201202 -633.791016
v -404.885986 30.756401 -0.404206
v -404.885986 31.535303 -11.132101
v -404.885986 30.700804 7.758039
v -404.885986 30.994701 24.070400
v -404.885986 30.779751 30.711300
v -404.885986 31.565302 -19.386202
v -404.885986 31.256004 -44.028301
v -404.885986 31.295403 -33.333500
v -404.885986 35.672298 172.826996
v 317.174500 32.277950 187.512497
v 317.174988 34.695099 196.723999
v 317.187988 34.960800 209.355011
v 317.174011 29.860804 178.300995
v 317.174011 28.735352 169.377747
v 317.174011 27.609901 160.454498
v 317.174011 28.082951 107.881447
v 317.174011 27.932402 116.808990
v 317.174011 26.645702 129.708496
v 317.174011 27.289051 123.258743
v 317.174011 25.359001 142.608002
v 317.174011 26.002352 136.158249
v 317.174011 26.484451 151.531250
v 317.174011 33.809914 437.454285
v 317.174011 33.847340 419.000793
v 317.174011 33.922188 382.093750
v 317.174011 33.884766 400.547241
v 317.174011 33.530075 530.782471
v 317.174011 34.895428 550.305542
v 317.174011 48.410599 661.495972
v 317.174011 45.521851 643.782288
v 317.174011 42.894547 629.390747
v 317.174011 36.260777 569.828491
v 317.174011 37.626125 589.351440
v 317.174011 55.710403 721.329468
v 317.174011 57.290005 734.914429
v 317.174011 59.427628 753.872192
v 317.170013 34.111305 218.434998
v -404.885986 35.474464 -548.299683
v -404.885986 35.455353 -541.242981
v -404.885986 35.436241 -534.186279
v -404.885986 35.417126 -527.129517
v -404.885986 35.398010 -520.072754
v -404.885986 35.378899 -513.015991
v -404.885986 35.301514 -505.371246
v -404.885986 35.224125 -497.726501
v -404.885986 35.146736 -490.081757
v -404.885986 35.069351 -482.437012
v -404.885986 34.991966 -474.792267
v -404.885986 34.914577 -467.147522
v -404.885986 34.837189 -459.502747
v -404.885986 34.804901 -444.091736
v -404.885986 34.895103 -428.559265
v -404.885986 34.985302 -413.026733
v -404.885986 35.075500 -397.494263
v -404.885986 35.062775 -379.401733
v -404.885986 34.947128 -358.749268
v -404.885986 39.760754 -246.329742
v -404.885986 26.643003 85.038300
v -404.885986 38.904602 -140.621765
v -404.885986 39.793098 -146.964508
v -404.885986 40.681599 -153.307251
v -404.885986 30.966103 -51.382099
v -404.885986 31.430351 -26.359852
v -404.885986 35.512688 -562.413208
v -404.885986 35.493576 -555.356445
v -404.885986 35.531803 -569.469971
v -404.885986 35.538200 -577.510132
v -404.885986 35.544601 -585.550232
v -404.885986 35.551003 -593.590332
v -404.885986 35.557404 -601.630493
v -404.885986 35.563805 -609.670654
v -404.885986 35.570202 -617.710754
v -404.885986 35.576599 -625.750854
v -404.885986 35.583000 -633.791016
v -404.885986 30.847752 15.914220
v -404.885986 45.036003 -208.842499
v -182.054260 23.206501 -633.791016
v -219.062500 27.430153 -633.791016
v -203.060989 25.871302 -633.791016
v -192.498001 25.211802 -633.791016
v -211.061737 26.650726 -633.791016
v -235.064011 28.989004 -633.791016
v -244.811768 29.517090 -633.791016
v -254.559509 30.045177 -633.791016
v -264.307251 30.573265 -633.791016
v -227.063263 28.209579 -633.791016
v -274.054993 31.101353 -633.791016
v -283.802734 31.629438 -633.791016
v -293.550476 32.157524 -633.791016
v -303.298218 32.685612 -633.791016
v -313.045990 33.213699 -633.791016
v -349.180969 34.250099 -633.791016
v -361.906006 34.520802 -633.791016
v -324.750977 33.596550 -633.791016
v -336.455963 33.979401 -633.791016
v -372.651001 34.786354 -633.791016
v -383.395996 35.051903 -633.791016
v -394.140991 35.317451 -633.791016
v 317.174011 27.196949 88.940002
v 317.174011 27.396101 93.506393
v 317.174011 28.233501 98.953903
v -43.904564 -216.105255 49.663864
s 1
f 341 340 509
f 496 495 509
f 58 60 509
f 413 470 509
f 470 415 509
f 220 221 509
f 150 149 509
f 409 413 509
f 92 90 509
f 170 172 509
f 183 342 509
f 225 247 509
f 219 220 509
f 342 182 509
f 187 188 509
f 129 372 509
f 221 222 509
f 188 185 509
f 344 343 509
f 76 75 509
f 343 183 509
f 472 471 509
f 222 223 509
f 184 139 509
f 59 61 509
f 372 373 509
f 497 496 509
f 346 345 509
f 377 378 509
f 471 473 509
f 223 224 509
f 103 109 509
f 498 497 509
f 345 344 509
f 473 474 509
f 373 374 509
f 224 225 509
f 348 347 509
f 474 475 509
f 227 509 226
f 420 417 509
f 347 346 509
f 374 375 509
f 94 93 509
f 475 476 509
f 12 349 509
f 227 228 509
f 476 477 509
f 349 350 509
f 101 102 509
f 375 376 509
f 412 411 509
f 350 13 509
f 95 94 509
f 102 103 509
f 477 478 509
f 228 229 509
f 162 12 509
f 175 412 509
f 164 162 509
f 96 95 509
f 478 479 509
f 114 116 509
f 351 164 509
f 229 230 509
f 480 481 509
f 277 276 509
f 378 379 509
f 352 351 509
f 232 231 509
f 290 289 509
f 379 380 509
f 97 96 509
f 410 408 509
f 189 187 509
f 163 352 509
f 376 377 509
f 161 163 509
f 411 482 509
f 291 290 509
f 482 410 509
f 233 232 509
f 13 353 509
f 67 66 509
f 234 233 509
f 353 14 509
f 282 155 509
f 30 483 509
f 293 292 509
f 104 105 509
f 116 117 509
f 483 29 509
f 157 354 509
f 117 31 509
f 292 291 509
f 105 101 509
f 316 264 509
f 484 407 509
f 278 277 509
f 235 234 509
f 354 355 509
f 381 360 509
f 400 401 509
f 236 235 509
f 445 472 509
f 355 156 509
f 380 382 509
f 190 189 509
f 383 381 509
f 9 10 509
f 77 78 509
f 237 236 509
f 207 206 509
f 361 384 509
f 284 283 509
f 388 389 509
f 313 312 509
f 402 403 509
f 78 76 509
f 230 238 509
f 384 365 509
f 285 284 509
f 140 136 509
f 389 315 509
f 7 8 509
f 238 239 509
f 8 9 509
f 239 240 509
f 6 7 509
f 273 274 509
f 14 15 509
f 16 6 509
f 65 77 509
f 390 388 509
f 15 16 509
f 318 317 509
f 142 141 509
f 240 241 509
f 204 202 509
f 403 395 509
f 500 499 509
f 269 215 509
f 202 160 509
f 401 402 509
f 319 318 509
f 139 142 509
f 504 503 509
f 160 159 509
f 283 282 509
f 486 487 509
f 275 271 509
f 141 143 509
f 68 67 509
f 144 191 509
f 159 158 509
f 276 285 509
f 203 204 509
f 243 242 509
f 205 203 509
f 191 190 509
f 201 205 509
f 242 237 509
f 200 201 509
f 487 484 509
f 257 506 509
f 199 356 509
f 306 305 509
f 244 243 509
f 356 200 509
f 156 161 509
f 499 502 509
f 169 357 509
f 245 244 509
f 357 199 509
f 315 314 509
f 168 169 509
f 167 168 509
f 143 140 509
f 246 245 509
f 314 313 509
f 166 167 509
f 165 166 509
f 305 293 509
f 502 501 509
f 11 358 509
f 247 246 509
f 10 11 509
f 173 171 509
f 75 104 509
f 241 248 509
f 31 30 509
f 397 391 509
f 488 486 509
f 360 359 509
f 320 319 509
f 485 488 509
f 321 320 509
f 359 361 509
f 89 88 509
f 248 249 509
f 392 390 509
f 363 362 509
f 307 306 509
f 279 280 509
f 362 371 509
f 308 307 509
f 393 392 509
f 503 500 509
f 366 348 509
f 249 250 509
f 280 278 509
f 365 364 509
f 323 322 509
f 391 393 509
f 370 369 509
f 135 134 509
f 364 363 509
f 93 92 509
f 90 91 509
f 250 21 509
f 367 366 509
f 126 129 509
f 88 87 509
f 21 22 509
f 289 288 509
f 87 86 509
f 22 23 509
f 86 85 509
f 23 25 509
f 50 48 509
f 369 368 509
f 29 32 509
f 85 83 509
f 25 24 509
f 82 84 509
f 24 17 509
f 136 137 509
f 42 50 509
f 371 370 509
f 45 42 509
f 17 251 509
f 72 73 509
f 251 18 509
f 281 279 509
f 137 135 509
f 91 89 509
f 69 72 509
f 18 19 509
f 106 281 509
f 446 445 509
f 301 300 509
f 60 59 509
f 130 131 509
f 501 498 509
f 299 301 509
f 417 418 509
f 19 252 509
f 506 507 509
f 309 308 509
f 252 20 509
f 70 69 509
f 300 302 509
f 448 447 509
f 418 419 509
f 20 253 509
f 71 68 509
f 447 446 509
f 286 295 509
f 302 303 509
f 134 138 509
f 253 254 509
f 295 294 509
f 490 489 509
f 450 449 509
f 421 420 509
f 294 296 509
f 507 508 509
f 491 490 509
f 254 255 509
f 449 448 509
f 422 421 509
f 296 297 509
f 416 328 509
f 324 323 509
f 423 424 509
f 255 256 509
f 147 385 509
f 43 44 509
f 66 65 509
f 256 257 509
f 452 451 509
f 304 324 509
f 297 298 509
f 138 130 509
f 186 184 509
f 492 491 509
f 451 450 509
f 44 45 509
f 368 367 509
f 385 386 509
f 426 425 509
f 493 485 509
f 322 325 509
f 71 509 73
f 454 453 509
f 505 504 509
f 424 426 509
f 489 493 509
f 453 452 509
f 508 423 509
f 325 321 509
f 428 427 509
f 298 299 509
f 456 455 509
f 83 82 509
f 425 428 509
f 258 259 509
f 455 454 509
f 429 422 509
f 259 260 509
f 36 457 509
f 387 145 509
f 427 429 509
f 481 505 509
f 260 261 509
f 40 43 509
f 457 456 509
f 358 416 509
f 132 128 509
f 386 387 509
f 430 40 509
f 33 458 509
f 84 80 509
f 41 430 509
f 458 36 509
f 395 394 509
f 133 132 509
f 431 41 509
f 262 258 509
f 34 459 509
f 39 431 509
f 263 262 509
f 459 33 509
f 404 405 509
f 310 309 509
f 327 326 509
f 80 81 509
f 35 460 509
f 328 329 509
f 432 79 509
f 460 34 509
f 131 133 509
f 81 432 509
f 264 263 509
f 115 114 509
f 37 461 509
f 151 150 509
f 303 304 509
f 433 39 509
f 394 396 509
f 461 35 509
f 329 327 509
f 79 433 509
f 266 265 509
f 311 310 509
f 47 49 509
f 38 462 509
f 462 37 509
f 326 330 509
f 434 46 509
f 49 434 509
f 265 267 509
f 192 463 509
f 463 38 509
f 330 331 509
f 435 52 509
f 267 268 509
f 398 397 509
f 193 192 509
f 261 272 509
f 46 435 509
f 194 193 509
f 331 100 509
f 198 194 509
f 100 98 509
f 124 123 509
f 436 58 509
f 195 198 509
f 57 436 509
f 268 269 509
f 196 195 509
f 332 99 509
f 125 124 509
f 197 196 509
f 98 332 509
f 437 57 509
f 28 197 509
f 56 437 509
f 270 266 509
f 27 28 509
f 208 209 509
f 127 126 509
f 209 207 509
f 107 106 509
f 99 333 509
f 145 144 509
f 438 56 509
f 271 270 509
f 152 151 509
f 123 127 509
f 55 438 509
f 464 27 509
f 272 273 509
f 1 210 509
f 333 334 509
f 439 51 509
f 210 208 509
f 52 439 509
f 26 464 509
f 206 211 509
f 54 55 509
f 274 275 509
f 32 26 509
f 53 54 509
f 336 335 509
f 465 181 509
f 405 406 509
f 494 492 509
f 2 212 509
f 153 152 509
f 212 1 509
f 406 400 509
f 334 465 509
f 51 440 509
f 181 180 509
f 3 213 509
f 128 125 509
f 180 178 509
f 213 2 509
f 440 53 509
f 178 179 509
f 4 3 509
f 407 404 509
f 179 176 509
f 287 286 509
f 5 4 509
f 337 336 509
f 158 157 509
f 176 174 509
f 174 177 509
f 177 175 509
f 215 214 509
f 312 311 509
f 335 338 509
f 146 147 509
f 122 466 509
f 214 5 509
f 338 170 509
f 172 173 509
f 466 467 509
f 408 409 509
f 288 287 509
f 48 47 509
f 61 62 509
f 444 97 509
f 148 146 509
f 467 468 509
f 171 165 509
f 441 63 509
f 211 216 509
f 108 107 509
f 62 441 509
f 468 115 509
f 121 122 509
f 185 186 509
f 154 153 509
f 442 64 509
f 118 121 509
f 216 217 509
f 149 148 509
f 63 442 509
f 119 118 509
f 74 70 509
f 396 399 509
f 120 119 509
f 340 339 509
f 113 120 509
f 112 113 509
f 155 154 509
f 339 337 509
f 64 443 509
f 399 398 509
f 111 112 509
f 109 108 509
f 110 111 509
f 217 218 509
f 443 74 509
f 419 444 509
f 414 469 509
f 182 341 509
f 495 494 509
f 469 110 509
f 218 219 509
f 415 414 509
f 479 480 509
f 231 226 509
f 382 383 509
f 317 316 509
