# Blender v2.91.0 OBJ File: ''
# www.blender.org
o l02_garbage_terrain.object.001_terrainShape.004
v -119.349998 12.695769 -322.450012
v -124.349998 12.958265 -322.450012
v -129.350006 12.814581 -322.450012
v -134.350006 11.752847 -322.450012
v -139.350006 9.957484 -322.450012
v -144.350006 8.235107 -322.450012
v -149.350006 6.529076 -322.450012
v -154.350006 4.849318 -322.450012
v -159.350006 3.241558 -322.450012
v -164.350006 1.694248 -322.450012
v -169.350006 0.165061 -322.450012
v -174.350006 -1.276024 -322.450012
v -179.350006 -2.138374 -322.450012
v -184.350006 -2.510120 -322.450012
v -189.350006 -2.789924 -322.450012
v -194.350006 -2.799537 -322.450012
v -199.350006 -2.555892 -322.450012
v -204.350006 -2.463898 -322.450012
v -209.350006 -2.580204 -322.450012
v -214.350006 -2.920511 -322.450012
v -219.350006 -3.480006 -322.450012
v -224.350006 -4.228095 -322.450012
v -229.350006 -5.109132 -322.450012
v -234.350006 -6.047711 -322.450012
v -239.350006 -7.017458 -322.450012
v 40.195499 18.093025 -322.000000
v 35.181999 18.021469 -322.000000
v 2.754202 3.835654 -321.748901
v 5.567009 5.357555 -321.474060
v 27.675697 16.103264 -322.000000
v 25.446955 14.440714 -322.000000
v 23.911045 12.902241 -322.000000
v 22.427280 11.581111 -322.000000
v 15.478835 8.751283 -321.665497
v 13.089695 8.488888 -321.331024
v 17.603374 9.105932 -321.999969
v 20.137705 10.097568 -322.000000
v 10.561383 7.389438 -321.265106
v 30.179199 17.575438 -322.000000
v 8.222903 6.571468 -321.199188
v 120.081009 26.519577 -322.000000
v 115.248001 26.573633 -322.000000
v 100.275002 26.843460 -322.000000
v 95.192802 26.340178 -322.000000
v 105.427002 27.046280 -322.000000
v 110.436989 26.821640 -322.000000
v 90.173492 25.728252 -322.000000
v 85.171501 25.105171 -322.000000
v 80.176300 24.691734 -322.000000
v 75.181503 24.161846 -322.000000
v 70.184898 23.429907 -322.000000
v 60.200497 22.163185 -322.000000
v 55.208797 22.008821 -322.000000
v 65.191399 22.686758 -322.000000
v 45.226700 20.607525 -322.000000
v 50.220402 21.759838 -322.000000
v 315.494995 1.300125 2.392150
v 315.649994 0.545768 -2.450000
v 316.067993 3.942773 7.313950
v 316.599243 8.782138 12.537401
v 320.700012 12.715204 37.750095
v 320.700012 15.753388 32.875992
v 320.700012 17.726971 28.356794
v 320.700012 18.210865 23.852995
v 320.700012 16.253105 18.136999
v 320.699982 9.628478 42.753788
v 320.699982 7.498880 47.776489
v 320.699982 6.248318 52.784492
v 320.699982 5.661018 57.784191
v 320.699982 5.677447 62.782890
v 320.699982 6.474175 67.782082
v 320.699982 7.741538 72.781784
v 320.699982 8.946941 77.781891
v 160.205994 22.381348 -322.000000
v 155.207001 24.122244 -322.000000
v 150.207001 24.946955 -322.000000
v 145.207001 25.228779 -322.000000
v 140.203003 25.293623 -322.000000
v 135.181000 25.629333 -322.000000
v 130.141998 26.125444 -322.000000
v 125.109001 26.461477 -322.000000
v 80.877800 11.056357 317.600006
v 75.881302 13.991731 317.600006
v 70.885498 16.897461 317.600006
v 65.851700 19.654558 317.600006
v 60.728500 21.795404 317.600006
v 55.956799 22.377066 317.600006
v 51.907398 20.704700 317.600006
v 46.811401 16.593901 317.600006
v 40.644699 7.011971 317.600006
v -2.624270 0.332608 317.549988
v -10.053799 0.329177 317.549988
v -14.350000 0.361437 317.549988
v 0.650000 0.373757 317.549988
v 5.650000 0.898459 317.549988
v 15.650000 3.034877 317.549988
v 10.650000 1.981244 317.549988
v 20.650000 3.501515 317.549988
v 25.650000 3.407968 317.549988
v 30.380501 3.581334 317.600006
v 35.128700 4.514172 317.600006
v 195.871994 0.906056 317.600006
v 200.871994 1.131469 317.600006
v 190.871994 0.518829 317.600006
v 185.871994 0.105237 317.600006
v 180.871994 -0.275237 317.600006
v 175.871994 -0.630874 317.600006
v 170.871994 -0.989961 317.600006
v 165.871994 -0.927000 317.600006
v 160.871994 -0.526392 317.600006
v 155.871994 -0.214746 317.600006
v 150.871994 -0.124763 317.600006
v 145.871994 -0.310098 317.600006
v 140.871994 -0.718569 317.600006
v 120.872002 -1.774988 317.600006
v 125.872002 -1.824812 317.600006
v 130.871994 -1.622114 317.600006
v 135.871994 -1.211375 317.600006
v 220.871994 -1.808213 317.600006
v 225.871994 -2.937681 317.600006
v 230.871994 -3.240398 317.600006
v 235.871994 -2.756685 317.600006
v 240.871994 -2.055066 317.600006
v 205.871994 1.029261 317.600006
v 210.871994 0.482603 317.600006
v 215.871994 -0.508206 317.600006
v 115.872002 -1.506311 317.600006
v 110.872002 -1.091062 317.600006
v 105.872002 -0.429519 317.600006
v 100.872002 0.926467 317.600006
v 95.871101 2.912346 317.600006
v 90.871002 5.378937 317.600006
v 85.873299 8.148992 317.600006
v 320.700012 -5.341567 237.781998
v 320.700012 -6.325000 232.781998
v 320.700012 -6.912301 227.781998
v 320.700012 -6.864772 222.781998
v 320.700012 -6.164278 217.781998
v 320.700012 -5.131445 212.781998
v 320.700012 -4.381546 207.781998
v 320.700012 -4.573411 202.781998
v 320.700012 -6.006421 197.781998
v 320.700012 -12.988813 277.782013
v 320.700012 -13.937251 272.782013
v 320.700012 -14.545420 267.782013
v 320.700012 -13.831634 262.782013
v 320.700012 -11.433394 257.782013
v 320.700012 -8.325497 252.781998
v 320.700012 -5.827164 247.781998
v 320.700012 -4.732907 242.781998
v 300.868011 -1.973778 317.600006
v 305.838013 -2.517051 317.600006
v 310.906006 -3.597690 317.600006
v 316.234009 -4.495991 317.600006
v 320.700012 -11.854692 282.782013
v 320.700012 -11.330238 287.782990
v 320.700012 -11.726763 292.782990
v 320.700012 -12.234618 297.768005
v 320.700012 -11.296091 302.722992
v 320.700012 -9.040231 307.795990
v 320.700012 -6.612275 312.600006
v 320.700012 -4.914999 317.600006
v 280.872009 -0.414902 317.600006
v 285.871002 -1.863958 317.600006
v 290.871002 -2.617576 317.600006
v 295.872009 -2.539976 317.600006
v 260.872009 1.286248 317.600006
v 265.872009 1.699924 317.600006
v 270.872009 1.583604 317.600006
v 275.872009 0.855652 317.600006
v 245.871994 -1.253756 317.600006
v 250.871994 -0.368973 317.600006
v 255.871994 0.528153 317.600006
v 314.066467 16.648693 -133.599197
v 314.382141 16.744509 -128.443207
v 314.691528 17.001532 -123.239212
v 319.558990 11.747540 -162.945999
v 319.822998 10.871537 -157.718994
v 319.777008 10.553502 -152.912003
v 319.397003 11.507037 -148.108002
v 318.678009 13.291557 -143.707993
v 318.104004 15.049129 -139.242004
v 318.009003 15.591404 -134.447006
v 305.136993 13.775752 -322.000000
v 300.122986 13.817099 -322.000000
v 295.156006 13.366255 -322.000000
v 310.587006 12.993652 -322.000000
v 316.261993 11.911310 -322.000000
v 320.500000 16.154968 -282.122986
v 320.500000 17.273911 -287.121002
v 320.500000 18.360245 -292.119995
v 320.500000 18.207104 -297.105011
v 320.500000 16.792387 -302.084991
v 320.500000 14.555303 -307.216003
v 320.500000 12.521958 -312.876007
v 320.500000 11.706869 -318.339996
v 320.500000 11.943884 -322.000000
v 285.161987 12.064678 -322.000000
v 280.203003 12.399888 -322.000000
v 275.209015 12.671467 -322.000000
v 290.088989 12.629780 -322.000000
v 320.500000 15.492140 -277.127991
v 320.500000 15.476933 -272.131989
v 320.500000 16.217480 -267.132996
v 320.500000 17.338593 -262.118988
v 320.500000 17.706884 -257.500000
v 320.500000 17.421999 -252.000000
v 320.500000 15.511345 -247.500000
v 320.500000 13.833936 -241.746002
v 320.500000 13.824752 -236.934006
v 320.500000 13.628127 -232.268997
v 320.500000 13.039550 -227.500000
v 320.500000 13.190609 -223.000000
v 320.649994 10.858106 -217.500000
v 320.649994 10.080553 -212.449997
v 320.649994 10.892298 -207.449997
v 320.649994 11.911579 -202.449997
v -134.944000 17.195780 318.000000
v -129.944000 18.235132 318.000000
v -144.944000 16.178658 318.000000
v -139.944000 16.442530 318.000000
v -154.942993 17.264858 318.000000
v -159.944000 18.262302 318.000000
v -149.942993 16.478569 318.000000
v -119.944000 20.044960 318.000000
v -124.944000 19.280045 318.000000
v 314.851410 17.265715 -117.824768
v 315.080444 17.681988 -112.454628
v 315.243408 17.811018 -107.537018
v 315.216980 17.786161 -102.897194
v 314.967560 16.812164 -98.278900
v 314.752167 14.530718 -93.581757
v 314.817261 10.851694 -88.674271
v 314.959778 6.212634 -83.497337
v -199.951996 12.155349 318.000000
v -194.951996 14.060473 318.000000
v -189.951996 16.023615 318.000000
v -184.951996 17.626703 318.000000
v -169.949997 19.435671 318.000000
v -164.947006 19.076963 318.000000
v -179.950989 18.563812 318.000000
v -174.950989 19.162085 318.000000
v -239.951950 -4.231369 317.999969
v -234.951965 -0.828304 317.999969
v -214.951996 8.379250 318.000000
v -209.951996 9.561376 318.000000
v -219.951996 7.037273 318.000000
v -224.951996 5.022301 318.000000
v -229.951965 2.348490 317.999969
v -204.951996 10.721392 318.000000
v 315.600006 -2.396133 -39.736603
v 315.649994 -2.220159 -37.449997
v 315.450012 -2.557862 -42.049999
v 315.057953 2.836479 -78.166077
v 315.033447 1.229409 -72.954353
v 314.975403 -0.073336 -67.917831
v 315.128021 -1.044153 -62.802982
v 315.424683 -2.256232 -57.521671
v 315.544830 -2.903793 -52.475563
v 315.649994 -2.922658 -47.450001
v -319.000000 20.530005 198.514008
v -319.000000 19.133106 193.498001
v -318.999969 17.474522 188.490005
v -318.999969 14.241577 178.884995
v -318.999969 15.947353 183.531021
v -319.000000 9.943960 174.199997
v -319.000000 3.963003 168.873978
v -319.000000 -1.617049 163.615005
v -319.000000 -2.906568 157.895996
v -319.000000 14.775963 233.518005
v -319.000000 11.751326 238.518005
v -319.000000 17.133947 228.518005
v -319.000000 18.933493 223.518005
v -319.000000 20.607397 213.518005
v -319.000000 20.095003 218.518005
v -319.000000 20.744917 208.518005
v -319.000000 20.787188 203.518997
v -319.000000 -8.058540 273.518005
v -319.000000 -9.598175 278.518005
v -319.000000 -4.086005 263.518005
v -319.000000 -6.204066 268.518005
v -319.000000 4.386662 248.518005
v -319.000000 0.947738 253.518005
v -319.000000 -1.784730 258.518005
v -319.000000 8.142416 243.518005
v -279.953003 -11.612214 318.000000
v -274.950989 -11.184348 318.000000
v -269.951996 -10.670066 318.000000
v -264.951996 -10.317183 318.000000
v -249.951950 -9.095598 317.999969
v -244.951950 -7.124794 317.999969
v -254.951965 -10.038525 317.999969
v -259.951965 -10.186528 317.999969
v -319.000000 -25.166332 315.000000
v -319.000000 -26.493242 318.000000
v -314.500000 -24.013481 318.000000
v -310.575012 -21.542742 318.000000
v -319.000000 -22.248344 309.432007
v -319.000000 -18.996939 303.640015
v -319.000000 -16.307810 298.470001
v -319.000000 -14.112979 293.492004
v -319.000000 -12.320975 288.515015
v -304.924011 -17.901379 318.000000
v -299.826996 -14.995049 318.000000
v -294.920013 -12.966467 318.000000
v -289.967987 -11.899605 318.000000
v -284.963013 -11.740290 318.000000
v -319.000000 -10.931001 283.519012
v 320.700012 -0.638210 117.782005
v 320.700012 0.789597 112.782005
v 320.700012 2.511588 107.782005
v 320.700012 4.749449 102.782005
v 320.700012 6.990965 97.781700
v 320.700012 8.736119 92.781799
v 320.700012 9.664534 87.781891
v 320.700012 9.689837 82.781891
v 320.700012 -1.456914 122.782997
v 320.700012 -1.497043 127.783997
v 320.700012 -1.478095 132.783997
v 320.700012 -2.901788 137.783005
v 320.700012 -5.445380 142.781998
v 320.700012 -8.359734 147.781998
v 320.700012 -10.883810 152.781998
v 320.700012 -12.470492 157.781998
v 320.700012 -7.484595 192.781998
v 320.700012 -8.097924 187.781998
v 320.700012 -8.683242 182.781998
v 320.700012 -9.717442 177.781998
v 320.700012 -11.002485 172.781998
v 320.700012 -12.280332 167.781998
v 320.700012 -12.901700 162.781998
v -319.350006 3.241021 117.550003
v -319.350006 4.099352 122.550003
v -319.350006 3.668115 127.550003
v -319.350006 2.466308 132.550003
v -319.350006 1.605634 137.550003
v -319.350006 0.650257 142.550003
v -319.000000 0.266438 147.550003
v -319.000000 -1.799829 152.983994
v -319.350006 16.187544 77.550003
v -319.350006 16.245619 82.550003
v -319.349976 17.491064 87.550003
v -319.349976 17.630131 92.549988
v -319.349976 15.787972 97.549988
v -319.349976 10.476840 102.550003
v -319.350006 5.566532 107.550003
v -319.350006 3.165471 112.550003
v 165.205002 20.121981 -322.000000
v 170.205002 18.039532 -321.980988
v 175.205002 16.429176 -322.000000
v 180.205002 15.471935 -322.000000
v 185.205002 15.502176 -322.000000
v 190.205002 16.338108 -322.000000
v 195.205002 17.515144 -322.000000
v 220.204010 13.382683 -322.000000
v 225.205002 13.214692 -322.000000
v 215.205002 14.458360 -322.000000
v 230.214996 13.348472 -322.000000
v 235.229996 13.313433 -322.000000
v 205.205002 17.596270 -322.000000
v 200.205002 18.072077 -322.000000
v 210.205002 16.156500 -322.000000
v 265.208008 12.171412 -322.000000
v 260.213013 11.831742 -322.000000
v 255.093002 11.649439 -322.000000
v 270.205994 12.544785 -322.000000
v 240.188004 13.134364 -322.000000
v 244.987000 12.724486 -322.000000
v 249.779007 12.106028 -322.000000
v -318.006866 11.606667 -121.461823
v -318.258759 11.850734 -116.439301
v -318.951843 11.548588 -111.771370
v -318.363098 14.665174 -106.595604
v -318.410889 15.918412 -101.700851
v -319.316956 17.189825 -97.170174
v -319.500000 17.274294 -92.270599
v -319.500000 17.695280 -87.266090
v -319.500000 17.730444 -82.262901
v -319.500000 17.870356 -62.262501
v -319.500000 17.720989 -67.262604
v -319.500000 17.937338 -72.263397
v -319.500000 17.934872 -77.263199
v -319.500000 14.950336 -42.304501
v -319.500000 15.692050 -47.276199
v -319.500000 16.789711 -52.276699
v -319.500000 17.552500 -57.267700
v -319.350006 13.400000 -152.500000
v -319.350006 13.400000 -147.449997
v -319.350006 13.400000 -142.449997
v -319.350006 13.400000 -157.500000
v -319.350006 13.362662 -162.500000
v -319.350006 13.400000 -137.449997
v -318.152863 13.006423 -131.834518
v -317.950989 11.202672 -126.674942
v -319.350006 6.885871 32.549999
v -319.350006 6.936595 37.549999
v -319.350006 5.938836 22.549999
v -319.350006 6.577285 27.549999
v -319.350006 5.282522 17.549999
v -319.350006 4.335258 7.550000
v -319.350006 4.715155 12.550000
v -319.350006 4.616803 2.550000
v -319.350006 5.643613 -2.450000
v -319.350006 7.450507 -7.450000
v -319.350006 8.554222 -12.450000
v -319.500000 10.018373 -17.450001
v -319.500000 10.804968 -22.025501
v -319.500000 12.208523 -27.553001
v -319.500000 13.289057 -32.348598
v -319.500000 14.071088 -37.416698
v -319.350006 7.593768 42.549999
v -319.350006 7.809418 47.549999
v -319.350006 7.987553 52.549999
v -319.350006 8.861938 57.549999
v -319.350006 13.900000 62.549999
v -319.350006 16.875395 67.550003
v -319.350006 17.197943 72.550003
v -23.200100 0.423084 -322.450012
v -27.590998 0.500000 -322.450012
v -32.057899 0.400000 -322.450012
v -244.350006 -8.147724 -322.450012
v -249.350006 -9.197986 -322.450012
v -254.350006 -9.650395 -322.450012
v -259.350006 -9.468141 -322.450012
v -264.350006 -9.527473 -322.450012
v -269.350006 -10.340509 -322.450012
v -274.350006 -11.867723 -322.450012
v -279.350006 -14.012505 -322.450012
v 320.649994 11.725703 -197.449997
v 320.649994 11.697385 -192.449997
v 320.649994 11.242998 -187.449997
v 320.649994 11.027887 -182.449997
v 320.649994 12.666893 -177.449997
v 320.649994 13.969444 -172.449997
v 319.223999 13.303539 -167.977982
v -319.350006 -8.458317 -222.449997
v -319.350006 -9.363126 -227.449997
v -319.350006 -10.077165 -232.449997
v -319.350006 -10.546747 -237.449997
v -319.350006 -10.753537 -242.449997
v -319.350006 -2.901289 -202.449997
v -319.350006 -4.907904 -207.449997
v -319.350006 -6.375141 -212.449997
v -319.350006 -7.441853 -217.449997
v -319.194489 -9.541017 -262.373199
v -318.638306 -9.039215 -267.123230
v -318.327850 -9.310897 -271.970276
v -318.989990 -12.167170 -277.275055
v -319.350006 -16.154064 -282.450012
v -318.992584 -10.729536 -247.270920
v -79.952499 25.553980 318.000000
v -74.953003 25.866114 318.000000
v -59.988400 23.520611 318.000000
v -55.929501 21.593060 318.000000
v -69.963699 25.473949 318.000000
v -64.968803 24.557589 318.000000
v -38.137100 12.329221 318.000000
v -44.000000 15.102732 318.000000
v -49.000000 18.636541 318.000000
v -104.945999 20.319799 318.000000
v -109.945000 20.320200 318.000000
v -114.944000 20.316500 318.000000
v -99.948601 20.650679 318.000000
v -94.952003 21.691032 318.000000
v -89.954002 23.135313 318.000000
v -84.953796 24.559317 318.000000
v -34.064400 9.783148 318.000000
v -29.099199 5.688592 318.000000
v -24.355701 2.827750 318.000000
v -19.350000 0.786937 317.549988
v -318.611572 -10.443733 -252.074890
v -319.021088 -9.993841 -257.279480
v -319.350006 -30.811068 -302.450012
v -319.350006 -33.250168 -307.450012
v -319.350006 -34.642094 -312.450012
v -319.350006 -34.736671 -317.450012
v -284.350006 -16.695961 -322.450012
v -289.350006 -19.748699 -322.450012
v -294.350006 -23.246096 -322.450012
v -299.350006 -26.939587 -322.450012
v -304.350006 -30.290806 -322.450012
v -309.350006 -32.724236 -322.450012
v -314.350006 -33.910336 -322.450012
v -319.350006 -33.343185 -322.450012
v -319.350006 -20.147232 -287.450012
v -319.350006 -23.965448 -292.450012
v -319.350006 -27.611889 -297.450012
v -319.350006 7.448685 -182.449997
v -319.350006 4.866602 -187.449997
v -319.350006 2.158466 -192.449997
v -319.350006 -0.491052 -197.449997
v -319.350006 9.728626 -177.449997
v -319.350006 11.550918 -172.449997
v -319.350006 12.782221 -167.498978
v -7.425920 0.016566 -322.000000
v -9.680460 -0.244856 -322.000000
v -34.349998 0.400000 -322.450012
v -39.349998 0.400000 -322.450012
v -1.762631 1.818009 -321.874451
v -5.171380 0.700998 -322.000000
v -11.927981 -0.324314 -322.000000
v -14.175501 -0.384039 -322.000000
v -19.350000 0.396182 -322.000000
v -16.762751 0.079536 -322.000000
v 315.649994 -1.756052 -32.450001
v 315.649994 -1.457637 -27.450001
v 315.649994 -0.868758 -22.450001
v 315.649994 -0.252383 -17.450001
v 315.649994 0.629694 -12.450000
v 315.649994 1.050954 -7.450000
v -71.476730 3.685337 -321.642395
v -69.042480 3.138888 -321.825562
v -73.910980 4.962170 -321.459229
v -76.275215 5.973369 -321.181396
v -78.639442 7.527012 -320.903564
v -66.285149 2.764933 -321.374634
v -63.527821 2.243917 -320.923737
v -61.064995 1.915043 -320.991333
v -58.602173 1.251975 -321.058960
v -44.349998 0.400000 -322.450012
v -46.715832 0.335740 -322.182709
v -49.081650 0.071784 -321.915344
v -51.376114 0.181660 -321.518250
v -53.670578 0.412501 -321.121155
v -56.136372 0.899043 -321.090027
v -81.235428 9.196271 -321.137207
v -86.435379 10.986774 -321.602020
v -89.039345 11.263608 -321.833191
v -99.349998 11.534093 -322.450012
v -94.349998 11.423069 -322.450012
v -104.349998 11.741469 -322.450012
v -109.349998 11.633801 -322.450012
v -83.831413 10.161541 -321.370850
v -114.349998 12.185631 -322.450012
v 0.430101 -268.531342 -14.451250
v -319.000000 -25.166332 315.000000
v -314.500000 -24.013481 318.000000
v 0.430101 -268.531342 -14.451250
s 1
f 89 90 535
f 40 38 535
f 249 244 535
f 524 523 535
f 343 342 535
f 105 106 535
f 2 1 535
f 445 446 535
f 436 437 535
f 525 524 535
f 10 9 535
f 508 509 535
f 286 307 535
f 344 343 535
f 511 512 535
f 3 2 535
f 106 107 535
f 519 525 535
f 11 10 535
f 457 458 535
f 345 344 535
f 4 3 535
f 12 11 535
f 107 108 535
f 346 345 535
f 411 396 535
f 5 4 535
f 380 381 535
f 13 12 535
f 513 511 535
f 108 109 535
f 458 459 535
f 47 44 535
f 347 346 535
f 189 202 535
f 412 411 535
f 6 5 535
f 14 13 535
f 332 347 535
f 202 203 535
f 30 39 535
f 54 51 535
f 413 412 535
f 109 110 535
f 7 6 535
f 38 35 535
f 152 151 535
f 509 510 535
f 358 359 535
f 15 14 535
f 475 476 535
f 414 413 535
f 8 7 535
f 477 428 535
f 276 277 535
f 120 119 535
f 390 391 535
f 32 31 535
f 392 389 535
f 367 368 535
f 398 397 535
f 9 8 535
f 16 15 535
f 415 414 535
f 460 461 535
f 56 53 535
f 209 210 535
f 478 477 535
f 514 513 535
f 28 29 535
f 17 16 535
f 200 199 535
f 210 211 535
f 239 242 535
f 416 415 535
f 397 399 535
f 479 478 535
f 18 17 535
f 515 514 535
f 417 416 535
f 403 404 535
f 168 167 535
f 480 479 535
f 203 204 535
f 393 392 535
f 19 18 535
f 198 201 535
f 340 417 535
f 402 403 535
f 404 405 535
f 481 480 535
f 218 221 535
f 20 19 535
f 510 58 535
f 263 265 535
f 405 406 535
f 250 246 535
f 482 481 535
f 21 20 535
f 527 533 535
f 461 462 535
f 225 226 535
f 381 382 535
f 406 407 535
f 22 21 535
f 483 482 535
f 407 408 535
f 74 348 535
f 526 515 535
f 211 212 535
f 226 219 535
f 237 236 535
f 23 22 535
f 492 488 535
f 484 483 535
f 408 409 535
f 476 484 535
f 401 400 535
f 382 378 535
f 91 92 535
f 204 205 535
f 24 23 535
f 219 218 535
f 493 492 535
f 244 243 535
f 361 360 535
f 409 410 535
f 99 98 535
f 308 279 535
f 528 527 535
f 153 152 535
f 394 393 535
f 254 234 535
f 400 402 535
f 25 24 535
f 494 493 535
f 410 383 535
f 121 120 535
f 359 367 535
f 220 224 535
f 449 485 535
f 122 121 535
f 391 494 535
f 251 252 535
f 75 74 535
f 368 369 535
f 236 235 535
f 421 25 535
f 221 220 535
f 212 213 535
f 76 75 535
f 395 398 535
f 222 223 535
f 422 421 535
f 437 438 535
f 463 460 535
f 455 452 535
f 77 76 535
f 446 447 535
f 169 168 535
f 496 495 535
f 217 429 535
f 92 93 535
f 238 237 535
f 423 422 535
f 39 27 535
f 205 206 535
f 243 291 535
f 78 77 535
f 170 169 535
f 279 278 535
f 224 222 535
f 57 58 535
f 240 239 535
f 424 423 535
f 253 251 535
f 348 349 535
f 50 49 535
f 79 78 535
f 144 143 535
f 59 57 535
f 281 280 535
f 242 241 535
f 425 424 535
f 29 40 535
f 94 91 535
f 303 297 535
f 80 79 535
f 254 255 535
f 145 144 535
f 135 134 535
f 60 59 535
f 51 50 535
f 426 425 535
f 288 287 535
f 81 80 535
f 271 270 535
f 136 135 535
f 213 214 535
f 429 430 535
f 100 99 535
f 146 145 535
f 427 426 535
f 154 153 535
f 354 361 535
f 137 136 535
f 41 81 535
f 143 155 535
f 256 255 535
f 147 146 535
f 428 427 535
f 360 362 535
f 370 394 535
f 53 52 535
f 206 207 535
f 155 156 535
f 285 271 535
f 257 256 535
f 138 137 535
f 261 262 535
f 148 147 535
f 270 272 535
f 185 184 535
f 464 463 535
f 504 502 535
f 95 94 535
f 497 420 535
f 52 54 535
f 258 257 535
f 149 148 535
f 139 138 535
f 156 157 535
f 498 497 535
f 272 273 535
f 438 439 535
f 349 350 535
f 447 448 535
f 259 258 535
f 150 149 535
f 140 139 535
f 96 97 535
f 157 158 535
f 97 95 535
f 163 170 535
f 430 431 535
f 260 259 535
f 134 150 535
f 141 140 535
f 214 215 535
f 31 30 535
f 325 142 535
f 158 159 535
f 26 55 535
f 62 61 535
f 383 384 535
f 253 260 535
f 142 141 535
f 262 263 535
f 326 325 535
f 159 160 535
f 123 122 535
f 55 56 535
f 459 454 535
f 63 62 535
f 207 208 535
f 160 161 535
f 327 326 535
f 64 63 535
f 328 327 535
f 161 162 535
f 101 100 535
f 61 66 535
f 65 64 535
f 162 154 535
f 333 332 535
f 439 440 535
f 65 60 535
f 329 328 535
f 431 432 535
f 448 449 535
f 66 67 535
f 334 333 535
f 362 357 535
f 465 464 535
f 215 216 535
f 33 32 535
f 369 365 535
f 330 329 535
f 67 68 535
f 335 334 535
f 98 96 535
f 283 282 535
f 331 330 535
f 265 264 535
f 68 69 535
f 529 530 535
f 440 450 535
f 336 335 535
f 208 209 535
f 450 471 535
f 470 469 535
f 69 70 535
f 324 331 535
f 284 283 535
f 186 185 535
f 246 245 535
f 93 470 535
f 264 266 535
f 337 336 535
f 350 351 535
f 531 529 535
f 70 71 535
f 432 433 535
f 90 101 535
f 338 337 535
f 302 308 535
f 184 187 535
f 532 531 535
f 48 47 535
f 71 72 535
f 266 267 535
f 339 338 535
f 245 247 535
f 216 217 535
f 72 73 535
f 384 385 535
f 49 48 535
f 269 339 535
f 267 268 535
f 227 176 535
f 351 352 535
f 247 248 535
f 171 123 535
f 512 516 535
f 371 370 535
f 466 465 535
f 124 103 535
f 228 227 535
f 293 289 535
f 275 274 535
f 372 371 535
f 433 434 535
f 488 489 535
f 229 228 535
f 352 353 535
f 373 372 535
f 230 229 535
f 499 28 535
f 248 249 535
f 274 276 535
f 517 518 535
f 116 115 535
f 374 373 535
f 353 354 535
f 471 472 535
f 231 230 535
f 518 519 535
f 472 445 535
f 278 281 535
f 277 261 535
f 500 499 535
f 375 374 535
f 232 231 535
f 451 466 535
f 453 456 535
f 516 517 535
f 376 375 535
f 35 34 535
f 233 232 535
f 434 435 535
f 187 188 535
f 42 41 535
f 34 36 535
f 164 163 535
f 377 376 535
f 485 486 535
f 235 250 535
f 441 442 535
f 234 233 535
f 520 498 535
f 175 174 535
f 378 377 535
f 364 363 535
f 495 500 535
f 385 386 535
f 386 379 535
f 176 175 535
f 36 37 535
f 172 171 535
f 501 496 535
f 355 356 535
f 173 172 535
f 125 124 535
f 177 178 535
f 502 501 535
f 435 177 535
f 388 387 535
f 521 520 535
f 178 179 535
f 462 225 535
f 467 457 535
f 522 521 535
f 179 180 535
f 505 252 535
f 180 181 535
f 295 294 535
f 418 503 535
f 296 295 535
f 489 490 535
f 468 467 535
f 533 526 535
f 280 284 535
f 181 182 535
f 117 116 535
f 118 117 535
f 503 504 535
f 297 296 535
f 44 43 535
f 182 183 535
f 486 487 535
f 190 189 535
f 1 534 535
f 487 473 535
f 294 298 535
f 174 183 535
f 505 506 535
f 165 164 535
f 191 190 535
f 523 522 535
f 442 443 535
f 282 285 535
f 298 299 535
f 268 269 535
f 287 286 535
f 192 191 535
f 27 26 535
f 43 45 535
f 126 125 535
f 365 364 535
f 167 173 535
f 119 126 535
f 309 317 535
f 289 288 535
f 193 192 535
f 115 127 535
f 473 474 535
f 357 355 535
f 299 300 535
f 45 46 535
f 534 532 535
f 317 318 535
f 194 193 535
f 363 366 535
f 127 128 535
f 490 491 535
f 389 388 535
f 82 83 535
f 318 319 535
f 491 441 535
f 396 395 535
f 356 358 535
f 300 301 535
f 195 194 535
f 310 309 535
f 128 129 535
f 46 42 535
f 506 507 535
f 319 320 535
f 196 195 535
f 83 84 535
f 452 451 535
f 201 186 535
f 291 290 535
f 311 310 535
s 2
f 196 188 535
s 1
f 320 321 535
s 3
f 188 197 535
s 1
f 129 130 535
s 3
f 197 196 535
s 1
f 241 238 535
f 114 118 535
f 84 85 535
f 301 302 535
f 420 419 535
f 312 311 535
f 110 111 535
f 321 322 535
f 419 418 535
f 379 380 535
f 304 303 535
f 130 131 535
f 85 86 535
f 322 323 535
f 313 312 535
f 166 165 535
f 443 444 535
f 111 112 535
f 454 453 535
f 151 166 535
f 444 436 535
f 305 304 535
f 323 324 535
f 314 313 535
f 131 132 535
f 223 240 535
f 37 33 535
f 112 113 535
f 86 87 535
f 315 314 535
f 399 401 535
f 387 390 535
f 507 508 535
f 469 468 535
f 103 102 535
f 306 305 535
f 290 292 535
f 132 133 535
f 316 315 535
f 87 88 535
f 113 114 535
f 366 200 535
f 102 104 535
f 307 306 535
f 292 293 535
f 73 316 535
f 133 82 535
f 341 340 535
f 474 475 535
f 88 89 535
f 456 455 535
f 199 198 535
f 273 275 535
f 342 341 535
f 104 105 535
f 530 528 535
s 4
f 537 536 538
