# Blender v2.91.0 OBJ File: ''
# www.blender.org
o l03_agroprom_terrain.object.001_terrainShape.007
v -99.342995 2.267120 -386.640015
v -89.592995 1.103101 -385.390015
v -79.842995 -0.060917 -384.140015
v -67.342995 0.443850 -381.640045
v -58.592995 0.243042 -381.640045
v -49.842999 0.042233 -381.640045
v -37.342999 2.765660 -381.640015
v -21.718000 3.770160 -382.890015
v -32.967999 0.600790 -382.890015
v -29.218000 1.731560 -382.890015
v -17.968000 4.363280 -382.890015
v 55.573700 5.526220 -386.640045
v 44.393150 5.202680 -386.640015
v 33.212601 4.879140 -386.640015
v 73.907005 5.746050 -386.640015
v 64.740356 5.636135 -386.640015
v -2.863835 3.600655 -385.390015
v -11.717999 4.707530 -384.140015
v 26.407032 4.282800 -386.640015
v 19.601465 3.686460 -386.640015
v 12.795897 3.090120 -386.640015
v 5.990330 2.493780 -386.640015
v 280.157013 -10.811775 -193.693253
v 280.157013 -10.861162 -200.434387
v 280.157013 -10.910549 -207.175507
v 280.157013 -10.713000 -180.210999
v 280.157013 -10.762388 -186.952118
v 280.157013 -10.959936 -213.916626
v 280.157013 -11.009324 -220.657745
v 280.157013 -11.058712 -227.398865
v 280.157013 -11.108099 -234.139999
v 280.157013 -11.112450 -240.702515
v 280.157013 -11.116800 -247.265015
v 280.157013 -11.125501 -260.390015
v 280.157013 -11.121151 -253.827515
v 280.157013 -10.163300 -119.497002
v 280.157013 -10.129049 -128.157745
v 280.157013 -10.403150 -110.068497
v 280.157013 -10.643000 -100.639999
v 280.157013 -10.885850 -93.639999
v 280.157013 -11.128700 -86.639999
v 280.157013 -10.945500 -38.862202
v 280.157013 -10.917274 -45.494148
v 280.157013 -10.694238 -30.854725
v 280.157013 -10.442975 -22.847246
v 280.157013 -9.831594 7.278282
v 280.157013 -9.777167 14.333569
v 280.157013 -9.886023 0.222996
v 280.157013 -9.940450 -6.832291
v 280.157013 -10.191712 -14.839768
v 280.157013 -10.980650 -76.014999
v 280.157013 -10.832600 -65.389999
v 280.157013 -10.889050 -52.126099
v 280.157013 -10.860825 -58.758049
v -351.543976 -4.742020 77.271004
v -355.304993 -4.403050 71.377296
v -359.843018 4.658695 -25.854244
v -359.843018 4.558747 -15.997117
v -359.843018 4.458800 -6.139990
v -359.843018 2.809300 7.047505
v -359.843018 3.634050 0.453758
v -359.843018 1.984550 13.641253
v -359.843018 1.159800 20.235001
v -359.843018 -0.784552 27.578751
v -359.843018 -6.617610 49.610001
v -359.843018 -4.673257 42.266251
v -359.843018 -2.728905 34.922501
v 280.157013 -9.722740 21.388855
v 280.157013 -9.668312 28.444141
v 280.157013 -9.613885 35.499428
v 280.157013 -9.505030 49.610001
v 280.157013 -9.559458 42.554714
v 280.157013 -9.677572 56.866928
v 280.157013 -9.850115 64.123856
v 280.157013 -10.022657 71.380783
v 280.157013 -10.195200 78.637703
v 280.157013 -10.305975 86.458778
v 280.157013 -10.416750 94.279854
v -357.574005 -5.510330 60.493649
v -124.009491 7.906040 -386.640015
v -133.175995 8.909150 -386.640045
v -114.842995 6.902930 -386.640015
v -107.092995 4.585025 -386.640015
v -189.425995 12.509500 -386.640015
v -157.759995 9.475050 -386.640045
v -165.676483 10.233663 -386.640015
v -173.592987 10.992275 -386.640015
v -181.509491 11.750887 -386.640015
v -202.134491 13.190350 -386.640015
v -359.843018 -1.520338 -227.473480
v -359.843018 -3.574249 -220.528992
v -359.843018 0.533572 -234.417984
v -359.843018 1.183491 -244.113983
v -359.843018 2.483330 -263.505981
v -359.843018 1.833411 -253.809998
v -359.843018 -7.096845 -194.139999
v -359.843018 -6.511620 -181.639999
v -359.843018 -7.682070 -206.639999
v -359.843018 -5.628160 -213.584503
v -359.843018 -0.202189 -146.639999
v -359.843018 -1.779547 -155.389999
v -359.843018 -3.356905 -164.139999
v -359.843018 -4.934262 -172.889999
v -359.843018 3.133250 -273.201996
v -359.843018 2.977535 -285.858521
v -359.843018 2.821820 -298.515015
v -359.843018 3.974960 -310.494019
v -359.843018 5.128099 -322.473022
v -359.843018 5.670080 -337.681519
v -359.843018 5.399090 -330.077271
v -353.593018 3.832720 -386.640015
v -345.051514 5.143650 -386.640015
v -336.510040 6.454580 -386.640015
v -324.218262 6.466906 -386.640015
v -311.926514 6.479230 -386.640015
v -359.843018 5.941070 -345.285767
v -359.843018 6.212060 -352.890015
v -359.843018 5.558080 -364.765015
v -359.843018 4.904100 -376.640015
v -359.843018 -5.670740 -386.640015
v -359.843018 -0.383320 -381.640015
v -214.843002 13.871200 -386.640015
v -227.968002 13.121099 -386.640015
v -234.530502 12.746050 -386.640015
v -241.093002 12.370999 -386.640015
v -221.405502 13.496149 -386.640015
v -252.092987 10.868400 -386.640015
v -263.092987 9.365800 -386.640045
v -275.217987 7.934840 -386.640015
v -287.342987 6.503881 -386.640015
v -299.634766 6.491555 -386.640015
v -359.843018 4.758642 -35.711372
v -359.843018 4.858590 -45.568501
v -359.843018 2.004922 -69.809624
v -359.843018 2.956145 -61.729248
v -359.843018 3.907367 -53.648872
v -359.843018 1.053700 -77.889999
v -359.843018 0.776852 -85.389999
v -359.843018 1.854802 -100.389999
v -359.843018 3.209600 -107.889999
v -359.843018 0.500003 -92.889999
v -359.843018 1.427106 -135.389999
v -359.843018 3.056400 -124.139999
v -359.843018 3.133000 -116.014999
v -349.843018 -0.827530 83.360001
v -349.843018 -1.257220 85.860001
v -349.843018 -0.800675 88.360001
v -349.843018 -0.012087 90.860001
v 101.407005 7.860651 -386.640015
v 94.532005 8.049555 -386.640015
v 108.282005 8.747351 -386.640015
v 115.157005 9.634050 -386.640015
v 80.782005 6.992255 -386.640015
v 87.657005 8.238460 -386.640015
v 125.157005 10.692700 -386.640015
v 137.969498 9.276865 -386.640015
v 131.563248 9.984783 -386.640015
v 144.375748 8.568948 -386.640015
v 150.781998 7.861030 -386.640015
v 158.646500 7.012762 -386.640015
v 280.157013 -12.130200 -386.640045
v 280.157013 -10.795901 -379.140015
v 280.157013 -10.142391 -368.231018
v 273.157013 -4.572741 -386.640015
v 266.157013 2.984720 -386.640015
v 280.157013 -9.489175 -341.981018
v 280.157013 -9.489027 -349.651489
v 280.157013 -9.488880 -357.321991
v 256.889252 3.534387 -386.640015
v 247.621506 4.084055 -386.640015
v 238.353760 4.633722 -386.640015
v 280.157013 -9.489470 -326.640015
v 280.157013 -9.489323 -334.310516
v 280.157013 -10.382368 -304.890015
v 280.157013 -10.084735 -312.140015
v 280.157013 -9.787102 -319.390015
v 280.157013 -10.680000 -297.640015
v 280.157013 -10.791375 -288.327515
v 280.157013 -10.902750 -279.015015
v 280.157013 -11.014126 -269.702515
v 217.656998 3.476730 -386.640015
v 211.824005 2.954260 -386.640015
v 229.085999 5.183390 -386.640015
v 198.906998 2.934730 -386.640015
v 205.365509 2.944495 -386.640015
v 182.240005 4.467959 -386.640045
v 190.573502 3.701345 -386.640015
v 166.511002 6.164495 -386.640015
v 174.375504 5.316227 -386.640015
v -329.426514 -10.802450 253.360001
v -317.968262 -10.775576 253.360001
v -359.843018 -8.612980 249.610001
v -359.843018 -12.165000 253.360001
v -352.343018 -10.856200 253.360001
v -340.884766 -10.829325 253.360001
v -359.843018 -2.117110 243.985001
v -359.843018 4.378760 238.360001
v -359.843018 5.266730 216.422501
v -359.843018 4.970740 223.735001
v -359.843018 5.562720 209.110001
v -359.843018 4.674750 231.047501
v -359.843018 3.051680 158.360001
v -359.843018 4.899180 169.110001
v -359.843018 2.048825 151.485001
v -359.843018 1.045970 144.610001
v -357.343018 3.416625 137.735001
v -354.843018 5.003250 128.360001
v -359.843018 6.746680 179.860001
v -359.843018 6.450690 187.172501
v -359.843018 6.154700 194.485001
v -359.843018 5.858710 201.797501
v -354.843018 1.918480 120.860001
v -349.843018 0.448735 93.360001
v -349.843018 0.239382 100.860001
v -349.843018 0.149048 103.360001
v -349.843018 0.625739 95.860001
v -352.343018 0.756356 108.360001
v -353.593018 1.337418 114.610001
v -349.843018 0.737436 105.860001
v -349.843018 0.484137 98.360001
v 280.157013 -10.094800 -136.818497
v 280.157013 -10.060551 -145.479248
v 280.157013 -10.369650 -167.175507
v 280.157013 -10.541325 -173.693253
v 280.157013 -10.026300 -154.139999
v 280.157013 -10.197975 -160.657745
v -283.904999 -10.638300 253.360001
v -295.207520 -10.693501 253.360001
v -276.570007 -10.858900 253.360001
v -306.510010 -10.748700 253.360001
v -241.579010 -10.857651 253.360001
v -235.085999 -10.526126 253.360001
v -248.072006 -11.189176 253.360001
v -254.565002 -11.520700 253.360001
v -261.899994 -11.300100 253.360001
v -269.234985 -11.079500 253.360001
v -170.468002 -9.789680 253.360001
v -177.733627 -9.840296 253.360001
v -157.933502 -10.322090 253.360016
v -199.530502 -9.992141 253.360001
v -184.999252 -9.890911 253.360001
v -192.264877 -9.941526 253.360001
v -206.796127 -10.042755 253.360001
v -214.061752 -10.093370 253.360001
v -221.327377 -10.143986 253.360001
v -228.593002 -10.194601 253.360001
v -136.197510 -10.737200 253.360016
v -126.996002 -10.619900 253.360016
v -145.399002 -10.854500 253.360016
v -117.794495 -10.502600 253.360016
v -58.717976 -10.001028 253.360001
v -52.238815 -9.979792 253.360001
v -45.759651 -9.958555 253.360001
v -39.280487 -9.937319 253.360001
v -71.676300 -10.043500 253.360001
v -80.905472 -10.128950 253.360001
v -65.197136 -10.022264 253.360001
v -99.363815 -10.299850 253.360001
v -90.134644 -10.214400 253.360001
v -108.592995 -10.385301 253.360001
v 238.014267 -10.367575 253.360016
v 246.228516 -10.664650 253.360016
v 254.442764 -10.961725 253.360016
v 262.657013 -11.258801 253.360016
v 271.407013 -11.825701 253.360016
v 280.157013 -12.392600 253.360001
v 280.157013 -11.641400 243.360001
v 280.157013 -10.344186 209.610001
v 280.157013 -10.744701 217.110001
v 280.157013 -10.799000 227.110001
v 280.157013 -11.220200 235.235001
v 280.157013 -10.452685 174.297501
v 280.157013 -10.325432 181.250626
v 280.157013 -10.198177 188.203751
v 280.157013 -9.943670 202.110001
v 280.157013 -10.070924 195.156876
v 169.251007 -10.733950 253.360001
v 156.423004 -10.836975 253.360001
v 162.837006 -10.785462 253.360001
v 175.665009 -10.682438 253.360001
v 194.906998 -10.527901 253.360001
v 188.493011 -10.579412 253.360001
v 182.079010 -10.630925 253.360001
v 203.630249 -10.413550 253.360001
v 212.353516 -10.299200 253.360001
v 221.076767 -10.184851 253.360001
v 229.800018 -10.070500 253.360001
v 280.157013 -10.579939 167.344376
v 280.157013 -10.707193 160.391251
v 280.157013 -10.834447 153.438126
v 280.157013 -10.880850 137.344254
v 280.157013 -10.800000 128.203506
v 280.157013 -10.961700 146.485001
v 280.157013 -10.719151 119.062759
v 280.157013 -10.638300 109.922005
v 280.157013 -10.527525 102.100929
v -32.801327 -9.916082 253.360001
v -26.322163 -9.894846 253.360001
v -19.843000 -9.873610 253.360001
v -8.950140 -9.998355 253.360001
v 1.942720 -10.123100 253.360001
v 14.458961 -10.162850 253.360001
v 41.066101 -10.120151 253.360001
v 26.975201 -10.202600 253.360001
v 34.020653 -10.161375 253.360001
v 48.111549 -10.078926 253.360001
v 55.157001 -10.037701 253.360001
v 70.657005 -10.305651 253.360001
v 62.907005 -10.171676 253.360001
v 78.407005 -10.439625 253.360001
v 86.157005 -10.573600 253.360001
v 95.657005 -10.481100 253.360001
v 105.157005 -10.388601 253.360001
v 114.115509 -10.705301 253.360001
v 123.074005 -11.022000 253.360001
v 143.595001 -10.940000 253.360001
v 133.334503 -10.981000 253.360001
v 150.009003 -10.888487 253.360001
v -145.467987 9.192101 -386.640045
v -34.800034 -342.924255 -56.639324
s 1
f 34 35 320
f 35 33 320
f 216 220 320
f 71 73 320
f 237 238 320
f 143 142 320
f 89 84 320
f 58 57 320
f 93 95 320
f 265 264 320
f 214 220 320
f 270 271 320
f 251 257 320
f 140 144 320
f 65 66 320
f 266 265 320
f 271 267 320
f 257 255 320
f 66 67 320
f 95 94 320
f 19 14 320
f 144 143 320
f 154 150 320
f 59 58 320
f 105 106 320
f 160 188 320
f 180 34 320
f 261 287 320
f 267 266 320
f 73 74 320
f 48 46 320
f 240 243 320
f 172 176 320
f 188 189 320
f 67 64 320
f 38 39 320
f 97 96 320
f 49 48 320
f 21 20 320
f 176 175 320
f 239 237 320
f 189 186 320
f 111 112 320
f 74 75 320
f 243 244 320
f 161 162 320
f 70 72 320
f 112 113 320
f 20 19 320
f 7 9 320
f 272 273 320
f 184 185 320
f 234 235 320
f 179 180 320
f 45 50 320
f 273 274 320
f 185 182 320
f 50 49 320
f 142 100 320
f 235 236 320
f 232 231 320
f 159 160 320
f 212 207 320
f 9 10 320
f 305 304 320
f 162 163 320
f 231 233 320
f 303 305 320
f 78 296 320
f 230 191 320
f 304 302 320
f 10 8 320
f 313 312 320
f 236 229 320
f 233 234 320
f 86 85 320
f 206 205 320
f 199 198 320
f 8 11 320
f 81 80 320
f 165 164 320
f 292 291 320
f 75 76 320
f 198 200 320
f 314 313 320
f 207 206 320
f 164 161 320
f 259 258 320
f 248 247 320
f 80 82 320
f 315 314 320
f 247 249 320
f 39 40 320
f 98 99 320
f 268 269 320
f 5 6 320
f 302 301 320
f 146 145 320
f 83 1 320
f 7 6 320
f 40 41 320
f 87 86 320
f 99 91 320
f 291 293 320
f 82 83 320
f 201 199 320
f 147 146 320
f 269 270 320
f 79 65 320
f 250 248 320
f 197 201 320
f 135 134 320
f 148 147 320
f 295 294 320
f 279 278 320
f 316 317 320
f 169 165 320
f 277 279 320
f 156 158 320
f 191 190 320
f 133 136 320
f 22 21 320
f 37 36 320
f 280 277 320
f 26 224 320
f 158 159 320
f 131 130 320
f 152 155 320
f 224 223 320
f 244 245 320
f 171 170 320
f 150 149 320
f 208 203 320
f 136 135 320
f 256 259 320
f 296 295 320
f 193 192 320
f 245 246 320
f 57 132 320
f 60 61 320
f 194 193 320
f 249 239 320
f 41 51 320
f 209 208 320
f 170 169 320
f 132 133 320
f 157 156 320
f 297 254 320
f 293 290 320
f 306 303 320
f 210 209 320
f 124 123 320
f 213 148 320
f 182 181 320
f 155 157 320
f 17 18 320
f 308 309 320
f 307 306 320
f 125 124 320
f 309 307 320
f 211 210 320
f 246 232 320
f 301 300 320
f 310 308 320
f 149 151 320
f 195 194 320
f 294 292 320
f 128 127 320
f 190 195 320
f 1 2 320
f 151 152 320
f 129 128 320
f 27 26 320
f 215 214 320
f 228 230 320
f 62 60 320
f 36 38 320
f 227 228 320
f 106 107 320
f 96 98 320
f 2 3 320
f 61 59 320
f 229 227 320
f 216 213 320
f 167 166 320
f 28 25 320
f 127 125 320
f 113 114 320
f 11 18 320
f 126 122 320
f 275 268 320
f 200 211 320
f 168 167 320
f 29 28 320
f 15 153 320
f 192 196 320
f 114 115 320
f 76 77 320
f 123 126 320
f 222 221 320
f 100 101 320
f 258 260 320
f 153 154 320
f 196 197 320
f 300 299 320
f 264 263 320
f 109 116 320
f 311 310 320
f 23 27 320
f 318 316 320
f 101 102 320
f 260 250 320
f 116 117 320
f 278 318 320
f 221 37 320
f 163 168 320
f 47 68 320
f 3 4 320
f 122 89 320
f 30 29 320
f 77 78 320
f 88 87 320
f 31 30 320
f 43 42 320
f 84 88 320
f 274 276 320
f 102 103 320
f 68 69 320
f 56 79 320
f 117 118 320
f 94 104 320
f 281 282 320
f 276 275 320
f 17 22 320
f 69 70 320
f 103 97 320
f 319 81 320
f 24 23 320
f 282 283 320
f 118 119 320
f 13 12 320
f 252 251 320
f 104 105 320
f 283 280 320
f 42 44 320
f 203 202 320
f 120 111 320
f 4 5 320
f 217 218 320
f 91 90 320
f 181 183 320
f 107 108 320
f 253 252 320
f 115 131 320
f 32 31 320
f 44 45 320
f 202 204 320
f 121 120 320
f 262 261 320
f 218 212 320
f 55 56 320
f 52 54 320
f 12 16 320
f 33 32 320
f 134 137 320
f 254 253 320
f 204 205 320
f 119 121 320
f 16 15 320
f 25 24 320
f 174 177 320
f 183 171 320
f 317 315 320
f 51 52 320
f 55 145 320
f 110 109 320
f 139 140 320
f 312 311 320
f 263 262 320
f 90 92 320
f 285 284 320
f 63 62 320
f 108 110 320
f 141 139 320
f 186 187 320
f 54 53 320
f 137 138 320
f 187 184 320
f 288 272 320
f 241 242 320
f 286 285 320
f 242 240 320
f 289 288 320
f 238 241 320
f 85 319 320
f 166 173 320
f 287 286 320
f 284 281 320
f 173 172 320
f 177 178 320
f 219 217 320
f 92 93 320
f 64 63 320
f 53 43 320
f 175 174 320
f 178 179 320
f 215 219 320
f 290 289 320
f 46 47 320
f 255 256 320
f 226 225 320
f 14 13 320
f 298 297 320
f 223 226 320
f 72 71 320
f 299 298 320
f 225 222 320
f 138 141 320
f 130 129 320
