# Blender v2.91.0 OBJ File: ''
# www.blender.org
o l05_bar_terrain.object.001_terrainShape.012
v -512.000000 0.000059 512.000000
v -502.625000 0.000686 -512.000000
v 2.152382 -350.439270 -6.225347
v 512.000000 -0.000110 -512.000000
v 512.000000 33.461319 112.773994
v 512.000000 33.972218 122.773994
v 512.000000 -0.000897 -464.904999
v 512.000000 -0.000896 -457.404999
v -153.673492 -10.465117 512.007996
v -162.763748 -10.465117 512.007996
v -116.491547 -10.465117 512.007996
v -125.992271 -10.465117 512.007996
v -89.113823 -10.465117 512.007996
v -97.490097 -10.465117 512.007996
v -171.854004 -10.465117 512.007996
v 512.000000 16.959799 -7.226143
v 512.000000 18.338200 2.773857
v -469.812500 0.000059 512.001221
v -478.250000 0.000059 512.000977
v 512.000000 -0.000015 -208.176987
v 512.000000 -0.000020 -201.150238
v 512.000000 15.703097 -17.226103
v 512.000000 30.938740 252.774002
v 512.000000 31.061842 262.773987
v 512.000000 -0.000894 -449.904999
v 512.000000 -0.000506 -503.452515
v 512.000000 -0.000902 -494.904999
v -461.375000 0.000059 512.001465
v 391.654999 26.919785 512.000000
v 381.828003 25.702085 512.000000
v 512.000000 -0.000887 -404.904999
v 512.000000 -0.000886 -397.404999
v -72.099792 0.009112 -512.000000
v -65.466301 0.000302 -512.000000
v 512.000000 -0.000885 -389.904999
v 150.351990 8.341005 512.007996
v 144.177994 5.876313 512.007996
v -78.733292 0.017922 -512.000000
v 156.525986 10.805697 512.007996
v 512.000000 13.780083 -107.225998
v 512.000000 15.117084 -97.226097
v -85.366791 0.026731 -512.000000
v 512.000000 -0.000883 -382.404999
v 113.098000 -2.414837 512.007996
v 103.366104 -2.867859 512.007996
v 209.319748 -0.000110 -512.000000
v 216.988495 -0.000110 -512.000000
v -92.000290 0.035541 -512.000000
v 201.651001 -0.000110 -512.000000
v -106.990822 -10.465117 512.007996
v 512.000000 14.383586 -87.226097
v -99.500145 0.238882 -512.000000
v 136.407990 3.803525 512.007996
v 128.638000 1.730738 512.007996
v 93.634201 -3.320882 512.007996
v 445.342957 28.251434 512.000000
v 437.842957 27.690985 512.000000
v 512.000000 12.804587 -77.226097
v 512.000000 10.997190 -67.226097
v 272.842987 23.365885 512.000000
v 265.342987 23.520035 512.000000
v -107.000000 0.442222 -512.000000
v -159.500000 1.201791 -512.000000
v -152.000000 1.373377 -512.000000
v 512.000000 26.037607 42.773899
v 512.000000 28.594408 52.773899
v -167.000000 1.030204 -512.000000
v 430.342957 27.314684 512.015015
v 280.342987 24.039185 512.000000
v 341.992004 9.252393 512.000000
v 340.453003 9.080753 512.000000
v 372.001007 24.484386 512.000000
v 44.142502 -9.497137 512.007996
v 36.070229 -9.739133 512.007996
v -80.737549 -10.465117 512.007996
v 370.325989 21.535583 512.000000
v 95.619858 0.590079 -512.000000
v 103.239998 0.403127 -512.000000
v 87.999710 0.777030 -512.000000
v 512.000000 30.408869 412.256989
v 512.000000 30.408871 422.082031
v 512.000000 -0.000761 -277.404999
v 512.000000 -0.000655 -269.904999
v 512.000000 30.408873 431.907043
v 368.830963 18.675781 512.000000
v 512.000000 -0.000867 -284.904999
v 320.199005 17.539185 512.000000
v 320.062988 19.375181 512.000000
v 83.902298 -3.773904 512.007996
v 334.278503 11.386318 512.000000
v -284.187500 0.000059 512.006714
v -292.625000 0.000059 512.006470
v 512.000000 23.944805 32.773895
v 512.000000 30.952009 62.773899
v 328.103973 13.691883 512.000000
v 512.000000 11.653490 -57.226097
v -72.361275 -10.465117 512.007996
v -58.534302 0.000302 -512.000000
v -51.900803 0.590646 -512.000000
v 194.697998 0.057540 -512.000244
v -45.267303 1.180989 -512.000000
v 287.842987 24.712484 512.000000
v -242.000000 0.000059 512.007996
v -250.437500 0.000059 512.007690
v 187.744995 0.115190 -512.000488
v 422.842957 26.938383 512.030029
v 414.646973 26.938383 512.030029
v -38.633804 1.771333 -512.000000
v -17.000299 3.679636 -512.000000
v -9.500315 3.106406 -512.000000
v -32.000301 2.361676 -512.000000
v -2.000330 2.533177 -512.000000
v 118.488991 0.404027 -512.000977
v 125.403992 0.287644 -512.000977
v 512.000000 30.408867 396.177002
v 512.000000 30.408869 404.216980
v 74.170403 -4.226926 512.007996
v 66.663429 -5.544478 512.007996
v -118.250000 0.675011 -512.000000
v 110.864494 0.403577 -512.000488
v -129.500000 0.907800 -512.000000
v -144.583252 -10.465117 512.007996
v -301.062500 0.000059 512.006226
v 512.000000 13.007692 -47.226101
v 512.000000 14.969395 -37.222904
v 59.156452 -6.862031 512.007996
v 51.649475 -8.179585 512.007996
v 391.846008 26.938383 512.030029
v -135.492996 -10.465117 512.007996
v -419.187500 0.000059 512.002808
v -427.625000 0.000059 512.002563
v 512.000000 30.408865 382.773987
v 512.000000 30.408865 389.475494
v -309.500000 0.000059 512.005981
v 512.000000 34.797626 152.774002
v 512.000000 35.696827 162.774002
v -410.750000 0.000059 512.003052
v -351.687500 0.000059 512.004761
v -360.125000 0.000059 512.004517
v 504.921478 30.386383 512.000000
v 497.842957 30.363882 512.000000
v 512.000000 -0.000549 -262.404999
v 512.000000 -0.000443 -254.904999
v 406.450989 26.938383 512.030029
v 399.148499 26.938383 512.030029
v -234.500000 -1.608255 512.007996
v -368.562500 0.000059 512.004272
v -377.000000 0.000059 512.004028
v -317.937500 0.000059 512.005737
v 512.000000 -0.000024 -194.123505
v 512.000000 -0.000027 -187.096756
v -326.375000 0.000059 512.005493
v -58.734299 -0.000083 -512.000000
v -334.812500 0.000059 512.005249
v 490.342957 30.363983 512.000000
v 482.842957 30.364086 512.000000
v 512.000000 31.770351 312.773987
v 512.000000 31.209854 322.773987
v 512.000000 -0.000891 -427.404999
v 512.000000 -0.000889 -419.904999
v -65.266296 -0.000083 -512.000000
v -62.000301 -0.000083 -512.000000
v 512.000000 -0.000892 -434.904999
v -24.500301 3.020657 -512.000000
v 475.342957 30.362686 512.000000
v 190.600739 18.807007 512.002014
v 183.358490 17.783033 512.004028
v 512.000000 30.408886 512.000000
v -212.000000 -6.433197 512.007996
v -219.500000 -4.824883 512.007996
v -343.250000 0.000059 512.005005
v 512.000000 32.003731 192.774002
v 512.000000 30.989733 202.774002
v 512.000000 5.132833 -133.761002
v 512.000000 8.465439 -126.953011
v 176.116241 16.759058 512.005981
v 512.000000 34.003632 182.774002
v 512.000000 32.061050 302.773987
v 512.000000 30.408882 489.457001
v 512.000000 30.408884 500.728516
v 168.873978 15.735083 512.007996
v -195.855499 -10.465117 512.007996
v -203.856003 -10.465117 512.007996
v -63.985001 -10.465117 512.007996
v -187.855011 -10.465117 512.007996
v 512.000000 1.800227 -140.569000
v 467.842957 30.361284 512.000000
v 512.000000 31.348637 222.774002
v 512.000000 30.974337 232.774002
v 162.699982 13.270391 512.007996
v -227.000000 -3.216568 512.007996
v 512.000000 35.452427 172.774002
v 132.319000 0.171260 -512.000977
v 512.000000 32.434513 72.773895
v 512.000000 -0.000893 -442.404999
v -436.062500 0.000059 512.002319
v -444.500000 0.000059 512.002014
v 512.000000 30.817053 332.773987
v 319.813995 21.453281 512.000000
v 512.000000 -0.000876 -337.404999
v 512.000000 -0.000875 -329.904999
v 19.925674 -10.223123 512.007996
v 11.853399 -10.465117 512.007996
v 512.000000 -0.000877 -344.904999
v 512.000000 31.483635 212.774002
v -275.750000 0.000059 512.006958
v 512.000000 33.161316 82.773895
v 512.000000 33.473717 92.773895
v 42.999699 0.000686 -512.000000
v 50.499649 0.000686 -512.000000
v -174.500000 0.858618 -512.000000
v 57.999599 0.000686 -512.000000
v 512.000000 30.408880 479.224487
v 27.997952 -9.981128 512.007996
v 512.000000 30.408878 468.992004
v 512.000000 -0.000900 -487.404999
v 512.000000 -0.000899 -479.904999
v 512.000000 30.783758 352.773987
v 512.000000 30.705858 362.773987
v 512.000000 -0.000871 -307.404999
v 512.000000 -0.000870 -299.904999
v 227.843002 22.996883 512.000000
v 220.343002 22.205408 512.000000
v 368.170013 15.653483 512.000000
v -53.803123 -10.465117 512.007996
v 512.000000 -0.000872 -314.904999
v 212.843002 21.413933 512.000000
v 3.075675 -10.465117 512.007996
v 512.000000 -0.000874 -322.404999
v 368.631012 13.493483 512.000000
v 512.000000 20.414803 12.773897
v 512.000000 22.240805 22.773895
v 153.074493 0.383115 -512.000977
v 159.996002 0.535725 -512.000977
v 146.153000 0.230505 -512.000977
v 512.000000 30.946939 242.774002
v 460.342957 29.586584 512.000000
v 512.000000 30.867243 272.773987
v 512.000000 31.930746 282.773987
v 512.000000 30.408875 449.001007
v 512.000000 30.408876 458.996521
v 512.000000 33.895023 132.774002
v 358.359009 10.650983 512.000000
v 512.000000 30.431955 342.773987
v 350.181030 9.099702 512.000000
v 512.000000 34.608723 142.774002
v 512.000000 -0.000869 -292.404999
v 351.712006 8.870763 512.000000
v 452.842957 28.811884 512.000000
v 512.000000 -0.000040 -167.922501
v 512.000000 -0.000050 -155.774994
v 317.253998 24.355785 512.000000
v 315.143005 26.216784 512.000000
v -43.621250 -10.465117 512.007996
v 512.000000 0.900089 -148.171997
v 310.243011 26.863785 512.000000
v 512.000000 32.406551 292.773987
v -14.479774 -10.465117 512.007996
v -23.257500 -10.465117 512.007996
v -258.875000 0.000059 512.007446
v 65.499649 0.138509 -512.000000
v 27.999701 0.000686 -512.000000
v 35.499699 0.000686 -512.000000
v -267.312500 0.000059 512.007202
v 512.000000 30.581060 372.773987
v 72.999702 0.276331 -512.000000
v -5.702050 -10.465117 512.007996
v 512.000000 -0.000031 -180.070007
v 512.000000 -0.000898 -472.404999
v 257.842987 23.674185 512.000000
v 250.342987 23.504860 512.000000
v 512.000000 -0.000124 -232.699005
v 512.000000 -0.000018 -225.296997
v 120.867996 -0.342050 512.007996
v -33.439377 -10.465117 512.007996
v 512.000000 -0.000230 -240.100998
v 139.235992 0.200883 -512.000977
v 512.000000 -0.000888 -412.404999
v 512.000000 -0.000336 -247.502991
v -486.687500 0.000059 512.000732
v 302.842987 26.737083 512.000000
v 512.000000 33.475815 102.773994
v 205.343002 20.622458 512.000000
v 197.843002 19.830982 512.000000
v -495.125000 0.000059 512.000488
v 166.917511 0.383108 -512.000977
v -402.312500 0.000059 512.003296
v 173.839005 0.230491 -512.000977
v 20.499701 0.178074 -512.000000
v 512.000000 -0.000878 -352.404999
v 12.999700 0.355462 -512.000000
v -452.937500 0.000059 512.001709
v 512.000000 -0.000880 -359.904999
v 295.342987 25.724785 512.000000
v 512.000000 15.505995 -27.222902
v 512.000000 -0.000881 -367.404999
v 512.000000 -0.000882 -374.904999
v 80.499710 0.526680 -512.000000
v 235.342987 23.166208 512.000000
v 512.000000 11.074280 -117.225998
v 512.000000 30.408875 440.454041
v 242.842987 23.335533 512.000000
v -179.854507 -10.465117 512.007996
v -503.562500 0.000059 512.000244
v -393.875000 0.000059 512.003540
v -140.750000 1.140588 -512.000000
v -385.437500 0.000059 512.003784
v 512.000000 -0.000016 -216.737000
v 180.791992 0.172841 -512.000732
v 5.499685 1.444319 -512.000000
s 1
f 1 2 3
f 5 6 3
f 7 8 3
f 9 10 3
f 11 12 3
f 13 14 3
f 10 15 3
f 16 17 3
f 18 19 3
f 20 21 3
f 22 16 3
f 23 24 3
f 8 25 3
f 26 27 3
f 28 18 3
f 29 30 3
f 31 32 3
f 4 26 3
f 33 34 3
f 32 35 3
f 36 37 3
f 38 33 3
f 39 36 3
f 40 41 3
f 42 38 3
f 35 43 3
f 44 45 3
f 46 47 3
f 48 42 3
f 49 46 3
f 50 11 3
f 41 51 3
f 52 48 3
f 53 54 3
f 14 50 3
f 45 55 3
f 56 57 3
f 37 53 3
f 58 59 3
f 60 61 3
f 62 52 3
f 51 58 3
f 63 64 3
f 65 66 3
f 67 63 3
f 57 68 3
f 69 60 3
f 70 71 3
f 30 72 3
f 73 74 3
f 75 13 3
f 72 76 3
f 77 78 3
f 79 77 3
f 80 81 3
f 82 83 3
f 81 84 3
f 76 85 3
f 86 82 3
f 87 88 3
f 55 89 3
f 71 90 3
f 91 92 3
f 93 65 3
f 66 94 3
f 90 95 3
f 95 87 3
f 59 96 3
f 97 75 3
f 98 99 3
f 100 49 3
f 99 101 3
f 102 69 3
f 103 104 3
f 105 100 3
f 106 107 3
f 101 108 3
f 109 110 3
f 108 111 3
f 110 112 3
f 113 114 3
f 115 116 3
f 116 80 3
f 117 118 3
f 119 62 3
f 78 120 3
f 121 119 3
f 122 9 3
f 92 123 3
f 124 125 3
f 118 126 3
f 120 113 3
f 126 127 3
f 96 124 3
f 128 29 3
f 129 122 3
f 130 131 3
f 132 133 3
f 123 134 3
f 135 136 3
f 127 73 3
f 133 115 3
f 137 130 3
f 89 117 3
f 138 139 3
f 140 141 3
f 142 143 3
f 144 145 3
f 12 129 3
f 146 103 3
f 83 142 3
f 147 148 3
f 145 128 3
f 134 149 3
f 150 151 3
f 149 152 3
f 153 98 3
f 152 154 3
f 155 156 3
f 107 144 3
f 157 158 3
f 159 160 3
f 139 147 3
f 161 162 3
f 163 159 3
f 141 155 3
f 164 109 3
f 156 165 3
f 111 164 3
f 68 106 3
f 166 167 3
f 168 140 3
f 169 170 3
f 154 171 3
f 172 173 3
f 174 175 3
f 34 161 3
f 167 176 3
f 177 172 3
f 178 157 3
f 179 180 3
f 171 138 3
f 176 181 3
f 182 183 3
f 184 97 3
f 185 182 3
f 186 174 3
f 165 187 3
f 162 153 3
f 188 189 3
f 181 190 3
f 191 146 3
f 190 39 3
f 136 192 3
f 114 193 3
f 94 194 3
f 192 177 3
f 195 163 3
f 131 196 3
f 25 195 3
f 196 197 3
f 158 198 3
f 88 199 3
f 200 201 3
f 202 203 3
f 180 168 3
f 204 200 3
f 173 205 3
f 206 91 3
f 207 208 3
f 209 210 3
f 205 188 3
f 2 211 3
f 210 212 3
f 213 179 3
f 194 207 3
f 214 202 3
f 211 67 3
f 215 213 3
f 216 217 3
f 183 169 3
f 218 219 3
f 27 216 3
f 47 4 3
f 220 221 3
f 222 223 3
f 85 224 3
f 225 184 3
f 226 220 3
f 223 227 3
f 203 228 3
f 201 229 3
f 224 230 3
f 231 232 3
f 233 234 3
f 229 226 3
f 235 233 3
f 189 236 3
f 187 237 3
f 238 239 3
f 240 241 3
f 6 242 3
f 230 243 3
f 198 244 3
f 241 215 3
f 245 70 3
f 244 218 3
f 242 246 3
f 247 86 3
f 243 248 3
f 237 249 3
f 221 247 3
f 250 251 3
f 199 252 3
f 252 253 3
f 254 225 3
f 232 93 3
f 255 186 3
f 17 231 3
f 253 256 3
f 257 178 3
f 251 255 3
f 258 259 3
f 104 260 3
f 239 257 3
f 212 261 3
f 236 23 3
f 262 263 3
f 248 245 3
f 264 206 3
f 263 209 3
f 219 265 3
f 261 266 3
f 267 258 3
f 268 250 3
f 269 7 3
f 270 271 3
f 217 269 3
f 272 273 3
f 151 268 3
f 54 274 3
f 259 275 3
f 276 272 3
f 260 264 3
f 277 235 3
f 193 277 3
f 275 254 3
f 278 31 3
f 274 44 3
f 74 214 3
f 279 276 3
f 160 278 3
f 19 280 3
f 256 281 3
f 246 135 3
f 208 282 3
f 143 279 3
f 283 284 3
f 280 285 3
f 227 283 3
f 265 132 3
f 284 166 3
f 234 286 3
f 287 137 3
f 286 288 3
f 61 270 3
f 289 262 3
f 290 204 3
f 291 289 3
f 292 28 3
f 293 290 3
f 249 56 3
f 294 102 3
f 197 292 3
f 125 295 3
f 296 293 3
f 297 296 3
f 266 298 3
f 299 222 3
f 281 294 3
f 298 79 3
f 175 300 3
f 301 240 3
f 302 299 3
f 24 238 3
f 228 267 3
f 303 185 3
f 84 301 3
f 304 1 3
f 170 191 3
f 305 287 3
f 285 304 3
f 21 150 3
f 306 121 3
f 282 5 3
f 15 303 3
f 64 306 3
f 271 302 3
f 148 307 3
f 308 20 3
f 295 22 3
f 43 297 3
f 288 309 3
f 300 40 3
f 307 305 3
f 273 308 3
f 310 291 3
f 112 310 3
f 309 105 3
