# Blender v2.91.0 OBJ File: ''
# www.blender.org
o l11_pripyat_terrain.object.001_terrainShape.018
v -245.738998 -2.387722 -306.883972
v 4.042973 -2.390703 -306.885010
v 176.261002 -2.390759 -306.884033
v 176.261047 3.607950 389.516022
v 176.261047 -0.160211 423.647003
v 176.261047 0.415241 411.160004
v 176.261047 2.405999 400.398010
v 176.261047 3.607952 377.513031
v 176.261047 3.607953 365.510040
v 176.261047 3.607954 351.857025
v 176.261047 3.607955 338.204010
v 176.261032 -0.376035 236.812988
v 176.261032 -0.376037 259.061462
v 176.261047 3.607956 326.200989
v 176.261032 3.607957 314.197968
v 176.261032 -0.376034 225.308990
v 176.261032 -0.376038 269.805969
v 176.261032 -0.376039 284.115967
v 176.261032 -0.376036 248.316971
v 176.261032 0.415251 292.553955
v 176.261032 2.406008 303.316010
v 176.261047 -0.296055 452.255005
v 176.261047 -0.296056 462.640015
v 176.261047 -0.296057 473.053497
v 176.261047 -0.296054 441.869995
v 176.261032 -2.220770 161.605988
v 176.261047 -0.536873 516.997620
v 176.261047 -0.488710 510.291504
v 176.261047 -0.585036 523.703735
v 176.261047 -0.633199 530.409912
v -33.711330 -0.601492 537.115845
v 176.261047 -0.440547 503.585388
v 176.261047 -0.392384 496.879242
v 176.261047 -0.344221 490.173096
v 176.261047 -0.296058 483.466980
v 176.261047 -0.228132 432.758484
v 176.261047 3.607953 358.683533
v 176.261047 3.607955 345.030518
v 176.261032 -0.376039 276.960968
v 176.261032 -2.220770 186.375992
v 176.261032 -2.390772 195.865982
v 176.261032 -2.003814 213.583984
v 176.261032 -2.003824 207.956970
v -245.738968 -0.375999 231.197021
v -245.738968 -0.375998 223.844009
v -245.738968 -0.375999 238.550018
v -242.931198 -0.375150 530.401001
v -245.738953 -0.375153 530.423401
v -245.738953 -0.369277 523.730774
v -245.738953 -0.363401 517.038147
v -242.931198 -0.363398 517.015747
v -245.738953 -0.357525 510.345520
v -245.738953 -0.351649 503.652893
v -245.738953 -0.345773 496.960266
v -245.738953 -0.339897 490.267639
v -245.738953 -0.334021 483.575043
v -245.738953 -0.324560 473.126038
v -245.738953 -0.315099 462.677032
v -245.738953 -0.305558 452.277527
v -245.738953 -0.296017 441.878021
v -245.738968 -0.376000 248.796021
v -245.738968 -0.376000 259.042023
v -245.738968 -0.376001 271.640015
v -245.738968 -0.376002 284.238007
v -245.738953 3.607993 326.323029
v -245.738953 3.607992 338.326050
v -245.738968 3.607994 314.320007
v -245.738953 3.607991 345.124054
v -245.738953 3.607991 351.922058
v -245.738953 3.607990 358.720032
v -245.738953 3.607989 365.518036
v -245.738953 3.607988 377.521027
v -245.738953 3.607987 389.524017
v -245.738953 -0.228095 432.766541
v -245.738953 -0.160174 423.655029
v -245.738953 0.415278 411.167999
v -245.738968 0.415288 292.676025
v -245.738968 2.406045 303.438019
v 176.261032 -2.390770 163.865982
v 176.261032 -2.390802 186.129974
v 176.261032 -2.390786 174.997986
v -245.738953 2.406036 400.406067
v -147.220367 -362.995850 -280.886383
s 1
f 42 16 83
s 2
f 45 1 83
s 1
f 43 42 83
s 2
f 76 82 83
f 46 44 83
s 1
f 41 43 83
s 3
f 79 81 83
f 81 80 83
s 4
f 31 47 83
s 5
f 47 48 83
s 6
f 31 48 83
s 7
f 47 49 83
s 8
f 48 49 83
s 9
f 49 50 83
s 10
f 50 52 83
s 11
f 50 51 83
f 51 52 83
s 2
f 52 53 83
f 78 77 83
f 53 54 83
f 54 55 83
f 55 56 83
f 56 57 83
f 57 58 83
f 2 3 83
f 61 46 83
s 1
f 28 27 83
s 2
f 58 59 83
f 60 74 83
s 1
f 27 29 83
s 2
f 59 60 83
s 1
f 29 30 83
s 2
f 62 61 83
s 1
f 30 31 83
s 2
f 63 62 83
f 64 63 83
s 1
f 32 28 83
f 33 32 83
s 2
f 66 65 83
s 1
f 34 33 83
s 2
f 65 67 83
s 1
f 35 34 83
s 2
f 68 66 83
s 1
f 24 35 83
s 2
f 1 2 83
s 1
f 23 24 83
f 22 23 83
s 2
f 69 68 83
s 1
f 25 22 83
f 36 25 83
f 5 36 83
s 2
f 67 78 83
f 71 70 83
s 1
f 6 5 83
s 12
f 3 26 83
s 1
f 7 6 83
s 2
f 70 69 83
s 1
f 4 7 83
s 2
f 72 71 83
s 1
f 8 4 83
f 9 8 83
s 2
f 73 72 83
s 1
f 37 9 83
f 10 37 83
s 2
f 74 75 83
s 1
f 38 10 83
f 11 38 83
f 14 11 83
s 2
f 75 76 83
s 1
f 15 14 83
f 21 15 83
f 20 21 83
s 2
f 82 73 83
s 1
f 18 20 83
f 39 18 83
f 17 39 83
f 13 17 83
s 3
f 3 79 83
s 2
f 77 64 83
s 1
f 19 13 83
f 12 19 83
f 16 12 83
f 40 41 83
s 2
f 44 45 83
