# Blender v2.91.0 OBJ File: ''
# www.blender.org
o l06_rostok_terrain.object.001_terrainShape.014
v 415.154999 -0.000108 -512.000000
v 427.260620 -0.000108 -512.000000
v -32.342331 -394.618164 -6.953130
v 366.732483 -0.000108 -512.000000
v 378.838104 -0.000108 -512.000000
v 12.999700 1.840163 -512.000000
v 20.499699 1.380294 -512.000000
v -512.000000 0.000292 -503.456482
v -77.330093 -33.863895 483.097992
v -69.990402 -33.959270 482.070496
v -249.500000 0.000688 -512.000000
v -242.000000 0.000688 -512.000000
v 512.000000 31.246555 322.773987
v 512.000000 31.141842 330.273987
v 512.000000 -0.000108 -512.000000
v 512.000000 1.600543 -145.956390
v 512.000000 3.201136 -136.137772
v 73.093246 4.314768 512.000000
v 62.191673 3.666101 512.000000
v 512.000000 31.208078 314.023987
v -437.322235 11.569064 495.611023
v -445.577759 12.209867 497.432007
v -65.466301 0.000304 -512.000000
v -62.000301 -0.000081 -512.000000
v -511.881836 9.072778 424.973389
v -511.918976 7.892277 412.540985
v 32.325150 -7.844342 512.000000
v 22.842674 -13.275229 512.000000
v -124.908875 -31.904396 476.611877
v -133.843994 -31.243923 472.942993
v 173.839005 0.230493 -512.000977
v 180.791992 0.172843 -512.000732
v 512.000000 30.408882 495.846741
v 512.000000 30.408884 507.961670
v 94.896393 5.612103 512.000000
v 83.994820 4.963437 512.000000
v 13.360200 -18.706116 512.000000
v 512.000000 34.467171 140.274002
v 512.000000 34.797626 152.774002
v 512.000000 -0.000287 -226.841888
v 512.000000 -0.000235 -217.487503
v 187.744995 0.115192 -512.000488
v 512.000000 31.131124 296.523987
v 512.000000 31.169601 305.273987
v 3.771425 -21.454266 512.000000
v 512.000000 34.136719 127.773994
v -174.500000 0.175025 -512.000000
v -167.000000 0.349362 -512.000000
v 512.000000 31.092649 287.773987
v -182.000000 0.000688 -512.000000
v -407.000000 0.000688 -512.000000
v -399.500000 0.000688 -512.000000
v 512.000000 30.408880 479.693481
v 512.000000 30.408882 487.770111
v 122.007004 4.461524 512.000000
v 115.229355 4.749167 512.000000
v -497.000000 0.000688 -512.000000
v -489.500000 0.000688 -512.000000
v 216.233368 -0.000108 -512.000000
v 223.524567 -0.000108 -512.000000
v -302.000000 0.000688 -512.000000
v -294.500000 0.000688 -512.000000
v 108.451698 5.036813 512.000000
v -239.464996 -21.520929 450.161011
v -249.648499 -22.047377 452.236267
v 230.815750 -0.000108 -512.000000
v 101.674042 5.324459 512.000000
v -511.770477 12.614281 462.270508
v -511.807617 11.433780 449.838135
v -178.977234 -18.146151 458.624512
v -185.160995 -16.698725 456.363007
v -2.000300 2.759900 -512.000000
v 5.499700 2.300030 -512.000000
v -229.843994 -20.543928 449.522522
v -172.793488 -19.593576 460.886017
v 166.917511 0.383109 -512.000977
v 159.996002 0.535726 -512.000977
v -511.733337 13.794782 474.702881
v -220.223007 -19.566927 448.884033
v -357.393127 5.195922 470.852020
v -350.012970 4.566746 466.848022
v -511.844727 10.253279 437.405762
v 238.106934 -0.000108 -512.000000
v 512.000000 6.402320 -116.500549
v 512.000000 8.002912 -106.681938
v 512.000000 9.603503 -96.863327
v 194.339233 20.193558 512.000000
v 187.620605 19.393970 512.000000
v 512.000000 4.801727 -126.319160
v -32.000301 2.361676 -512.000000
v -24.500301 3.020657 -512.000000
v -63.555077 -34.129246 487.393982
v 207.776489 21.792732 512.000000
v 201.057861 20.993145 512.000000
v 443.294006 28.504234 512.000000
v 433.745026 27.982285 512.000000
v -392.000000 0.000688 -512.000000
v -511.696228 14.975282 487.135254
v -17.000299 3.679636 -512.000000
v -212.889511 -18.824177 450.014038
v 499.894379 -0.000108 -512.000000
v 512.000000 30.686487 80.273964
v 512.000000 31.616262 87.773972
v -189.500000 0.000688 -512.000000
v -384.500000 0.000688 -512.000000
v -205.556015 -18.081425 451.144012
v -364.773254 5.825097 474.856018
v 512.000000 29.756710 72.773949
v -377.000000 0.000688 -512.000000
v -197.000000 0.000688 -512.000000
v 512.000000 32.546040 95.273979
v -482.000000 0.000688 -512.000000
v -474.500000 0.000688 -512.000000
v -33.026112 -30.848843 507.179382
v -24.994900 -29.698715 512.000000
v -369.500000 0.000688 -512.000000
v 512.000000 33.475815 102.773994
v 487.788757 -0.000108 -512.000000
v -15.406125 -26.950565 512.000000
v -362.000000 0.000688 -512.000000
v -324.500000 0.000688 -512.000000
v -317.000000 0.000688 -512.000000
v -309.500000 0.000688 -512.000000
v 265.342987 23.519983 512.000000
v 257.669983 23.887758 512.000000
v 512.000000 13.496376 -67.226105
v 512.000000 14.188066 -57.226112
v -332.000000 0.000688 -512.000000
v 249.996994 24.255533 512.000000
v -195.994980 -17.268126 452.018982
v 424.196045 27.460335 512.000000
v 414.647034 26.938383 512.000000
v -9.500299 3.219768 -512.000000
v 512.000000 30.408878 471.616852
v 512.000000 30.408878 463.540222
v -99.500145 0.238884 -512.000000
v -92.000290 0.035544 -512.000000
v 512.000000 31.941708 190.274002
v 512.000000 30.989735 202.774002
v 245.398132 -0.000108 -512.000000
v 145.807007 0.502577 -512.000732
v 152.901505 0.519151 -512.000854
v 512.000000 30.976986 215.274002
v 512.000000 30.964239 227.774002
v 403.246521 26.938383 512.000000
v 512.000000 30.408876 455.463623
v 512.000000 33.806271 115.273994
v 403.049377 -0.000108 -512.000000
v 512.000000 30.408875 447.386993
v -107.000000 0.442224 -512.000000
v 512.000000 30.951492 240.274002
v 512.000000 33.845654 165.274002
v 512.000000 -0.000184 -208.133118
v -122.000000 1.388306 -512.000000
v -114.500000 0.915266 -512.000000
v -57.119747 -34.299221 492.717499
v -372.153381 6.454273 478.860016
v 371.163971 23.009983 512.000000
v 370.123993 16.274082 512.000000
v 252.689316 -0.000108 -512.000000
v 512.000000 -0.000132 -198.778748
v -339.500000 0.000688 -512.000000
v -379.533508 7.083449 482.864014
v 295.342987 25.724783 512.000000
v 287.842987 25.173584 512.000000
v 391.654999 26.919785 512.000000
v 381.409485 24.964884 512.000000
v -347.000000 0.000688 -512.000000
v 280.342987 24.622383 512.000000
v 131.617996 0.469427 -512.000488
v 138.712494 0.486002 -512.000610
v 58.059776 0.101298 -512.000000
v 65.589813 0.151603 -512.000000
v 512.000000 32.893681 177.774002
v 194.697998 0.057542 -512.000244
v 201.651001 -0.000108 -512.000000
v 512.000000 17.646513 -7.226138
v 512.000000 18.338202 2.773857
v -444.500000 0.000688 -512.000000
v -437.000000 0.000688 -512.000000
v 512.000000 30.408871 423.157135
v 512.000000 30.408873 431.233765
v -429.066711 10.928262 493.790009
v -5.817350 -24.202415 512.000000
v 512.000000 -0.000081 -189.424377
v -511.929077 6.905747 405.984253
v -467.000000 0.000688 -512.000000
v 272.842987 24.071182 512.000000
v -511.939209 5.919217 399.427490
v -429.500000 0.000688 -512.000000
v -420.811157 10.287460 491.968994
v 311.018799 -0.000108 -512.000000
v 318.309998 -0.000108 -512.000000
v -459.500000 0.000688 -512.000000
v -511.949341 4.932687 392.870728
v 452.843018 29.026184 512.000000
v 512.000000 16.954824 -17.226131
v 42.999699 0.000688 -512.000000
v 50.529739 0.050993 -512.000000
v 512.000000 30.408869 415.080505
v -452.000000 0.000688 -512.000000
v -511.959473 3.946157 386.313995
v 234.651001 24.991083 512.000000
v 227.932373 24.191494 512.000000
v 27.999699 0.920425 -512.000000
v 35.499699 0.460557 -512.000000
v 208.942184 -0.000108 -512.000000
v 310.243011 26.863785 512.000000
v 302.792999 26.294285 512.000000
v 124.523499 0.452853 -512.000366
v -354.500000 0.000688 -512.000000
v -511.969604 2.959627 379.757263
v -422.000000 0.000688 -512.000000
v 512.000000 30.408875 439.310364
v -259.832001 -22.573826 454.311493
v -270.527008 -21.980030 449.901489
v -404.300110 9.005855 488.327026
v -412.555634 9.646658 490.148010
v 512.000000 28.826935 65.273933
v -396.044556 8.365053 486.506012
v 242.324005 24.623308 512.000000
v 512.000000 30.408869 407.003876
v 512.000000 30.513577 375.273987
v 512.000000 30.408865 382.773987
v -414.500000 0.000688 -512.000000
v 512.000000 30.408867 398.927246
v 512.000000 30.618286 367.773987
v 439.366272 -0.000108 -512.000000
v 451.471893 -0.000108 -512.000000
v 390.943726 -0.000108 -512.000000
v 460.237640 29.199022 512.000000
v 316.934998 23.582184 512.000000
v 259.980499 -0.000108 -512.000000
v 303.727631 -0.000108 -512.000000
v -159.500000 0.861374 -512.000000
v -478.599854 14.773075 504.716003
v -486.855377 15.413878 506.536987
v -152.000000 1.373387 -512.000000
v 512.000000 -0.000029 -180.070007
v -495.110901 16.054678 508.358002
v 512.000000 31.015696 270.273987
v 512.000000 31.054173 279.023987
v 166.178253 15.061168 512.000000
v 158.816376 13.294560 512.000000
v 267.271667 -0.000108 -512.000000
v 391.846008 26.938383 512.000000
v 296.436462 -0.000108 -512.000000
v 467.632263 29.371861 512.000000
v 274.562866 -0.000108 -512.000000
v 512.000000 30.938744 252.774002
v 512.000000 30.977219 261.523987
v 289.145264 -0.000108 -512.000000
v -144.500000 1.581342 -512.000000
v -503.366455 16.695482 510.179016
v 475.026886 29.544697 512.000000
v -137.000000 1.789297 -512.000000
v 463.577515 -0.000108 -512.000000
v 88.179924 0.302519 -512.000000
v 95.709961 0.352824 -512.000000
v 281.854065 -0.000108 -512.000000
v -41.057323 -31.998968 502.358765
v -49.088535 -33.149097 497.538147
v 512.000000 16.263134 -27.226126
v 103.239998 0.403129 -512.000000
v -102.936722 -32.686874 479.067505
v -95.697975 -32.781498 480.410980
v 512.000000 15.571445 -37.226124
v -511.621979 17.336285 512.000000
v 512.000000 27.897158 57.773926
v 180.901993 18.594383 512.000000
v 173.540131 16.827776 512.000000
v 475.683136 -0.000108 -512.000000
v 73.119850 0.201909 -512.000000
v 80.649887 0.252214 -512.000000
v 512.000000 -0.000039 -167.922501
v 512.000000 30.827709 352.773987
v 512.000000 30.722998 360.273987
v -387.789032 7.724251 484.684998
v -105.606201 -33.521576 479.067505
v 512.000000 14.879756 -47.226116
v 221.213745 23.391907 512.000000
v -318.852997 -7.515885 460.255005
v -326.643005 -4.495228 461.903259
v 364.241516 13.462532 512.000000
v 512.000000 -0.000048 -155.774994
v 358.359009 10.650983 512.000000
v 512.000000 11.204095 -87.044708
v 512.000000 12.804688 -77.226097
v -334.432983 -1.474569 463.551514
v 136.730743 7.994739 512.000000
v 129.368866 6.228130 512.000000
v 482.421509 29.717535 512.000000
v 512.000000 30.408865 390.850616
v -342.222961 1.546089 465.199768
v -272.000000 0.000688 -512.000000
v -264.500000 0.000688 -512.000000
v -300.470642 -14.740364 455.016113
v -293.472504 -16.650677 450.955994
v 497.210754 30.063210 512.000000
v 489.816132 29.890373 512.000000
v -462.088806 13.491471 501.074005
v -470.344330 14.132273 502.895020
v -257.000000 0.000688 -512.000000
v -144.084503 -28.863575 470.073486
v -219.500000 0.000688 -512.000000
v -212.000000 0.000688 -512.000000
v 346.084015 9.075903 512.000000
v 337.094025 11.383893 512.000000
v -109.886993 -32.817749 479.067505
v 117.429001 0.436278 -512.000244
v 328.104034 13.691883 512.000000
v -512.000000 0.000688 -512.000000
v 330.415619 -0.000108 -512.000000
v 110.334503 0.419704 -512.000122
v -129.500000 1.588802 -512.000000
v -511.659119 16.155783 499.567627
v -504.500000 0.000688 -512.000000
v -511.979736 1.973097 373.200500
v -88.459229 -32.876118 481.754486
v -115.973747 -32.564869 480.280762
v 342.521240 -0.000108 -512.000000
v 144.092621 9.761345 512.000000
v 512.000000 24.112757 32.773888
v 512.000000 26.037607 42.773899
v -154.324997 -26.483225 467.203979
v 51.290096 3.017433 512.000000
v 151.454498 11.527952 512.000000
v -281.343994 -19.773903 450.777740
v 322.519531 18.637033 512.000000
v 214.495117 22.592319 512.000000
v -453.833282 12.850669 499.252991
v 512.000000 30.932421 345.273987
v 41.807625 -2.413455 512.000000
v 512.000000 20.263052 12.773868
v 512.000000 22.187904 22.773878
v -511.989868 0.986567 366.643738
v -81.220474 -32.970745 483.097992
v -512.000000 0.000037 360.087006
v 512.000000 31.037132 337.773987
v -204.500000 0.000688 -512.000000
v -72.099792 0.009114 -512.000000
v 354.626862 -0.000108 -512.000000
v -227.000000 0.000688 -512.000000
v 504.605377 30.236048 512.000000
v -78.733292 0.017924 -512.000000
v -287.000000 0.000688 -512.000000
v -85.366791 0.026734 -512.000000
v -160.456238 -24.111549 464.618744
v -279.500000 0.000688 -512.000000
v -234.500000 0.000688 -512.000000
v 512.000000 26.967381 50.273914
v -166.587494 -21.739874 462.033508
v -58.534302 0.000304 -512.000000
v -307.468750 -12.830050 459.076233
v -51.900803 0.590647 -512.000000
v -45.267303 1.180990 -512.000000
v -512.000000 0.000035 352.586853
v -38.633804 1.771334 -512.000000
s 1
f 1 2 3
f 4 5 3
f 6 7 3
f 9 10 3
f 11 12 3
f 13 14 3
f 16 17 3
f 18 19 3
f 20 13 3
f 21 22 3
f 23 24 3
f 25 26 3
f 27 28 3
f 29 30 3
f 31 32 3
f 33 34 3
f 35 36 3
f 28 37 3
f 38 39 3
f 40 41 3
f 15 40 3
f 36 18 3
f 32 42 3
f 43 44 3
f 37 45 3
f 46 38 3
f 47 48 3
f 49 43 3
f 50 47 3
f 51 52 3
f 53 54 3
f 55 56 3
f 54 33 3
f 57 58 3
f 59 60 3
f 61 62 3
f 56 63 3
f 64 65 3
f 60 66 3
f 67 35 3
f 68 69 3
f 70 71 3
f 63 67 3
f 72 73 3
f 64 74 3
f 75 70 3
f 76 31 3
f 73 6 3
f 77 76 3
f 78 68 3
f 74 79 3
f 80 81 3
f 69 82 3
f 66 83 3
f 84 85 3
f 85 86 3
f 87 88 3
f 89 84 3
f 90 91 3
f 92 10 3
f 93 94 3
f 95 96 3
f 94 87 3
f 52 97 3
f 98 78 3
f 91 99 3
f 100 79 3
f 101 15 3
f 102 103 3
f 104 50 3
f 97 105 3
f 106 100 3
f 107 80 3
f 108 102 3
f 105 109 3
f 110 104 3
f 103 111 3
f 112 113 3
f 114 115 3
f 109 116 3
f 111 117 3
f 118 101 3
f 119 115 3
f 116 120 3
f 121 122 3
f 123 61 3
f 124 125 3
f 126 127 3
f 128 121 3
f 125 129 3
f 106 130 3
f 131 132 3
f 99 133 3
f 58 112 3
f 134 53 3
f 135 134 3
f 136 137 3
f 138 139 3
f 83 140 3
f 133 72 3
f 141 142 3
f 143 144 3
f 142 77 3
f 132 145 3
f 146 135 3
f 117 147 3
f 148 1 3
f 149 146 3
f 150 136 3
f 147 46 3
f 144 151 3
f 122 123 3
f 39 152 3
f 41 153 3
f 154 155 3
f 92 156 3
f 157 107 3
f 158 159 3
f 140 160 3
f 153 161 3
f 155 150 3
f 162 128 3
f 163 157 3
f 164 165 3
f 166 167 3
f 168 162 3
f 167 158 3
f 165 169 3
f 170 171 3
f 171 141 3
f 172 173 3
f 152 174 3
f 175 176 3
f 177 178 3
f 179 180 3
f 181 182 3
f 183 21 3
f 184 119 3
f 42 175 3
f 161 185 3
f 26 186 3
f 113 187 3
f 188 124 3
f 186 189 3
f 180 190 3
f 191 183 3
f 192 193 3
f 187 194 3
f 169 188 3
f 130 71 3
f 189 195 3
f 196 95 3
f 197 177 3
f 198 199 3
f 200 181 3
f 194 201 3
f 195 202 3
f 199 172 3
f 45 184 3
f 201 179 3
f 174 138 3
f 17 89 3
f 203 204 3
f 205 206 3
f 176 207 3
f 208 209 3
f 210 170 3
f 120 211 3
f 202 212 3
f 190 213 3
f 206 198 3
f 214 149 3
f 207 59 3
f 182 214 3
f 215 216 3
f 209 164 3
f 217 218 3
f 219 108 3
f 96 131 3
f 220 217 3
f 139 143 3
f 129 221 3
f 222 200 3
f 221 203 3
f 223 224 3
f 213 225 3
f 226 222 3
f 227 223 3
f 225 51 3
f 228 229 3
f 230 148 3
f 5 230 3
f 231 196 3
f 232 208 3
f 160 233 3
f 234 192 3
f 48 235 3
f 236 237 3
f 235 238 3
f 185 239 3
f 237 240 3
f 241 242 3
f 243 244 3
f 242 49 3
f 233 245 3
f 145 246 3
f 247 234 3
f 248 231 3
f 245 249 3
f 191 218 3
f 250 251 3
f 252 247 3
f 238 253 3
f 240 254 3
f 151 250 3
f 251 241 3
f 255 248 3
f 253 256 3
f 211 168 3
f 229 257 3
f 258 259 3
f 260 252 3
f 261 262 3
f 263 197 3
f 259 264 3
f 265 266 3
f 267 263 3
f 254 268 3
f 269 219 3
f 262 156 3
f 270 271 3
f 215 65 3
f 257 272 3
f 273 274 3
f 271 243 3
f 274 258 3
f 249 260 3
f 239 275 3
f 276 277 3
f 220 278 3
f 277 227 3
f 88 270 3
f 265 279 3
f 280 267 3
f 204 281 3
f 163 278 3
f 282 283 3
f 159 284 3
f 127 280 3
f 173 273 3
f 275 285 3
f 284 286 3
f 287 288 3
f 289 283 3
f 290 291 3
f 285 16 3
f 292 255 3
f 224 293 3
f 293 226 3
f 294 289 3
f 295 296 3
f 297 298 3
f 299 300 3
f 261 114 3
f 301 302 3
f 296 303 3
f 304 30 3
f 300 292 3
f 236 302 3
f 305 306 3
f 307 308 3
f 303 11 3
f 279 309 3
f 310 210 3
f 308 311 3
f 8 312 3
f 193 313 3
f 286 307 3
f 264 314 3
f 256 315 3
f 314 310 3
f 316 98 3
f 312 317 3
f 212 318 3
f 317 57 3
f 315 154 3
f 266 319 3
f 272 118 3
f 268 316 3
f 309 320 3
f 82 25 3
f 313 321 3
f 322 290 3
f 323 324 3
f 325 304 3
f 19 326 3
f 327 322 3
f 216 328 3
f 311 329 3
f 281 330 3
f 331 301 3
f 329 232 3
f 330 93 3
f 86 287 3
f 328 298 3
f 332 276 3
f 326 333 3
f 334 335 3
f 318 336 3
f 244 327 3
f 337 319 3
f 336 338 3
f 291 55 3
f 339 332 3
f 333 27 3
f 306 340 3
f 81 294 3
f 337 9 3
f 340 110 3
f 341 23 3
f 321 342 3
f 343 305 3
f 34 344 3
f 345 341 3
f 178 334 3
f 62 346 3
f 335 323 3
f 344 299 3
f 347 345 3
f 288 126 3
f 348 325 3
f 346 349 3
f 350 343 3
f 324 351 3
f 44 20 3
f 351 269 3
f 349 295 3
f 348 352 3
f 24 353 3
f 354 297 3
f 137 347 3
f 331 22 3
f 353 355 3
f 12 350 3
f 2 228 3
f 355 356 3
f 338 357 3
f 320 29 3
f 356 358 3
f 357 8 3
f 342 4 3
f 75 352 3
f 7 205 3
f 358 90 3
f 354 282 3
f 14 339 3
