# Blender v2.91.0 OBJ File: ''
# www.blender.org
o l08_yantar_terrain.object.001_terrainShape.016
v 152.488495 23.948822 -138.271179
v 159.863007 24.756771 -138.271179
v -4.262689 -286.650421 210.194214
v -138.063004 18.081989 432.963165
v -146.912003 17.216690 432.963165
v -55.490002 20.702385 426.391205
v -67.159554 18.695238 429.677185
v 283.753021 17.216688 424.004181
v 283.753021 14.160389 432.963165
v 286.703003 39.243202 10.219206
v 286.703003 39.470608 22.887003
v -282.600983 -0.072456 -138.271179
v -282.600983 18.081978 369.348022
v -282.600983 17.885874 363.613007
v 145.113998 23.140871 -138.271179
v 99.365402 12.846372 -138.271179
v 102.943001 15.532871 -138.271179
v 96.443298 19.618637 424.008667
v 103.818001 19.650587 424.004181
v 280.804016 12.706889 432.963165
v 109.708000 18.866171 -138.271179
v -226.556000 12.787889 432.963165
v -229.505005 7.042960 432.963165
v -261.953003 13.434690 432.963165
v -264.903015 11.866090 432.963165
v 286.567261 28.140415 200.762512
v 286.703003 26.975842 211.488007
v 286.701233 38.806873 -16.307293
v 286.702118 38.911339 -9.377941
v 136.264999 20.042788 424.004181
v 148.065491 19.844038 424.024689
v 133.315002 20.042788 424.004181
v -267.852020 13.434690 432.963165
v 286.431488 29.304989 190.037003
v 112.667000 20.039371 -138.271179
v 286.703003 39.015800 -2.448587
v -223.606003 14.275489 432.963165
v 283.753021 19.258484 415.223022
v -38.277802 20.667288 426.308197
v -26.311600 23.799889 426.375153
v -270.802002 13.768290 432.963165
v 27.151201 21.193186 424.394165
v 18.244099 20.985289 424.254181
v 277.853973 12.846490 432.963165
v 283.753021 22.591768 340.676025
v 283.753021 23.572168 332.073975
v -282.600983 14.922325 117.035004
v -282.600983 10.711924 114.167999
v 3.400930 19.479988 424.433197
v 6.475050 20.229387 424.184174
v 183.460999 17.608788 424.004181
v 180.511993 17.216688 424.004181
v -152.811996 17.885889 432.963165
v -214.757019 15.163190 432.963165
v 263.105011 15.140790 432.963165
v 257.206024 16.513390 432.963165
v 177.561996 17.689787 424.004181
v -282.600983 18.278025 122.769997
v 269.005005 15.532990 432.963165
v 121.515999 21.959072 -138.271179
v -282.600983 12.140988 432.963165
v -282.600983 14.944688 424.004181
v 207.059998 12.003588 424.004181
v 204.110001 10.238888 424.004181
v 124.465996 22.541672 -138.271179
v 215.908997 31.397171 -138.271179
v 224.017242 32.173347 -138.271179
v 227.707993 16.513388 424.004181
v 230.658005 17.216688 424.004181
v -282.600983 19.650526 128.503998
v -282.600983 19.062326 125.636993
v 286.703003 38.441765 76.177635
v 286.703003 37.947220 85.495987
v 106.766998 19.569588 424.004181
v 232.125488 32.949524 -138.271179
v 0.665431 19.244087 424.883209
v 210.009003 14.160387 424.004181
v 286.227844 32.423275 158.199753
v 286.159973 31.634136 168.585999
v 283.753021 22.003572 349.276978
v 287.036011 6.874991 295.320984
v 287.341980 7.392783 297.667999
v 74.293098 -0.000028 -138.271179
v -282.600983 19.258467 317.737976
v -282.600983 19.569565 314.870972
v 283.753021 20.827078 377.948975
v 283.753021 20.238777 375.082001
v -2.009860 20.740889 425.076202
v 283.753021 21.866074 355.011993
v -282.600983 21.334229 142.839996
v -282.600983 21.023129 139.973007
v -282.600983 17.297661 294.801025
v -282.600983 18.474062 289.066010
v 56.518200 22.249487 426.581207
v 62.531200 21.570786 425.826202
v 283.753021 21.415274 357.879028
v 286.703003 34.697971 -138.271179
v 286.702515 35.173473 -127.862068
v 286.703003 9.650572 300.534973
v -282.600983 21.334229 137.104996
v -282.600983 22.003490 201.617004
v -282.600983 22.395639 194.449005
v 240.233734 33.725700 -138.271179
v 248.341995 34.501873 -138.271179
v 286.295715 33.212406 147.813507
v 249.831497 16.766989 428.483673
v 245.406998 17.885887 424.004181
v -5.098249 22.099287 425.584167
v 251.306519 17.090389 428.483673
v -282.600983 17.608780 386.551025
v -282.600983 17.297680 383.684021
v -282.600983 15.983786 418.089996
v -282.600983 16.905485 415.223022
v -13.942801 24.670288 426.370209
v -282.600983 -0.083587 78.328049
v -282.600983 0.020039 71.876877
v 136.264999 23.175472 -138.271179
v -282.600983 18.081978 375.082001
v -282.600983 0.123665 65.425697
v -211.807007 13.768290 432.963165
v 242.456985 17.297688 424.004181
v 239.507019 14.944688 424.004181
v -17.624300 24.842287 426.412201
v 286.703003 14.356463 303.401978
v 286.703003 18.866262 309.137024
v -78.829102 16.688089 432.963165
v -282.600983 18.474079 372.214996
v 286.698608 38.493477 -37.095352
v 286.699493 38.597946 -30.165998
v -208.856995 13.353788 432.963165
v -194.108002 16.709389 432.963165
v -205.906998 15.140790 432.963165
v 93.445496 8.496372 -138.271179
v 96.153900 11.219071 -138.271179
v 283.753021 21.415279 386.551025
v 71.274498 20.124088 424.901184
v 286.703003 21.334265 314.870972
v -20.306301 24.883188 426.583160
v 277.112732 34.648949 -138.271179
v -161.660995 17.943439 432.963165
v -282.600983 17.885857 283.332001
v -282.600983 17.297659 280.465027
v 285.228027 22.787868 324.905975
v -282.600983 18.670170 343.542999
v -282.600983 18.278070 340.676025
v 267.522491 34.599922 -138.271179
v -170.509995 18.000990 432.963165
v -176.410004 17.689789 432.963165
v -282.600983 18.474072 337.809021
v 286.697754 38.389015 -44.024704
v -282.616028 17.726557 274.730988
v 46.279701 19.024088 426.577179
v 48.181801 17.051588 426.765198
v -23.423899 24.232988 426.389191
v -282.600983 18.866270 334.940979
v -282.600983 20.827045 223.121002
v -282.600983 21.219193 215.953003
v 286.703003 39.430862 57.540939
v 286.703003 38.936314 66.859291
v 257.932251 34.550896 -138.271179
v 198.210007 15.451986 424.004181
v 201.160004 13.353786 424.004181
v -179.358978 16.709389 432.963165
v 286.703003 39.925411 48.222591
v 109.717003 18.866287 424.004181
v 283.753021 20.630976 372.214996
v 36.149799 21.603088 425.041168
v -282.600983 17.297661 297.667999
v 286.567261 36.368950 106.268486
v 286.499390 35.579815 116.654739
v -282.642975 17.406757 271.864014
v -282.602997 20.538149 230.289001
v 77.381897 18.869389 424.375153
v 80.186096 18.726488 424.223206
v 115.617004 18.866287 424.004181
v -282.600983 19.062366 320.606018
v 283.753021 21.334284 398.019989
v 283.753021 21.415281 392.285004
v -282.600983 19.062368 323.473022
v 236.557007 15.532988 424.004181
v -282.600983 18.474064 300.534973
v 74.329597 20.430187 424.612183
v 80.219597 1.300092 -138.271179
v 83.169403 2.003422 -138.271179
v 168.713013 27.257572 -138.271179
v 176.087006 27.910072 -138.271179
v -185.259003 17.297689 432.963165
v 204.109985 30.514021 -138.271179
v 42.580898 21.509588 425.958160
v -282.600983 20.608635 165.777008
v -282.600983 20.042732 157.175995
v 283.753021 20.827078 369.348022
v 171.664001 18.702488 424.026184
v 174.613007 19.068188 424.008209
v -282.600983 19.062368 326.339996
v 286.696869 38.284554 -50.954056
v -282.600983 19.062363 303.401978
v -282.605011 20.249250 237.456985
v 192.310989 17.216688 424.004181
v 189.360992 17.297688 424.004181
v 286.703003 22.003565 317.737976
v -282.600983 19.062368 329.207001
v -282.748993 18.371456 266.156006
v -282.869019 18.501953 260.413971
v 233.606995 16.513388 424.004181
v 192.310989 29.630871 -138.271179
v 83.146507 19.424088 424.131165
v 286.635132 37.158081 95.882240
v -282.674988 20.884552 243.195999
v 12.386300 19.241888 424.194183
v -282.600983 19.062363 306.269989
v 286.431488 34.790676 127.040993
v 283.753021 20.827082 400.886993
v 186.410995 17.297688 424.004181
v -282.600983 18.670172 346.410004
v 286.422974 6.287160 290.628021
v 286.728973 6.287161 292.974976
v -282.600983 18.278072 349.276978
v -282.834015 18.979553 257.640991
v 283.753021 20.238775 366.481018
v 286.363586 34.001541 137.427246
v -282.727020 20.654652 246.111023
v 88.770599 4.297742 -138.271179
v -118.871002 18.497339 432.963165
v -126.264008 18.000990 432.963165
v 118.567001 18.474089 424.004181
v 121.515999 19.258488 424.004181
v 286.703003 21.555103 261.827972
v 286.703003 18.081955 268.995972
v 89.068596 19.586687 424.013153
v 286.703003 25.028252 254.659973
v 283.753021 19.650585 412.356018
v 283.753021 19.650574 363.613007
v -44.215302 19.040188 426.439209
v 286.700989 36.599979 -96.634705
v 286.699738 36.995003 -86.946877
v 286.695984 38.180092 -57.883411
v 283.753021 20.042786 409.488007
v 283.753021 20.238787 406.620972
v -282.600983 17.216686 412.356018
v -282.600983 16.513382 403.754028
v 286.697235 37.785061 -67.571236
v -46.543800 19.046087 426.654175
v 286.703003 13.006257 274.730988
v 286.703003 39.698013 35.554794
v 48.768700 18.489588 425.766205
v 286.701996 35.648975 -117.452950
v 286.701477 36.124477 -107.043831
v -53.317596 20.263388 426.341187
v 183.460999 28.562571 -138.271179
v -282.600983 15.983783 400.886993
v -50.365902 20.122387 426.281158
v -282.600983 -0.290840 91.230400
v -282.600983 -0.187213 84.779221
v -111.477997 18.993690 432.963165
v 286.698486 37.390034 -77.259056
v -282.600983 16.317284 398.019989
v 159.865997 19.645288 424.045197
v 283.753021 20.238775 360.745972
v -282.600983 18.474077 357.879028
v 286.703003 26.488943 222.281006
v 286.703003 10.059958 277.598022
v 15.240400 19.925488 424.237183
v 286.703003 26.002047 233.073990
v -282.600983 16.179783 395.151978
v 124.465996 19.569588 424.004181
v -282.600983 20.688482 150.007996
v -282.600983 8.300343 111.301003
v -282.600983 5.532893 108.433990
v 285.227997 7.246378 281.899017
v -282.600983 18.474060 286.198975
v -282.600983 16.905481 392.285004
v 52.227699 21.747889 426.037201
v -282.600983 18.866262 309.137024
v 286.117004 6.523450 288.281006
v 127.415993 19.062387 424.004181
v -282.600983 20.630926 134.238007
v 283.753021 20.238783 403.754028
v 286.700378 38.702412 -23.236647
v -247.203979 13.768290 432.963165
v -253.104004 12.395689 432.963165
v -241.304993 13.353788 432.963165
v -282.600983 19.062365 312.003998
v 195.259995 16.513388 424.004181
v 130.365997 19.258488 424.004181
v -282.600983 22.846439 191.581985
v -232.455002 8.081968 432.963165
v -282.600983 0.827005 96.964996
v 286.295715 30.469563 179.311493
v 220.333496 16.219238 424.004181
v -282.600983 21.611343 208.785004
v 212.959000 15.925088 424.004181
v 285.811005 6.874990 285.933990
v -282.600983 22.395638 188.714996
v -282.600983 2.373282 102.698997
v -87.711296 17.852989 432.963165
v -96.678001 18.530790 432.963165
v 286.703003 25.515150 243.866974
v -282.600983 22.003536 177.246002
v -235.404999 12.395689 432.963165
v -256.052979 13.006289 432.963165
v -104.078003 18.762239 432.963165
s 1
f 1 2 3
f 4 5 3
f 6 7 3
s 2
f 8 9 3
s 1
f 10 11 3
f 13 14 3
f 15 1 3
f 16 17 3
f 18 19 3
s 3
f 8 20 3
s 1
f 17 21 3
f 22 23 3
f 24 25 3
s 2
f 9 20 3
s 1
f 26 27 3
f 28 29 3
f 30 31 3
f 30 32 3
f 25 33 3
f 34 26 3
f 21 35 3
f 29 36 3
f 37 22 3
f 38 8 3
f 39 40 3
f 33 41 3
f 42 43 3
f 20 44 3
f 45 46 3
f 47 48 3
f 36 10 3
f 49 50 3
f 51 52 3
f 5 53 3
f 54 37 3
f 55 56 3
f 57 52 3
f 58 47 3
f 44 59 3
f 35 60 3
f 61 62 3
f 63 64 3
f 60 65 3
f 66 67 3
f 68 69 3
f 70 71 3
f 72 73 3
f 19 74 3
f 67 75 3
f 49 76 3
f 77 63 3
f 71 58 3
f 78 79 3
f 80 45 3
f 81 82 3
f 12 83 3
f 84 85 3
f 86 87 3
f 59 55 3
f 76 88 3
f 89 80 3
f 90 91 3
f 92 93 3
f 94 95 3
f 89 96 3
f 97 98 3
f 82 99 3
f 91 100 3
f 101 102 3
f 103 104 3
f 105 78 3
f 106 107 3
f 88 108 3
f 75 103 3
f 109 106 3
f 110 111 3
f 112 113 3
f 108 114 3
f 115 116 3
f 117 15 3
f 111 118 3
f 116 119 3
f 120 54 3
f 121 122 3
f 114 123 3
f 124 125 3
f 62 112 3
f 126 7 3
f 118 127 3
f 119 12 3
f 128 129 3
f 127 13 3
f 130 120 3
f 131 132 3
f 133 134 3
f 86 135 3
f 136 95 3
f 107 121 3
f 125 137 3
f 123 138 3
f 139 97 3
f 53 140 3
f 141 142 3
f 143 46 3
f 144 145 3
f 146 139 3
f 140 147 3
f 147 148 3
f 145 149 3
f 150 128 3
f 142 151 3
f 152 153 3
f 138 154 3
f 149 155 3
f 156 157 3
f 158 159 3
f 154 40 3
f 160 146 3
f 161 162 3
f 148 163 3
f 65 117 3
f 164 158 3
f 74 165 3
f 87 166 3
f 104 160 3
f 42 167 3
f 168 92 3
f 159 72 3
f 169 170 3
f 151 171 3
f 172 156 3
f 173 174 3
f 175 165 3
f 176 84 3
f 177 178 3
f 64 162 3
f 179 176 3
f 122 180 3
f 181 168 3
f 132 130 3
f 182 173 3
f 183 184 3
f 185 186 3
f 136 182 3
f 163 187 3
f 188 66 3
f 167 189 3
f 190 191 3
f 166 192 3
f 193 194 3
f 195 179 3
f 196 150 3
f 197 181 3
f 198 172 3
f 189 152 3
f 199 200 3
f 137 201 3
f 155 202 3
f 203 204 3
f 180 205 3
f 206 188 3
f 174 207 3
f 202 195 3
f 73 208 3
f 209 198 3
f 50 210 3
f 211 197 3
f 99 124 3
f 170 212 3
f 177 213 3
f 214 200 3
f 215 144 3
f 216 217 3
f 57 194 3
f 218 215 3
f 204 219 3
f 192 220 3
f 187 131 3
f 221 105 3
f 208 169 3
f 222 209 3
f 184 223 3
f 224 225 3
f 226 227 3
f 228 229 3
f 207 230 3
f 205 69 3
f 231 228 3
f 232 38 3
f 233 220 3
f 175 226 3
f 39 234 3
f 235 236 3
f 212 221 3
f 237 196 3
f 238 239 3
f 240 241 3
f 242 237 3
f 234 243 3
f 229 244 3
f 109 56 3
f 217 81 3
f 245 164 3
f 153 246 3
f 247 248 3
f 171 203 3
f 225 4 3
f 249 6 3
f 186 250 3
f 232 238 3
f 241 251 3
f 223 133 3
f 11 245 3
f 243 252 3
f 253 254 3
f 255 224 3
f 236 256 3
f 251 257 3
f 258 193 3
f 252 249 3
f 256 242 3
f 254 115 3
f 259 96 3
f 250 206 3
f 14 260 3
f 27 261 3
f 244 262 3
f 210 263 3
f 261 264 3
f 257 265 3
f 18 230 3
f 227 266 3
f 233 259 3
f 191 267 3
f 219 222 3
f 268 269 3
f 262 270 3
f 271 141 3
f 265 272 3
f 246 273 3
f 48 268 3
f 274 211 3
f 93 271 3
f 275 216 3
f 266 276 3
f 100 277 3
f 239 278 3
f 129 279 3
f 280 281 3
f 282 280 3
f 267 90 3
f 279 28 3
f 283 274 3
f 284 199 3
f 260 218 3
f 276 285 3
f 41 61 3
f 98 247 3
f 102 286 3
f 213 278 3
f 23 287 3
f 288 253 3
f 79 289 3
f 85 283 3
f 161 284 3
f 290 68 3
f 285 32 3
f 143 201 3
f 289 34 3
f 272 110 3
f 157 291 3
f 113 240 3
f 290 292 3
f 270 293 3
f 248 235 3
f 291 101 3
f 286 294 3
f 295 288 3
f 296 297 3
f 134 16 3
f 264 298 3
f 273 94 3
f 31 258 3
f 294 299 3
f 298 231 3
f 293 275 3
f 299 190 3
f 77 292 3
f 300 282 3
f 281 301 3
f 178 135 3
f 83 183 3
f 297 302 3
f 302 255 3
f 214 51 3
f 263 43 3
f 2 185 3
f 277 70 3
f 301 24 3
f 126 296 3
f 287 300 3
f 269 295 3
