# Blender v2.91.0 OBJ File: ''
# www.blender.org
o l07_military_terrain_nosun_3.object_modelShape.003
v 218.953476 3.015411 -116.377350
v 217.862076 2.979542 -119.306229
v 217.318665 3.120089 -116.298958
v 28.174965 -5.930000 508.334442
v -125.370483 -288.334717 -99.306732
v 8.239967 -4.030000 508.334442
v -166.352066 10.210954 -20.345886
v -21.931032 -1.674000 508.334442
v -11.870033 -2.867000 508.334442
v -166.797180 11.634928 -24.680183
v -167.204300 13.109618 -29.678713
v -1.799033 -3.533000 508.334442
v -196.329025 4.226000 -19.546551
v 47.977970 -6.579000 508.334442
v 52.943966 -5.831000 508.334442
v -196.318054 7.903000 -35.654552
v -196.323044 8.079000 -30.416550
v 43.010967 -6.971000 508.334442
v -168.366791 14.238004 -35.528187
v 57.910965 -5.252000 508.334442
v -168.491608 15.044435 -40.257919
v 67.864471 -4.350000 508.334442
v 77.817970 -3.448000 508.334442
v -170.650162 14.749594 -47.518356
v 281.154175 3.282789 490.223816
v -196.333054 -3.257000 -0.036551
v -196.334030 -1.900000 4.746449
v 82.806961 -3.082000 508.334442
v 107.746964 -1.455000 508.334442
v 112.740967 -0.973000 508.334442
v -196.333054 -2.331000 -4.500551
v 122.685966 -0.912000 508.334442
v -196.332031 -1.404000 -8.963551
v 102.752968 -2.129000 508.334442
v -196.334030 1.674000 14.216449
v -196.334030 3.891000 18.901449
v -196.334030 8.882000 28.408449
v 87.808968 -2.428000 508.334442
v -196.334030 -0.544000 9.531449
v 92.811966 -1.983000 508.334442
v -169.242935 33.027260 -84.500336
v -171.174377 33.129051 -83.030487
v 97.781960 -2.072000 508.334442
v -168.504959 32.878944 -84.967171
v -165.082031 32.213551 -86.303421
v -172.058868 32.992393 -82.121071
v 161.998306 16.503845 461.355103
v -174.627380 32.043301 -78.187363
v -172.746994 32.691235 -81.034630
v 156.154037 16.487400 462.576965
v 158.293777 16.816851 462.977692
v -174.558594 31.782017 -75.402794
v 153.229752 16.292824 461.582825
v -172.802658 31.815950 -73.121307
v 151.753571 16.398899 460.754913
v -172.162613 31.850258 -72.669121
v 132.747971 1.388293 508.334442
v 142.735962 2.607403 508.334442
v -156.411850 33.284122 -89.190804
v -160.631516 32.252796 -86.513885
v 152.684967 4.655842 508.334442
v -163.970001 32.113132 -86.509865
v 157.669968 4.090842 508.334442
v -196.246017 8.100000 -61.392548
v 145.407074 14.527759 452.438293
v 147.846176 16.323940 457.630951
v -186.874573 12.436275 -58.322281
v 136.011566 4.266846 482.217255
v 137.280090 4.528073 476.208252
v -183.481674 12.869811 -54.088730
v 132.070160 4.017837 476.462708
v 138.370972 0.688000 488.846497
v -126.283035 11.077660 -131.576553
v -136.676529 11.244486 -131.494049
v 130.590302 3.980610 474.973602
v 163.998795 16.536499 460.083801
v -147.070023 11.411311 -131.411560
v 207.168991 2.116000 -131.665543
v 202.190979 2.417000 -131.665543
v -152.904449 33.347645 -90.337517
v -154.168503 33.446075 -89.949394
v 212.147964 1.763000 -131.665543
v -123.404640 10.386985 -106.180214
v 222.050980 2.173000 -131.665543
v -123.858856 10.507876 -108.466614
v -121.476036 10.398319 -131.598557
v 221.164185 2.328139 -126.713936
v -116.664032 9.676255 -131.616547
v 217.862076 2.979542 -119.306229
v 320.437378 10.942361 -80.751564
v 318.455658 11.085197 -79.458672
v 332.793976 -7.221000 508.326477
v -132.471176 11.084478 -114.788956
v 301.416260 14.568003 -94.019783
v 299.365143 14.687068 -94.761154
v 327.897003 -6.321000 508.329468
v 316.177643 11.512527 -79.591522
v 337.877960 -6.973000 508.323486
v 342.960968 -6.812000 508.318481
v 315.248901 12.758327 -83.347069
v 303.653900 14.420911 -92.674202
v 352.950989 -5.986000 508.302460
v 306.043640 14.462434 -91.764511
v 357.782959 -6.834000 508.289459
v 362.610962 -7.643000 508.274445
v 314.686340 13.631291 -85.365471
v 290.450470 0.318893 508.334442
v 311.222748 14.593794 -86.991013
v 298.102966 -2.545000 508.334442
v 309.166687 14.726287 -88.180176
v 284.067688 2.087753 501.144257
v 282.797974 3.182786 508.334442
v 308.769989 14.704629 -88.663773
v 303.174957 -2.463000 508.333466
v 306.754089 14.520725 -91.119904
v 367.633942 -2.930051 -78.459236
v 371.555817 0.434065 -78.693924
v 308.160980 -3.541000 508.333466
v 292.762939 15.023384 -95.572990
v 313.146942 -4.595000 508.333466
v 382.441986 -9.890000 -131.487549
v 322.998993 -5.416000 508.330475
v 381.221863 -9.623939 -121.701843
v 369.897461 2.250847 -79.338181
v 368.818665 2.772881 -79.900139
v 368.013000 5.677124 -83.150101
v 367.792847 7.779942 -82.850098
v 282.393982 2.857469 495.961090
v 281.154175 3.282789 490.223816
v 279.731720 3.378219 493.532684
v 387.418976 -9.298000 -131.441559
v 368.418243 9.021582 -81.147835
v -196.334030 -0.042000 83.592453
v 402.302002 -10.054000 -131.279556
v 392.389954 -8.701000 -131.389557
v 368.486084 -6.276817 -76.666969
v -196.334030 0.593000 78.577454
v 374.122375 -9.315847 -105.640350
v 369.110260 -8.327978 -96.853889
v 369.149109 -8.457417 -78.061584
v -196.334030 1.724000 73.624451
v 369.274139 -8.275661 -88.664246
v 253.100815 8.873143 -105.329926
v -196.334030 0.535000 93.819450
v -196.334030 1.746000 99.031448
v 443.235962 -10.624001 -100.891556
v 248.793015 7.531363 -105.141151
v -196.334030 1.882000 109.116447
v 443.223999 -10.353001 -105.965546
v 258.589874 9.366955 -105.425858
v -196.334030 -0.677000 88.606445
v 443.250977 -10.100000 -111.074554
v 262.381287 11.412595 -102.217224
v 151.681458 3.739320 502.251434
v 407.265991 -10.740000 -131.231552
v 290.350067 10.058254 -96.504120
v -196.334030 5.535000 144.723450
v -196.334030 6.488000 154.847458
v 412.243988 -11.418000 -131.196548
v 267.376587 10.591339 -105.144043
v -196.334030 4.960000 139.655457
v 422.259949 -11.609000 -131.216553
v 292.476318 10.067322 -94.011055
v -196.334030 2.647000 116.775452
v -196.334030 3.110000 129.372452
v 293.666565 12.791099 -96.218925
v -196.334030 6.613000 169.991440
v 443.665985 -12.365000 -131.665543
v 432.507965 -11.391999 -131.414551
v 283.013794 13.283272 -110.924553
v 278.819031 13.933681 -109.284332
v -196.334030 6.791000 159.903442
v 289.925171 12.051469 -107.927910
v -196.334030 5.407000 179.979446
v 443.451996 -10.349000 -121.601555
v -196.334030 4.624000 188.528458
v 443.622955 -14.915999 -49.854549
v 274.369873 11.451824 -107.966599
v 443.612976 -14.578000 -53.039551
v 443.318970 -9.948000 -91.016556
v 166.295746 16.833830 460.242035
v 443.487488 -10.305000 -73.694550
v 443.425964 -9.828000 -81.016556
v 270.201599 11.887623 -105.991722
v 167.252884 18.018225 464.010315
v 443.548981 -10.782000 -66.372551
v 167.842148 18.854273 466.036682
v 443.577972 -11.026999 -61.497547
v 242.865356 9.224063 -109.941406
v 172.676453 19.615269 468.642731
v 443.589966 -12.680000 -58.860550
v 239.310669 10.247468 -110.521797
v 197.777649 19.089268 473.109650
v 443.601990 -14.274000 -56.222549
v 233.901016 10.221760 -110.063377
v 191.970428 19.263971 476.611053
v 194.546127 19.440401 475.542816
v 230.301880 8.109401 -110.365135
v 189.697540 18.983536 476.481415
v 369.149109 -8.457417 -78.061584
v 227.181564 9.904758 -112.803810
v 176.098831 19.232647 472.203827
v 368.734680 -8.202553 -80.388496
v 219.369492 7.068474 -117.695274
v 365.784180 9.222014 -82.590332
v 363.825226 9.465374 -83.009239
v 216.144180 5.759936 -116.915321
v 181.049606 19.021982 474.834656
v 183.096008 19.023308 475.598236
v 368.418243 9.021582 -81.147835
v 178.821869 19.004345 473.464844
v 362.048126 9.482602 -82.463028
v 218.228394 8.844560 -116.942513
v 360.294098 9.305950 -81.420723
v 222.201248 9.652561 -116.369553
v -196.334030 -5.535000 223.853455
v 359.312775 9.043469 -79.849785
v 251.485153 10.981249 486.576416
v 246.507690 14.097365 482.117584
v -196.334030 -2.396000 213.693451
v 358.379517 8.835061 -77.973221
v 241.613708 15.054618 480.688904
v -196.334030 0.559000 203.574448
v 354.800598 9.020242 -77.602638
v 237.248718 14.643515 479.216339
v -196.334030 1.969000 198.527435
v 346.320587 8.752017 -78.137093
v 272.480927 8.404917 491.651794
v 276.539062 8.855761 488.714935
v 443.664917 -6.682000 354.523468
v 443.664948 -5.267000 352.347473
v 340.040894 7.926729 -65.929298
v 340.154541 8.091570 -65.101326
v 279.096649 3.479601 488.190613
v 443.664948 -12.741000 362.329468
v 443.664948 -9.882000 358.390472
v 343.062195 8.036394 -75.272713
v 443.663971 -12.873000 364.284454
v 339.563019 7.517876 -72.071388
v 267.995697 8.968712 491.698822
v 443.663940 -12.903029 366.256470
v 265.893951 10.025105 490.286285
v 443.665985 -3.775000 350.192474
v 443.665985 -2.656000 343.468475
v 339.307617 7.486240 -69.030609
v 339.738556 7.662366 -67.095100
v 259.081573 9.378883 483.248901
v 263.458527 10.273890 488.516632
v 443.658997 -13.221999 381.715454
v 338.018829 7.893689 -66.625763
v 255.313751 10.260595 488.010162
v 337.121613 7.964773 -67.254608
v 199.137070 14.715534 472.675201
v 443.659790 -13.178738 379.614441
v 215.228043 16.842548 482.226257
v 442.801788 -12.993212 372.873901
v 204.095657 15.506754 477.298157
v 206.563675 17.313776 480.028046
v 201.623795 14.016091 474.527252
v 443.665985 7.307000 149.372452
v 233.650864 14.420624 481.384613
v 443.665985 8.215000 154.446442
v 443.665985 8.354000 189.439453
v 443.665985 9.505000 179.500443
v 227.033157 15.488489 480.911407
v 228.626205 15.615675 480.486877
v 443.665985 9.304000 169.510437
v 224.636292 15.077701 480.877350
v 443.665985 9.103000 159.520447
v 223.453125 14.800907 481.123749
v 443.665985 6.289000 134.257446
v 443.665985 6.531000 139.338440
v 443.665985 6.923000 144.355453
v 209.282578 18.163486 479.463257
v 443.665985 6.397000 129.175446
v 210.011993 18.238176 479.969330
v 443.665985 9.441000 119.147453
v 443.665985 9.856000 113.860451
v 219.260040 17.981010 477.129028
v 443.665985 8.052000 124.161446
v 216.898209 16.479948 484.437683
v 337.797333 7.719595 -69.666389
v 221.525818 16.219746 481.357513
v 443.665985 10.176000 108.573448
v 211.566177 18.196854 479.506592
v 336.984406 8.008257 -72.018356
v 334.595581 9.952229 -77.181053
v 443.665985 9.035000 98.282448
v 129.389221 9.627810 466.281921
v 334.149597 10.108359 -77.628792
v 443.665985 6.563000 88.366447
v 129.044449 10.701147 474.987671
v 130.465454 10.858301 472.295166
v 330.665497 10.255913 -80.262482
v 443.665985 5.128000 83.545448
v 329.176941 10.235613 -81.074554
v 443.665985 1.618000 68.758446
v 126.550186 9.689467 462.796631
v 127.834503 10.204275 459.479462
v 443.666992 3.608000 78.724449
v 326.257904 10.597896 -82.036644
v 324.136108 11.048969 -82.413597
v 172.543991 4.934000 -131.665543
v 162.516968 5.904000 -131.665543
v 177.498978 4.173000 -131.665543
v 138.373062 12.303764 458.617310
v 443.663757 -21.606848 -11.141051
v 443.662781 -21.520607 -17.394428
v 182.454956 3.398000 -131.665543
v 140.737289 13.061326 455.551941
v 187.386948 3.105000 -131.665543
v 142.804367 14.184177 452.462494
v 443.665985 -18.128000 4.424449
v 337.998352 7.706659 -70.628426
v 192.318985 2.795000 -131.665543
v 130.387573 9.018323 475.241669
v 443.664948 -21.629999 -2.645551
v 336.984406 8.008257 -72.018356
v 443.664948 -21.553999 -3.766551
v -195.985046 -3.012880 463.596497
v 443.664886 -21.413576 -4.887409
v -196.041016 -2.564001 458.658478
v 143.221329 12.785698 452.478638
v 144.015030 12.949407 454.711304
v 443.661987 -21.674000 -18.728552
v -194.794769 -0.126548 453.549194
v 443.630981 -14.585000 -46.949551
v -196.334030 -10.844873 508.334442
v -195.575699 2.311598 444.297333
v 147.846176 16.323940 457.630951
v 443.647003 -15.792000 -38.269550
v 443.636993 -14.333000 -44.043549
v -193.966736 2.003745 448.631134
v 443.656982 -17.702000 -28.432550
v -196.249008 0.504513 426.672241
v -195.694061 3.419892 429.068390
v 147.227310 14.483679 457.722351
v 443.660980 -21.763000 -20.063551
v 148.295410 16.453745 458.083801
v 152.474976 6.631000 -131.665543
v -122.052338 15.001900 -105.141891
v -125.085594 21.650860 -105.860802
v 443.665985 -10.238000 25.996450
v 142.437973 7.127000 -131.665543
v -126.742859 25.571848 -104.969086
v 443.665985 -7.254000 35.142448
v 132.407974 6.949000 -131.665543
v 443.665985 -4.270000 44.288448
v 122.386971 6.814500 -131.665543
v -145.692276 29.128538 -91.314789
v 443.665985 -2.391500 51.535450
v -137.232025 -2.681000 508.172455
v -140.926346 30.200815 -100.557907
v -144.424973 30.722692 -97.951698
v 443.665985 -0.513000 58.782452
v -127.293037 -2.471000 508.240479
v -117.332031 -2.327000 508.282471
v -163.870071 22.939966 -55.969471
v -165.471832 23.041885 -54.680878
v 443.665985 0.624000 63.770451
v -165.766525 23.180710 -50.246349
v 443.665985 -12.587000 18.548450
v -147.147034 -2.617043 508.072968
v -166.462494 20.166939 -46.347870
v 443.665985 -15.678000 11.486449
v -196.334030 -10.844873 508.334442
v -191.808044 -6.964001 508.269440
v -166.386841 20.403326 -41.760799
v -112.063034 10.526193 -131.629547
v -166.680038 20.015953 -32.616192
v -97.388039 11.200000 -131.652542
v -107.460030 11.378088 -131.638550
v -166.145035 18.104546 -28.283144
v -87.380028 10.754001 -131.659546
v -195.902039 -5.428668 488.425476
v -195.966812 -5.267964 498.408508
v -162.795380 17.660391 -23.956427
v -77.378036 10.150500 -131.662048
v -150.306274 26.399359 -92.302597
v -152.904449 33.347645 -90.337517
v -59.884033 9.278000 -131.665039
v -67.376038 9.547000 -131.664551
v -157.062027 -2.553087 507.973480
v -52.392033 9.009000 -131.665543
v -166.999023 -1.354115 507.897461
v -167.487885 25.127632 -63.008575
v -166.196487 25.466928 -57.937012
v -32.399033 8.696000 -131.665543
v -42.395531 8.852500 -131.665543
v -181.902527 -4.016764 508.082458
v -171.997025 -1.069526 507.895477
v -168.576050 26.145567 -67.818260
v -195.861023 -5.353178 483.420471
v -172.874878 28.877441 -69.317596
v 112.365967 6.680000 -131.665543
v -195.859024 -4.589812 478.451477
v 102.349968 6.008000 -131.665543
v -195.932037 -2.953267 468.537476
v 381.221863 -9.623939 -121.701843
v 374.930542 -9.318020 -114.711563
v -135.965256 29.026648 -102.577126
v 92.317970 5.824000 -131.665543
v -194.443756 4.336553 433.939484
v -130.995102 26.786360 -104.031738
v 82.267967 5.728000 -131.665543
v -196.216995 3.398539 438.886353
v 374.122375 -9.315847 -105.640350
v -12.272034 9.051000 -131.665543
v -196.334030 -12.145000 264.297455
v -196.334030 -11.470000 269.059448
v -196.334030 -12.511999 259.534454
v -158.604446 14.044487 -21.506739
v -4.545533 9.184000 -131.665543
v -160.569519 15.194893 -16.668848
v -22.366034 8.809000 -131.665543
v -196.334030 -9.835000 238.962448
v 32.888966 5.601000 -131.665543
v 28.206968 5.988000 -131.665543
v -196.334030 -10.703000 244.058456
v -196.334030 -11.213000 249.155457
v 443.226990 -4.638000 470.262451
v 443.275970 -4.506000 464.225464
v 23.524965 6.375000 -131.665543
v -196.334030 -12.046000 254.345444
v 443.444946 -9.396000 498.199463
v 443.227966 -7.609000 487.580475
v 13.609967 7.902000 -131.665543
v -196.334030 -8.642000 233.951447
v 443.190979 -6.180000 481.946472
v 3.180967 9.317000 -131.665543
v -196.290024 2.024488 422.370422
v 443.194946 -4.803000 476.120483
v 67.250969 5.858000 -131.665543
v -196.308044 -0.149138 413.944427
v -196.298050 2.559523 418.849426
v 443.665985 -9.929000 508.334442
v 443.587982 -9.663000 503.303467
v 72.263962 6.037000 -131.665543
v -196.316010 -2.163791 409.036499
v 47.341969 5.756000 -131.665543
v 57.296471 5.807000 -131.665543
v -196.332031 -2.312000 379.861481
v -196.330048 -1.215542 387.238983
v 402.448975 -8.210000 507.947449
v 42.401966 5.783000 -131.665543
v -196.328049 -0.119084 394.616486
v 412.457001 -8.543000 507.864441
v 443.665985 5.170000 219.061447
v 443.665985 6.160000 214.276443
v -196.325043 0.226105 399.452454
v 422.402954 -9.324000 507.887451
v 443.665985 4.881000 224.137436
v -196.333054 -1.582000 374.862457
v 427.397003 -9.556000 507.961487
v 443.665985 4.592000 229.212448
v 290.350067 10.058254 -96.504120
v 289.754486 13.007954 -99.670013
v 432.432983 -9.788000 508.081482
v 443.665985 6.093000 199.134460
v 443.665985 7.223000 194.287445
v -196.334030 -1.529000 349.095459
v -196.334030 -1.388000 359.472473
v -123.404640 10.386985 -106.180214
v -124.028488 10.425176 -106.584785
v 290.936890 12.879783 -103.655411
v -196.333054 -0.870000 369.863464
v 392.100983 -7.352000 508.062469
v 443.665985 6.622000 204.313461
v -122.052338 15.001900 -105.141891
v -196.334030 0.799000 313.716431
v -196.334030 1.134000 323.804443
v 397.274963 -7.792000 508.004456
v 443.665985 7.150000 209.491440
v -196.334030 1.071000 328.846497
v 144.056793 1.946595 491.740112
v 382.363983 -6.399000 508.157471
v -196.334030 -0.793000 338.884460
v 367.640991 -6.750000 508.253479
v 149.742615 3.205190 494.633759
v 372.665985 -5.895000 508.227448
v 443.665985 5.322000 234.314453
v -196.334030 0.439000 308.670441
v 443.541992 -5.914000 429.963470
v 443.665985 5.571000 244.223450
v 443.665985 6.050000 239.412445
v -196.334030 -10.083000 274.077454
v 443.484497 -5.684500 438.464966
v 443.665985 5.084000 249.013458
v -196.334030 -5.777000 288.703461
v -196.334030 -3.455000 293.600464
v 443.427002 -5.455000 446.966492
v -196.334030 -7.075000 283.899445
v 443.351501 -4.980500 455.595978
v 443.665985 6.536000 254.028458
v -196.334030 -8.398000 279.096436
v 443.622498 -6.566999 408.062958
v 443.665985 7.186000 268.572449
v 443.665985 7.971000 259.019440
v -196.334030 -1.180000 298.498444
v 443.637970 -6.781000 401.607452
v 138.370972 0.688000 488.846497
v 443.650970 -8.050000 391.484467
v 443.665985 5.441000 292.193451
v 443.665985 6.431000 285.222443
v -196.334030 -0.331000 303.584442
v 443.574493 -6.133500 422.240967
v 443.665985 7.421000 278.251434
v 443.606995 -6.353000 414.518463
v 443.665985 4.176000 300.861450
v 443.665985 4.647000 296.622437
v -196.273514 7.897000 -53.717049
v 443.644958 -7.413000 396.493469
v -196.301010 7.694000 -46.041553
v 443.653992 -10.608001 387.629456
v 443.665985 2.878000 313.255463
v 443.656982 -13.195000 383.833466
v 443.665985 -1.123000 336.573486
v -142.360672 11.347878 -126.979790
v -31.961033 -0.415000 508.334442
v 443.665985 -1.116000 333.634460
v -137.651321 11.284443 -122.548019
v -77.187035 -0.184000 508.331482
v -67.058029 1.101000 508.333466
v 443.665985 -1.210000 330.717468
v -82.247032 -0.833000 508.330475
v 443.665985 0.952000 321.063446
v -87.307030 -1.506000 508.328491
v -92.338036 -1.872000 508.325470
v -196.334030 9.632999 33.468449
v -97.368034 -2.251000 508.321472
v -196.334030 2.855000 68.672455
v -102.362030 -2.253000 508.315460
v -196.334030 3.959000 63.704449
v -39.462032 0.356500 508.334442
v -196.334030 6.409000 53.685448
v -46.963032 1.128000 508.334442
v -196.334030 7.754000 48.635448
v -56.981033 1.587000 508.334442
v -196.334030 10.384000 38.527451
v -109.847031 -2.290000 508.298950
v -196.334030 9.069000 43.581451
v -178.163361 13.570081 -51.153465
v 18.230967 -5.084000 508.334442
v -196.301010 7.694000 -46.041553
v 33.137966 -6.282000 508.334442
v -196.331009 1.411000 -14.255550
v -160.772720 10.436871 -17.126816
v 279.096649 3.479601 488.190613
v 148.295410 16.453745 458.083801
v -132.471176 11.084478 -114.788956
v 218.953476 3.015411 -116.377350
v 373.074738 5.797822 -78.749001
v 260.075806 11.744667 -102.990135
v 157.669968 4.090842 508.334442
v 292.762939 15.023384 -95.572990
v 290.936890 12.879783 -103.655411
v 197.777649 19.089268 473.109650
v 127.481522 9.710942 464.935242
v 133.262817 13.008598 459.694214
v 337.797333 7.719595 -69.666389
v -195.966812 -5.267964 498.408508
v -172.162613 31.850258 -72.669121
v -196.246017 8.100000 -61.392548
v -147.070023 11.411311 -131.411560
s 1
f 1 2 3
s 2
f 10 5 11
s 3
f 14 5 15
s 4
f 16 5 17
s 3
f 18 5 14
s 2
f 11 5 19
s 3
f 15 5 20
s 2
f 19 5 21
s 3
f 22 5 23
f 20 5 22
s 4
f 26 5 27
s 3
f 23 5 28
f 29 5 30
f 30 5 32
s 4
f 35 5 36
s 3
f 34 5 29
s 4
f 36 5 37
s 3
f 28 5 38
s 4
f 39 5 35
s 3
f 38 5 40
s 5
f 41 5 42
f 44 5 41
f 45 5 44
s 6
f 50 5 51
f 53 5 50
s 5
f 52 5 54
f 54 5 56
s 3
f 57 5 58
f 32 5 57
f 58 5 61
s 5
f 62 5 45
s 7
f 65 5 66
s 8
f 68 5 69
f 72 5 68
s 9
f 73 5 74
s 6
f 47 5 76
s 9
f 74 5 77
f 78 5 79
s 5
f 80 5 81
s 9
f 82 5 78
f 86 5 73
f 88 5 86
s 10
f 90 5 91
f 94 5 95
f 91 5 97
s 11
f 98 5 99
s 10
f 97 5 100
s 11
f 92 5 98
s 10
f 101 5 94
s 11
f 99 5 102
s 10
f 100 5 106
f 106 5 108
f 108 5 110
s 11
f 111 5 112
f 109 5 114
s 12
f 116 5 117
s 10
f 95 5 119
s 11
f 121 5 123
s 13
f 124 5 125
s 14
f 126 5 127
s 11
f 129 5 130
s 14
f 127 5 132
s 11
f 134 5 135
s 12
f 136 5 116
s 15
f 138 5 139
s 12
f 140 5 136
s 15
f 139 5 142
s 4
f 144 5 145
f 145 5 148
s 11
f 146 5 149
f 149 5 152
s 4
f 151 5 144
s 11
f 155 5 134
s 4
f 157 5 158
s 11
f 159 5 155
s 16
f 160 5 153
s 4
f 161 5 157
s 11
f 162 5 159
s 4
f 164 5 165
s 11
f 168 5 169
s 16
f 170 5 171
s 4
f 158 5 172
s 16
f 173 5 170
s 4
f 148 5 164
s 11
f 177 5 179
s 4
f 165 5 161
s 6
f 76 5 181
s 11
f 182 5 183
s 16
f 178 5 184
s 6
f 181 5 185
s 11
f 186 5 182
s 6
f 185 5 187
s 11
f 188 5 186
s 16
f 147 5 189
s 6
f 187 5 190
s 11
f 191 5 188
s 16
f 189 5 192
s 11
f 194 5 191
s 6
f 196 5 197
s 11
f 179 5 194
s 6
f 199 5 196
s 16
f 198 5 201
s 15
f 142 5 203
s 17
f 205 5 206
s 6
f 208 5 209
s 17
f 210 5 205
s 6
f 211 5 208
s 17
f 206 5 212
s 18
f 218 5 219
f 219 5 222
s 17
f 221 5 224
s 18
f 228 5 229
s 11
f 230 5 231
s 19
f 232 5 233
s 11
f 235 5 236
f 238 5 235
f 241 5 238
f 243 5 244
s 17
f 245 5 246
s 18
f 247 5 248
s 11
f 231 5 243
f 236 5 230
s 19
f 250 5 252
s 11
f 249 5 254
f 254 5 256
s 20
f 257 5 258
s 11
f 256 5 241
s 20
f 259 5 257
s 11
f 263 5 264
s 18
f 265 5 266
f 268 5 265
f 270 5 268
s 20
f 258 5 274
s 11
f 271 5 275
s 20
f 274 5 276
s 11
f 277 5 278
s 21
f 279 5 276
s 11
f 280 5 277
f 275 5 280
f 278 5 284
s 10
f 286 5 287
f 287 5 290
s 22
f 292 5 293
s 10
f 290 5 294
s 22
f 298 5 299
s 10
f 301 5 302
s 9
f 303 5 304
s 10
f 296 5 301
s 9
f 305 5 303
s 11
f 307 5 308
s 9
f 309 5 305
s 22
f 306 5 310
s 9
f 311 5 309
s 22
f 310 5 312
s 9
f 315 5 311
s 22
f 316 5 292
s 23
f 314 5 318
s 9
f 79 5 315
s 11
f 317 5 319
f 319 5 321
s 22
f 323 5 324
f 324 5 330
s 11
f 331 5 332
f 334 5 331
s 4
f 335 5 336
s 22
f 337 5 339
s 11
f 338 5 334
s 9
f 304 5 340
s 24
f 341 5 342
s 9
f 340 5 344
s 24
f 342 5 345
f 353 5 354
s 3
f 356 5 357
s 25
f 358 5 359
s 3
f 352 5 356
s 25
f 359 5 361
s 3
f 366 5 367
s 25
f 364 5 368
s 9
f 371 5 372
f 374 5 371
s 4
f 375 5 376
s 9
f 378 5 374
s 24
f 379 5 380
s 9
f 381 5 382
f 384 5 381
s 25
f 386 5 387
s 9
f 388 5 389
s 3
f 390 5 391
s 9
f 389 5 384
s 3
f 367 5 390
s 9
f 382 5 378
s 4
f 320 5 398
s 26
f 399 5 400
s 24
f 401 5 353
s 4
f 336 5 403
s 24
f 404 5 401
s 26
f 400 5 407
s 24
f 345 5 404
s 4
f 409 5 410
f 411 5 409
s 25
f 412 5 414
s 9
f 417 5 418
s 11
f 421 5 422
s 9
f 418 5 423
s 11
f 425 5 426
s 9
f 423 5 427
s 11
f 426 5 429
s 9
f 427 5 430
s 11
f 429 5 432
s 4
f 434 5 435
s 11
f 436 5 437
s 9
f 405 5 438
s 4
f 439 5 434
s 11
f 437 5 425
f 432 5 421
s 4
f 442 5 443
s 9
f 440 5 445
s 4
f 443 5 446
s 11
f 448 5 449
s 4
f 446 5 450
s 11
f 452 5 448
f 455 5 452
s 27
f 456 5 457
s 11
f 459 5 460
s 4
f 461 5 462
s 28
f 463 5 464
s 27
f 457 5 465
s 4
f 462 5 466
s 28
f 464 5 469
s 4
f 470 5 471
s 11
f 449 5 473
f 460 5 263
f 105 5 478
f 478 5 480
s 4
f 482 5 470
s 11
f 484 5 485
s 4
f 410 5 486
s 11
f 488 5 484
s 4
f 489 5 490
f 492 5 489
f 495 5 492
s 11
f 497 5 498
s 4
f 490 5 499
f 486 5 495
s 11
f 503 5 504
s 4
f 505 5 482
s 11
f 504 5 507
s 4
f 499 5 505
s 11
f 509 5 510
f 510 5 503
f 515 5 509
f 244 5 517
f 517 5 520
s 3
f 522 5 523
f 525 5 522
s 11
f 524 5 526
s 3
f 527 5 525
s 11
f 526 5 515
s 3
f 528 5 527
s 4
f 37 5 529
s 3
f 530 5 528
f 532 5 530
f 523 5 538
s 4
f 529 5 539
s 3
f 357 5 540
f 540 5 532
s 4
f 544 5 16
f 27 5 39
s 3
f 4 543 5
f 6 12 5
s 29
f 7 547 5
s 3
f 8 519 5
f 9 8 5
f 12 9 5
s 4
f 13 17 5
s 2
f 24 21 5
s 30
f 25 548 5
s 4
f 26 31 5
f 31 33 5
f 33 546 5
s 3
f 34 43 5
f 43 40 5
s 5
f 46 42 5
s 6
f 47 51 5
s 5
f 48 49 5
f 49 46 5
f 52 48 5
s 6
f 53 55 5
f 55 549 5
s 5
f 59 81 5
f 60 59 5
f 62 60 5
s 3
f 63 61 5
s 2
f 64 67 5
f 67 70 5
f 70 542 5
s 8
f 71 69 5
f 75 71 5
s 31
f 83 85 5
s 9
f 84 87 5
f 82 84 5
s 31
f 85 550 5
s 9
f 87 89 5
f 89 551 5
f 88 369 5
s 11
f 92 96 5
s 32
f 93 521 5
s 11
f 96 122 5
s 10
f 103 115 5
s 11
f 104 102 5
s 10
f 101 103 5
s 11
f 105 104 5
f 107 112 5
f 109 107 5
s 10
f 113 110 5
f 115 113 5
s 11
f 118 114 5
f 120 118 5
f 121 131 5
f 122 120 5
f 111 128 5
f 128 130 5
s 14
f 126 552 5
s 11
f 131 135 5
s 4
f 133 137 5
f 137 141 5
f 141 531 5
s 16
f 143 150 5
s 11
f 146 180 5
s 16
f 147 143 5
f 150 553 5
s 4
f 151 133 5
s 16
f 153 553 5
s 33
f 154 554 5
s 34
f 156 163 5
f 163 166 5
s 11
f 162 169 5
s 34
f 166 555 5
s 4
f 167 172 5
s 11
f 168 175 5
s 4
f 174 167 5
s 11
f 175 152 5
s 16
f 173 556 5
s 4
f 176 174 5
s 11
f 177 327 5
s 16
f 178 171 5
s 11
f 180 183 5
s 16
f 160 184 5
s 6
f 193 197 5
s 16
f 195 192 5
f 198 195 5
s 15
f 200 203 5
s 6
f 202 190 5
s 16
f 204 213 5
s 6
f 199 209 5
s 16
f 207 204 5
f 213 215 5
s 6
f 211 202 5
s 17
f 214 212 5
s 16
f 215 201 5
s 4
f 216 220 5
s 17
f 217 214 5
s 4
f 220 223 5
s 17
f 221 217 5
s 4
f 223 226 5
s 18
f 225 222 5
s 4
f 226 176 5
s 17
f 227 224 5
s 18
f 234 229 5
s 17
f 237 227 5
s 18
f 228 240 5
s 17
f 239 237 5
s 18
f 240 242 5
f 242 248 5
s 17
f 245 239 5
s 18
f 247 251 5
s 11
f 249 516 5
s 19
f 250 233 5
s 18
f 251 218 5
s 20
f 253 557 5
s 18
f 255 285 5
s 11
f 260 262 5
s 18
f 261 225 5
s 11
f 262 269 5
s 18
f 261 266 5
s 11
f 267 264 5
f 269 267 5
f 271 272 5
s 20
f 259 253 5
s 11
f 272 273 5
s 18
f 270 283 5
s 11
f 273 260 5
s 18
f 281 255 5
s 19
f 282 252 5
s 18
f 283 281 5
f 285 276 5
s 11
f 288 284 5
s 22
f 289 293 5
s 11
f 291 288 5
f 295 291 5
s 22
f 289 558 5
s 10
f 296 294 5
s 11
f 297 300 5
s 10
f 90 302 5
s 11
f 300 295 5
s 22
f 298 558 5
f 299 559 5
f 306 559 5
s 11
f 307 321 5
f 313 365 5
s 23
f 314 560 5
s 11
f 317 313 5
s 4
f 320 322 5
f 322 326 5
s 11
f 325 308 5
s 4
f 326 333 5
s 11
f 327 332 5
s 35
f 328 561 5
s 4
f 329 406 5
f 333 329 5
s 22
f 323 312 5
f 337 330 5
s 11
f 338 325 5
s 4
f 335 431 5
s 11
f 343 346 5
f 346 348 5
s 9
f 347 344 5
s 11
f 348 351 5
s 9
f 349 347 5
s 24
f 350 354 5
s 11
f 351 355 5
s 3
f 352 363 5
s 11
f 355 360 5
f 360 297 5
f 362 343 5
s 3
f 363 383 5
s 25
f 364 361 5
s 11
f 365 362 5
s 9
f 369 372 5
s 25
f 370 368 5
f 373 370 5
f 377 373 5
s 4
f 375 393 5
s 3
f 383 385 5
s 25
f 358 387 5
s 3
f 385 391 5
s 25
f 386 392 5
f 392 394 5
s 4
f 393 396 5
s 25
f 394 562 5
s 9
f 395 349 5
s 4
f 396 398 5
s 24
f 379 350 5
s 9
f 397 395 5
f 402 397 5
f 405 402 5
s 4
f 406 403 5
s 9
f 408 413 5
f 388 415 5
s 25
f 412 377 5
s 9
f 413 430 5
s 4
f 411 424 5
s 9
f 415 408 5
s 4
f 416 428 5
f 419 416 5
s 9
f 417 445 5
s 4
f 420 419 5
f 424 420 5
f 428 216 5
f 431 435 5
s 9
f 433 438 5
f 440 441 5
s 4
f 439 450 5
s 9
f 441 433 5
s 11
f 444 472 5
f 447 444 5
f 451 447 5
s 4
f 453 466 5
s 11
f 454 451 5
s 4
f 442 453 5
s 11
f 458 454 5
f 436 458 5
f 459 468 5
f 467 476 5
f 468 473 5
f 472 467 5
s 4
f 474 471 5
s 33
f 475 479 5
s 11
f 476 480 5
s 4
f 477 474 5
s 11
f 455 481 5
s 4
f 461 477 5
s 33
f 479 154 5
s 11
f 481 485 5
f 483 487 5
f 487 491 5
f 491 493 5
f 488 494 5
f 493 422 5
f 494 498 5
f 496 508 5
f 500 496 5
f 497 507 5
s 33
f 501 475 5
s 11
f 502 512 5
f 506 483 5
f 508 506 5
s 36
f 511 563 5
s 11
f 512 500 5
s 36
f 513 511 5
s 11
f 514 502 5
f 516 514 5
s 32
f 518 564 5
s 3
f 519 534 5
s 32
f 521 518 5
s 11
f 524 520 5
s 4
f 531 533 5
f 533 535 5
s 3
f 534 536 5
s 4
f 535 537 5
s 3
f 536 538 5
s 4
f 537 541 5
f 541 539 5
s 2
f 542 24 5
s 3
f 543 6 5
f 18 545 5
f 545 4 5
s 4
f 546 13 5
