# Blender v2.91.0 OBJ File: ''
# www.blender.org
o l04_darkvalley_terrain.object.001_terrainShape.009
v 233.485992 -1.846242 -172.375992
v 233.485992 0.616456 -169.018997
v 233.485992 -3.453357 -185.138031
v 233.485992 -3.186632 -176.360001
v 233.485992 -0.688850 -194.372009
v 233.485992 -2.865186 -190.133011
v 233.485992 1.960411 -198.330994
v 233.485992 3.740702 -202.880005
v 233.485992 3.844557 -211.250992
v 233.485992 3.722649 -216.277527
v 233.485992 3.029831 -132.215500
v 233.485992 2.202561 -141.195999
v 233.485992 3.857101 -123.235001
v 233.485992 2.862829 -107.215347
v 233.485992 3.244659 -114.888000
v 233.485992 2.480998 -99.542686
v 233.485992 1.976943 -148.377991
v 233.485992 2.610882 -162.006012
v 233.485992 1.841569 -156.417007
v 233.485992 3.695790 -217.384003
v 233.485992 3.313910 -225.216995
v 233.485992 2.987290 -234.162994
v 233.485992 4.264620 -241.334000
v 233.485992 4.066260 -249.113007
v 233.485992 4.741090 -257.527008
v 233.485992 4.599710 -265.661011
v 233.485992 3.969540 -273.195007
v 233.485992 4.536040 -336.255005
v 233.485992 4.897220 -324.358002
v 233.485992 3.317169 -280.316010
v 233.485992 3.207430 -286.643005
v 233.485992 3.166530 -294.858002
v 233.485992 4.064540 -304.393005
v 233.485992 4.395040 -314.601990
v 233.485992 3.895890 -347.011993
v 233.485992 4.725250 -356.632996
v 233.485992 4.725250 -366.246002
v 233.485992 4.113950 -374.723022
v 233.485992 2.888900 -385.221985
v 233.485992 3.635590 -395.721008
v 233.485992 4.424380 -406.497955
v 233.485992 3.635590 -417.273987
v 233.485992 2.485120 -429.309998
v 233.485992 2.395960 -439.571991
v 220.507019 11.261201 -663.867004
v 226.996506 11.190500 -663.867004
v 233.485992 11.119800 -663.867004
v 233.485992 12.033001 -644.727539
v 233.485992 12.148501 -653.304016
v 233.485992 11.917500 -636.151001
v 233.485992 11.639400 -628.707520
v 233.485992 11.361301 -621.263977
v 233.485992 10.065701 -613.513977
v 233.485992 2.224730 -561.788025
v 233.485992 2.385140 -573.979980
v 233.485992 1.822650 -583.322021
v 233.485992 1.915220 -587.192993
v 233.485992 2.380130 -592.663025
v 233.485992 8.539310 -608.471008
v 233.485992 6.289230 -603.088989
v 233.485992 2.108820 -466.848022
v 233.485992 2.212070 -458.897003
v 233.485992 2.314540 -449.234985
v 233.485992 1.466140 -538.151001
v 233.485992 1.415930 -532.695007
v 233.485992 1.573770 -500.671997
v 233.485992 1.647590 -495.532043
v 233.485992 1.739390 -489.691010
v 233.485992 1.855960 -482.658020
v 233.485992 1.392590 -527.239014
v 233.485992 1.397910 -520.184021
v 233.485992 1.437470 -513.171021
v 233.485992 1.511690 -505.591003
v 233.485992 1.675140 -549.596008
v 233.485992 1.550490 -543.874023
v 233.485992 1.983600 -474.963989
v 134.114502 10.024099 -663.867004
v 127.678001 9.955500 -663.867004
v 108.342003 8.188470 -663.867004
v 118.010002 9.071985 -663.867004
v 165.570007 9.865881 -663.867004
v 155.662994 9.643649 -663.867004
v 148.106995 9.868175 -663.867004
v 140.550995 10.092700 -663.867004
v 187.856995 9.211780 -663.867004
v 196.160995 8.468041 -663.867004
v 175.950989 9.694730 -663.867004
v 212.093979 10.297900 -663.867004
v 203.089005 9.264331 -663.867004
v 206.330994 9.144350 -663.867004
v 199.810989 8.633810 -663.867004
v 233.485992 2.364710 -3.567330
v 233.485992 1.859850 8.834281
v 233.485992 2.036860 -10.459715
v 233.485992 1.709010 -17.352098
v 233.485992 2.398840 -26.627449
v 233.485992 3.088670 -35.902798
v 233.485992 3.368300 -51.939896
v 233.485992 3.228485 -43.921349
v 233.485992 3.584580 -58.448498
v 233.485992 3.800860 -64.957100
v 233.485992 2.609949 -92.313591
v 233.485992 2.738900 -85.084496
v 233.485992 3.269880 -75.020798
v -103.152000 2.256956 231.316986
v -113.612999 -0.440894 231.316986
v -92.652298 6.312480 231.316971
v -80.729210 9.922011 231.316986
v -69.977890 12.208899 231.316986
v -62.886906 13.015201 231.317017
v -54.906895 13.708399 231.316986
v -230.377991 10.754697 231.316971
v -224.998978 10.049596 231.316986
v -189.855972 -2.559363 231.316986
v -195.598007 -0.936917 231.316986
v -184.869003 -3.159290 231.316971
v -178.153015 -3.937915 231.316986
v -175.017014 -4.337957 231.317017
v -171.942017 -4.040267 231.316986
v -167.804016 -3.552398 231.316986
v -200.816986 1.477307 231.316986
v -211.291000 6.115891 231.316986
v -206.109985 4.096634 231.317017
v -216.503006 7.591847 231.316986
v -220.748978 8.684352 231.316971
v -164.136993 -3.183798 231.316986
v -160.483994 -2.555048 231.317017
v -157.262009 -2.063807 231.316986
v -154.477005 -2.004163 231.316986
v -149.960007 -1.137651 231.316986
v -140.447998 -1.137651 231.317017
v -127.712006 -0.272491 231.317017
v -120.662506 -0.356692 231.317001
v -237.949005 12.835266 -216.277527
v -237.949005 13.432900 -207.276031
v -237.949005 12.420508 -198.840271
v -237.949005 11.408116 -190.404510
v -237.949005 10.395724 -181.968750
v -237.949005 9.383332 -173.532990
v -237.949005 6.322341 -105.837013
v -237.948990 8.937934 -129.955994
v -237.949005 6.840875 -120.399002
v -237.949005 6.581608 -113.118011
v -237.949005 8.664702 -153.369995
v -237.949005 10.296203 -146.963013
v -237.949005 10.171701 -140.597992
v -237.949020 8.494800 -161.019989
v -227.809998 15.179002 -663.867004
v -220.176987 14.839700 -663.867004
v -213.450989 14.818201 -663.867004
v -208.854004 14.280901 -663.867004
v -205.529007 13.869900 -663.867004
v -201.009995 13.282300 -663.867004
v -196.561996 12.546501 -663.867004
v -171.074997 8.769101 -663.867004
v -181.442993 10.849400 -663.867004
v -190.426987 11.860600 -663.867004
v -159.960007 7.724760 -663.867004
v -150.582993 8.900210 -663.867004
v -142.807007 9.699060 -663.867004
v -137.440002 9.707320 -663.867004
v -134.546005 9.566390 -663.867004
v -132.328003 9.150110 -663.867004
v -130.830002 8.604940 -663.867004
v -129.826996 8.186640 -663.867004
v -127.642998 7.383870 -663.867004
v -123.751999 6.505151 -663.867004
v -116.917999 4.987180 -663.867004
v -112.931999 4.504540 -663.867004
v -237.949005 17.897898 -332.385986
v -237.949005 17.532499 -325.036499
v -237.949005 17.167101 -317.687012
v -237.949005 15.177551 -311.407013
v -237.949005 13.188001 -305.127014
v -237.949005 7.453140 -296.261993
v -237.949005 3.906010 -283.977997
v -237.949005 3.906010 -274.983002
v -237.949005 5.226000 -268.333984
v -237.949005 6.545990 -261.684998
v -237.949005 11.732700 -238.208496
v -237.949005 11.809500 -231.718979
v -237.949005 11.655900 -244.698013
v -237.949005 9.100945 -253.191498
v -237.949005 12.322383 -223.998260
v -237.949005 19.157200 -631.382996
v -237.949005 19.786949 -622.466003
v -237.949005 17.766201 -642.987000
v -237.949005 16.375200 -654.591003
v -237.949005 19.197399 -454.376007
v -237.949005 17.854601 -464.891541
v -237.949005 13.058300 -548.098999
v -237.949005 12.950000 -547.320984
v -237.949005 19.069901 -594.559021
v -237.949005 17.515301 -584.741028
v -237.949005 16.022999 -576.244995
v -237.949005 13.420901 -560.663025
v -237.949005 13.565500 -558.489990
v -237.949005 15.232800 -487.044037
v -237.949005 15.701900 -483.114014
v -237.949005 13.721699 -524.375977
v -237.949005 15.391699 -519.252991
v -237.949005 15.090301 -514.263977
v -237.949005 14.711200 -491.165985
v -237.949005 12.347500 -530.416992
v -237.949005 18.182600 -440.167999
v -237.949005 18.689999 -447.272003
v -237.949005 13.679800 -502.786011
v -237.949005 13.770300 -499.523987
v -237.949005 14.745249 -569.860962
v -237.949005 13.467500 -563.476990
v -237.949005 13.693899 -554.143005
v -237.949005 16.511803 -475.407043
v -237.949005 20.416698 -613.549011
v -237.949005 19.743299 -604.054016
v -236.477982 14.228001 -663.867004
v -237.949005 13.841201 -663.867004
v -237.949005 11.771100 -540.403503
v -237.949005 6.593994 -101.098991
v -237.948990 3.829390 -71.292702
v -237.948990 3.718680 -61.033798
v -237.949005 3.267511 -82.231407
v -237.949005 3.502352 -83.955902
v -237.949005 6.387195 -94.302200
v -237.949005 6.667296 -97.087502
v -237.949005 6.662914 -99.188690
v -237.949005 3.650454 -58.944901
v -237.949005 3.849313 -51.093750
v -237.949005 4.048172 -43.242603
v -237.949005 5.684659 -33.132198
v -237.949005 8.756671 -14.913399
v -237.949005 7.220665 -24.022799
v -237.949005 8.835906 -10.139600
v -237.948990 7.175241 -0.708471
v -237.948990 5.845448 3.667808
v -237.949005 4.841896 6.981677
v 92.611107 11.818795 231.316971
v 101.001045 10.657454 231.316971
v 109.390984 9.496112 231.316971
v 45.771900 16.563103 231.316986
v 58.301804 16.665102 231.316986
v 66.511353 15.627803 231.316986
v 74.720909 14.590504 231.316986
v 81.695503 14.532803 231.316986
v 21.021702 17.261499 231.317017
v 33.332104 17.872299 231.316986
v -0.641815 18.573700 231.316986
v 7.985570 17.172199 231.317017
v 14.503635 17.216850 231.317017
v -9.385409 19.316597 231.317017
v -35.159195 17.428600 231.316986
v -40.199200 16.164301 231.316986
v -46.342701 14.856800 231.316971
v -27.238197 18.477600 231.316971
v -19.511198 19.205498 231.317017
v -237.949005 3.007254 14.871200
v -237.949005 2.783304 16.525799
v -237.948990 2.433663 18.785799
v -237.948990 2.436932 22.874903
v -237.949005 2.741632 25.563501
v -237.949005 3.207152 29.821999
v -237.949005 3.299655 30.622597
v -237.949005 3.643697 36.309097
v -237.948990 3.671345 38.188499
v -237.949005 3.689363 45.387398
v -237.949005 3.707381 52.586300
v -237.948990 3.567328 55.699692
v -237.949005 3.384193 66.242203
v -237.949005 3.313359 67.998505
v -237.949005 2.712232 80.178299
v -237.949005 3.577457 88.376396
v -237.949005 3.960211 92.602394
v -237.949005 4.212167 102.654999
v -237.949020 4.048682 97.684807
v -237.948990 4.602991 121.628998
v -237.948990 4.206863 114.450989
v -237.949005 4.074739 108.072998
v -237.948990 4.955400 130.279984
v -237.949005 5.451401 139.251999
v -237.949005 7.731328 151.715988
v -237.949005 8.616958 161.907990
v -237.949005 14.801500 174.009003
v -237.949005 11.709229 167.958496
v -237.949005 19.300404 186.387985
v -237.949005 17.050953 180.198486
v -237.949005 14.824753 223.925476
v -237.948990 12.443003 231.316971
v -237.949005 17.206503 216.533997
v -237.949005 19.801201 204.031967
v -237.949005 19.550802 195.209976
v -235.755981 12.062901 231.316986
v -237.948990 3.186144 12.948601
v -237.949005 3.873211 10.201600
v -237.949005 16.221300 -377.326996
v -237.949005 15.802851 -370.330505
v -237.949005 15.384400 -363.334015
v -237.949005 15.749050 -356.515503
v -237.949005 16.113701 -349.696991
v -237.949005 16.994600 -345.265991
v -237.949005 17.456699 -339.638000
v -237.949005 15.404699 -418.359985
v -237.949005 16.004999 -415.598999
v -237.949005 16.666702 -382.782043
v -237.949005 17.765202 -406.412994
v -237.949005 17.559851 -398.398010
v -237.949005 17.354500 -390.382996
v -237.949005 14.701499 -428.018005
v 55.547001 -1.374510 -663.794983
v 46.322800 -2.072170 -663.794983
v 116.205498 9.126575 231.316986
v 123.020012 8.757040 231.317017
v 132.027512 7.440229 231.317017
v 141.035004 6.123419 231.317017
v 149.504990 6.041739 231.315979
v 162.039978 8.995930 231.313004
v 154.042984 7.239489 231.315979
v 185.722015 9.548173 231.308014
v 194.779999 9.442155 231.310989
v 177.350998 8.885494 231.309021
v 168.831985 8.976012 231.312012
v 205.509003 8.056535 231.309998
v 213.255020 7.270345 231.310989
v 220.595993 6.451309 231.309982
v -61.624001 8.832800 -663.867004
v -68.449646 8.210000 -663.867004
v -75.275299 7.587200 -663.867004
v -81.522903 5.892915 -663.867004
v -87.770500 4.198630 -663.867004
v -100.537994 3.987220 -663.867004
v -107.702003 4.082360 -663.867004
v -26.052401 4.484961 -663.867004
v -36.930500 6.434560 -663.867004
v -8.543550 5.486540 -663.867004
v -4.854430 4.295720 -663.867004
v -19.045000 5.301970 -663.867004
v -12.462399 5.595380 -663.867004
v -0.604187 3.255370 -663.867004
v -48.562801 7.953010 -663.867004
v -55.093399 8.392904 -663.867004
v 63.569649 -2.263370 -663.828003
v 71.592300 -3.152230 -663.861023
v 94.708504 -1.001920 -663.867004
v 98.337601 2.463670 -663.867004
v 79.351097 -4.081720 -663.866028
v 90.519798 -4.570070 -663.867004
v 103.589996 5.858250 -663.867004
v 30.846001 -2.432670 -663.848999
v 29.783501 -1.178390 -663.851929
v 28.474298 0.450311 -663.857971
v 31.803301 -3.378440 -663.846008
v 40.877499 -3.503850 -663.818970
v 43.428902 -2.716160 -663.808960
v 35.620602 -4.297860 -663.836975
v 38.049000 -4.080550 -663.830017
v 2.716160 2.966160 -663.867004
v 26.611900 1.951760 -663.862976
v 24.581398 3.123000 -663.866028
v 22.079500 3.857380 -663.867004
v 18.059601 4.172060 -663.867004
v 13.746200 4.093270 -663.867004
v 10.604200 3.678830 -663.867004
v 6.999600 3.330879 -663.867004
v 4.299740 3.209331 -663.867004
v 233.389023 8.225849 208.663025
v 232.770004 7.090672 220.881012
v 233.485992 6.869125 162.325989
v 233.485992 7.315437 168.969498
v 233.485992 7.761749 175.613007
v 232.427994 3.046310 102.979012
v 227.040985 6.331468 231.307480
v 233.485992 6.211626 231.304977
v 233.485992 6.566633 154.880493
v 233.485992 7.752880 185.276001
v 233.485992 8.156955 192.835007
v 232.445007 2.098949 77.238899
v 233.485992 3.047919 60.896000
v 232.965500 2.573434 69.067451
v 233.437500 8.191402 200.749023
v 233.485992 2.389084 34.038101
v 233.485992 1.974217 24.980703
v 233.485992 2.803951 43.095497
v 233.485992 1.917033 16.907492
v 232.843979 3.029162 92.681908
v 233.485992 2.925935 51.995750
v 232.326996 4.592474 127.785995
v 233.046997 5.881021 139.405991
v 232.644501 2.564056 84.960403
v 232.574982 3.990091 111.820511
v 232.721985 4.933872 120.662003
v 233.485992 6.264141 147.434982
v 233.485992 6.499880 231.304977
v -18.120491 -291.956604 -235.396179
s 1
f 125 113 391
f 214 213 391
f 193 214 391
f 130 129 391
f 126 120 391
s 2
f 49 48 391
s 1
f 227 226 391
s 2
f 156 155 391
f 100 98 391
f 60 58 391
f 48 50 391
s 1
f 131 130 391
s 2
f 101 100 391
f 73 66 391
s 1
f 127 126 391
s 2
f 215 148 391
f 75 64 391
s 1
f 250 251 391
s 2
f 16 102 391
f 62 63 391
f 384 385 391
s 1
f 114 115 391
f 293 302 391
f 230 231 391
s 2
f 102 103 391
s 1
f 132 131 391
s 2
f 326 325 391
f 85 86 391
s 1
f 231 229 391
s 2
f 67 68 391
f 1 2 391
f 327 326 391
f 65 70 391
f 374 386 391
s 3
f 215 188 391
s 2
f 386 382 391
f 50 51 391
s 1
f 228 227 391
f 303 301 391
s 4
f 216 215 391
f 188 216 391
s 2
f 71 72 391
f 368 387 391
f 51 52 391
f 103 104 391
s 1
f 133 132 391
s 2
f 3 4 391
s 1
f 304 303 391
f 116 114 391
f 135 134 391
f 106 133 391
s 2
f 387 388 391
s 1
f 316 318 391
s 2
f 336 354 391
f 388 384 391
s 1
f 195 194 391
s 2
f 87 85 391
f 154 157 391
f 333 336 391
f 52 53 391
s 1
f 111 110 391
f 318 319 391
f 256 255 391
f 137 136 391
f 257 256 391
f 110 109 391
s 2
f 104 101 391
s 1
f 217 192 391
f 319 314 391
f 305 304 391
f 136 135 391
s 2
f 4 1 391
s 1
f 204 217 391
f 302 305 391
s 2
f 157 156 391
s 1
f 258 257 391
s 2
f 20 10 391
s 1
f 320 317 391
s 2
f 55 54 391
s 1
f 118 117 391
f 197 196 391
s 2
f 21 20 391
s 1
f 259 258 391
s 2
f 88 45 391
s 1
f 117 116 391
s 2
f 22 21 391
s 1
f 321 320 391
f 260 259 391
s 2
f 81 87 391
f 57 56 391
f 23 22 391
f 24 23 391
f 355 348 391
s 1
f 261 260 391
s 2
f 89 90 391
f 25 24 391
s 1
f 262 261 391
s 2
f 356 355 391
f 389 371 391
f 91 89 391
s 1
f 253 250 391
s 2
f 26 25 391
s 1
f 306 205 391
f 263 262 391
f 138 137 391
s 2
f 56 55 391
f 357 356 391
s 1
f 139 138 391
s 2
f 385 389 391
s 1
f 199 198 391
f 322 321 391
s 2
f 27 26 391
f 358 357 391
s 1
f 264 263 391
f 128 127 391
f 265 264 391
f 119 118 391
s 2
f 58 57 391
s 1
f 300 306 391
s 2
f 359 358 391
f 5 6 391
s 1
f 201 200 391
s 2
f 90 88 391
f 360 359 391
s 1
f 266 265 391
s 2
f 53 59 391
f 364 390 391
f 361 360 391
s 1
f 202 201 391
f 267 266 391
f 237 236 391
f 142 141 391
s 2
f 59 60 391
f 362 361 391
s 1
f 238 237 391
f 198 203 391
f 268 267 391
s 2
f 376 374 391
f 363 364 391
f 354 362 391
f 382 368 391
s 1
f 269 268 391
f 143 142 391
f 240 239 391
f 140 143 391
f 270 269 391
f 271 270 391
s 2
f 365 366 391
f 366 367 391
s 1
f 241 240 391
f 272 273 391
s 2
f 339 340 391
s 1
f 273 271 391
s 2
f 28 29 391
s 1
f 274 275 391
s 2
f 61 62 391
f 86 91 391
f 331 330 391
f 30 27 391
s 1
f 171 170 391
f 275 276 391
s 2
f 78 77 391
s 1
f 172 171 391
s 2
f 31 30 391
s 1
f 276 272 391
f 145 144 391
s 2
f 32 31 391
s 1
f 369 322 391
s 2
f 307 339 391
f 79 80 391
s 1
f 120 119 391
s 2
f 341 342 391
s 1
f 146 145 391
f 278 277 391
s 2
f 63 44 391
f 33 32 391
s 1
f 277 274 391
s 2
f 332 333 391
f 80 78 391
f 34 33 391
s 1
f 141 146 391
f 279 278 391
s 2
f 29 34 391
s 1
f 370 369 391
f 218 140 391
f 173 172 391
s 2
f 82 81 391
s 1
f 242 241 391
f 174 173 391
s 2
f 64 65 391
s 1
f 115 121 391
f 309 238 391
s 2
f 84 83 391
s 1
f 175 174 391
s 2
f 371 365 391
s 1
f 310 309 391
s 2
f 83 82 391
s 1
f 311 310 391
s 2
f 35 28 391
f 7 5 391
s 1
f 236 243 391
s 2
f 66 67 391
f 155 158 391
s 1
f 232 230 391
f 280 279 391
f 312 311 391
s 2
f 372 373 391
f 340 343 391
s 1
f 317 316 391
f 294 293 391
f 176 175 391
s 2
f 158 159 391
f 36 35 391
f 159 160 391
s 1
f 177 176 391
f 281 282 391
f 282 280 391
s 2
f 68 69 391
f 330 334 391
f 37 36 391
f 160 161 391
s 1
f 220 219 391
f 233 232 391
f 147 139 391
f 178 177 391
f 205 206 391
f 206 189 391
s 2
f 161 162 391
s 1
f 234 233 391
f 179 178 391
s 2
f 38 37 391
f 10 9 391
f 343 344 391
s 1
f 249 254 391
f 219 221 391
s 2
f 308 307 391
f 162 163 391
f 92 93 391
s 1
f 295 294 391
s 2
f 328 327 391
f 39 38 391
s 1
f 221 222 391
s 2
f 344 341 391
f 163 164 391
s 1
f 207 202 391
f 297 296 391
s 2
f 334 335 391
s 1
f 222 223 391
f 243 242 391
s 2
f 70 71 391
f 375 376 391
f 335 332 391
f 40 39 391
f 164 165 391
s 1
f 296 295 391
f 208 207 391
f 123 122 391
f 251 252 391
f 223 224 391
s 2
f 165 166 391
s 1
f 247 246 391
f 144 147 391
s 2
f 41 40 391
s 1
f 224 225 391
s 2
f 94 92 391
f 77 84 391
s 1
f 225 218 391
f 105 106 391
f 283 284 391
f 186 185 391
s 2
f 17 12 391
s 1
f 284 281 391
f 203 208 391
s 2
f 373 377 391
f 95 94 391
f 42 41 391
s 1
f 181 180 391
f 252 111 391
f 107 105 391
s 2
f 377 363 391
s 1
f 286 285 391
f 180 182 391
f 235 234 391
s 2
f 72 73 391
f 43 42 391
s 1
f 285 287 391
f 121 123 391
f 245 244 391
f 246 249 391
f 182 183 391
f 298 297 391
f 226 220 391
f 239 245 391
f 254 253 391
f 187 188 391
s 2
f 44 43 391
f 169 329 391
s 1
f 183 179 391
f 299 298 391
s 2
f 379 378 391
f 347 346 391
s 1
f 244 248 391
s 2
f 337 331 391
f 329 328 391
s 1
f 209 195 391
f 189 190 391
f 248 247 391
s 2
f 148 149 391
f 346 349 391
s 1
f 210 209 391
s 2
f 378 380 391
s 1
f 229 228 391
f 196 210 391
s 2
f 149 150 391
f 74 75 391
s 1
f 192 191 391
s 2
f 93 381 391
f 323 338 391
s 1
f 288 289 391
s 2
f 150 151 391
f 338 337 391
s 1
f 313 312 391
f 289 283 391
f 287 288 391
f 200 204 391
s 2
f 151 152 391
f 47 49 391
f 8 7 391
f 348 347 391
s 1
f 170 299 391
f 113 112 391
s 2
f 9 8 391
f 2 18 391
f 6 3 391
f 152 153 391
f 381 379 391
s 1
f 108 107 391
s 2
f 18 19 391
f 12 11 391
f 153 154 391
f 97 96 391
s 1
f 314 315 391
f 184 181 391
s 2
f 76 61 391
f 19 17 391
f 11 13 391
s 1
f 112 290 391
f 134 184 391
f 290 286 391
s 2
f 350 351 391
f 69 76 391
s 1
f 122 124 391
f 191 211 391
f 301 300 391
f 211 197 391
f 194 193 391
s 2
f 351 308 391
s 1
f 315 313 391
s 2
f 380 383 391
f 15 14 391
f 98 99 391
s 1
f 190 212 391
s 2
f 324 323 391
f 14 16 391
s 1
f 212 199 391
s 2
f 349 352 391
f 325 324 391
f 99 97 391
s 1
f 255 291 391
s 2
f 13 15 391
f 166 167 391
f 367 372 391
s 1
f 291 292 391
f 124 125 391
s 2
f 342 345 391
f 96 95 391
s 1
f 185 187 391
f 109 108 391
s 2
f 353 350 391
s 1
f 292 235 391
s 2
f 54 74 391
f 167 168 391
f 383 375 391
f 352 353 391
s 1
f 213 186 391
s 2
f 45 46 391
s 1
f 129 128 391
s 2
f 345 79 391
f 168 169 391
f 46 47 391
